<svg width="111" height="141" viewBox="0 0 111 141" fill="none" xmlns="http://www.w3.org/2000/svg">
<path d="M55.4528 140.789C86.0786 140.789 110.906 138.947 110.906 136.674C110.906 134.401 86.0786 132.559 55.4528 132.559C24.8271 132.559 0 134.401 0 136.674C0 138.947 24.8271 140.789 55.4528 140.789Z" fill="#868BB0"/>
<path d="M92.8177 131.34C92.8177 131.34 91.4374 132.971 90.8703 133.821C90.3033 134.672 89.4533 136.939 89.4533 136.939C89.4533 136.939 89.3587 138.734 94.3661 138.64C99.3735 138.545 100.583 137.412 100.583 137.412C100.583 137.412 100.567 136.256 100.254 134.992C99.9406 133.727 99.8567 131.219 99.8567 131.219C99.8567 131.219 95.2372 130.37 92.8177 131.34Z" fill="#573D50"/>
<path d="M77.4261 67.1838C77.4261 67.1838 77.0211 71.5578 77.4261 78.0773C77.8311 84.5963 80.0044 100.482 80.0044 100.482C80.0044 100.482 79.6265 101.981 80.0044 103.115C80.3823 104.249 81.3426 106.233 81.3426 106.233C81.3426 106.233 82.1773 120.877 82.3665 122.483C82.5556 124.089 82.1777 125.318 82.3665 126.357C82.5556 127.396 83.6893 128.632 83.6893 128.632C83.6893 128.632 87.2365 130.15 91.2733 128.632C91.2733 128.632 90.303 109.445 90.303 103.493C90.303 97.5403 87.9409 79.8484 87.6576 76.2701C87.3742 72.6919 86.6181 67.5846 86.6181 67.5846C86.6181 67.5846 80.4223 66.1165 77.4261 67.1838Z" fill="#4A3241"/>
<path d="M90.8704 130.066C90.8704 130.066 92.2875 132.026 96.2557 131.743C100.224 131.459 101.455 130.647 101.455 130.647C101.455 130.647 101.93 128.828 101.455 128.632C101.455 128.632 102.174 127.05 102.238 125.334C102.303 123.617 101.741 116.626 101.455 109.729C101.169 102.832 101.228 94.0568 101.187 89.1318C101.146 84.2065 100.814 70.5306 100.814 70.5306C100.814 70.5306 95.9246 66.0656 86.6181 67.5848L83.6426 67.7132C83.6426 67.7132 84.0747 78.3612 84.2599 79.4949C84.4452 80.6286 85.201 84.1001 85.4847 85.9547C85.768 87.8093 87.4688 99.9029 88.0355 103.682C88.6026 107.461 89.0747 110.579 89.3584 112.563C89.6421 114.547 90.8704 130.066 90.8704 130.066Z" fill="#4A3241"/>
<path d="M84.5156 81.1465C84.8953 83.1674 85.244 85.194 85.609 87.2184L86.6518 93.3007L87.1632 96.344L87.4122 97.8667L87.6303 99.3941L88.4889 105.506L89.3036 111.624L89.7104 114.683L89.9131 116.212C89.9877 116.721 89.9973 117.237 90.0423 117.75L90.4826 123.906C90.6115 125.959 90.7571 128.011 90.8706 130.065C90.6447 128.02 90.4512 125.974 90.2407 123.928L89.6629 117.788C89.5876 116.763 89.426 115.747 89.2843 114.729L88.8554 111.676L87.9978 105.569L87.1846 99.4576L86.9779 97.9299L86.7399 96.4068L86.2767 93.3585L85.3707 87.2577C85.0866 85.2207 84.7854 83.1866 84.5156 81.1465Z" fill="#553C4E"/>
<path d="M81.3424 66.8242C81.5266 67.8316 81.6625 68.8462 81.781 69.8625C81.8973 70.8774 82.0076 71.9016 82.0704 72.914C82.1264 73.9225 82.2292 74.9263 82.4929 75.8838C82.7563 76.828 83.2348 77.7655 84.152 78.2672C83.6584 78.1181 83.2163 77.7915 82.8798 77.3851C82.544 76.975 82.3017 76.4965 82.1247 76.0033C81.7682 75.0127 81.6418 73.9689 81.5758 72.944C81.559 72.4276 81.5084 71.9251 81.478 71.4156C81.4505 70.907 81.4145 70.3992 81.3963 69.89C81.351 68.8715 81.3224 67.8516 81.3424 66.8242Z" fill="#553C4E"/>
<path d="M82.5059 80.7832C83.2103 80.8374 83.8594 80.8988 84.5175 80.896C84.8451 80.8985 85.1723 80.8928 85.5028 80.8674C85.8361 80.8521 86.1647 80.8025 86.5237 80.7832C86.2397 80.9952 85.9146 81.1575 85.5706 81.2485C85.2283 81.3492 84.8704 81.3974 84.5139 81.392C84.1574 81.3909 83.802 81.3395 83.4612 81.2414C83.1214 81.144 82.7896 81.0027 82.5059 80.7832Z" fill="#553C4E"/>
<path d="M83.6898 128.632C83.6898 128.632 81.9787 130.008 80.795 130.875C79.7554 131.637 73.7591 132.512 72.3139 134.919C72.0252 135.4 72.366 136.013 72.927 136.013H90.3595C91.3155 136.013 92.0895 135.242 92.0998 134.286C92.1123 133.136 92.0727 131.69 91.8386 130.875C91.4075 129.375 91.2741 128.632 91.2741 128.632C91.2741 128.632 86.8808 128.058 83.6898 128.632Z" fill="#573D50"/>
<path d="M62.1529 53.6257C62.1529 53.6257 63.8444 54.7224 65.0366 57.5062C66.2286 60.2901 66.0198 62.5843 66.0198 62.5843C66.0198 62.5843 63.5771 62.0872 61.6543 58.5746C59.7316 55.0617 60.6908 53.3324 62.1529 53.6257Z" fill="#4A3241"/>
<path d="M59.7319 55.0623L60.8763 55.1636L62.9928 54.127L66.0429 58.0891L58.8472 62.5798C58.8472 62.5798 57.5861 62.6562 56.9562 62.1898C56.3264 61.7234 54.6267 60.382 53.0633 59.7414C51.4999 59.1008 53.1503 56.4929 54.2427 55.8167C55.3357 55.1404 59.7319 55.0623 59.7319 55.0623Z" fill="#CA8A6A"/>
<path d="M75.6865 31.2873C75.6865 31.2873 74.9104 32.1427 74.2987 34.7642C73.6871 37.3857 71.9831 49.834 71.9831 49.834C71.9831 49.834 71.4588 49.3058 71.1965 49.834C70.9343 50.3621 71.5242 50.7554 71.5242 50.7554C71.5242 50.7554 70.1478 50.3621 70.3444 50.7554C70.541 51.1486 70.5877 51.4109 70.5877 51.4109L62.1523 53.6252C62.1523 53.6252 63.5313 54.2579 65.0361 57.5057C66.2159 60.0522 66.0193 62.5838 66.0193 62.5838C66.0193 62.5838 75.2305 59.3817 77.1133 58.1159C78.9957 56.8501 79.3889 45.971 79.3889 42.1701C79.3886 38.3688 79.1277 30.5633 75.6865 31.2873Z" fill="#573D50"/>
<path d="M78.2856 28.1074L75.6866 31.2885C75.6866 31.2885 74.4736 39.741 74.4736 52.0647C74.4736 64.3884 74.0804 67.3454 74.4736 68.9798C74.8669 70.6142 77.2503 71.5623 77.2503 71.5623C77.2503 71.5623 78.3762 70.0154 78.2859 62.9749C78.1953 55.9348 78.7295 34.3057 78.7295 34.3057L78.2856 28.1074Z" fill="#4A3241"/>
<path d="M77.1133 63.998L77.4266 67.1843C77.4266 67.1843 78.7056 67.6022 82.5061 67.7068C86.3067 67.8113 92.3136 67.0277 92.3136 67.0277V63.5801C92.3136 63.5801 82.9111 64.9904 77.1133 63.998Z" fill="#2D1F28"/>
<path d="M79.043 64.2344L79.3684 67.51C79.3684 67.51 81.3686 67.7965 83.6418 67.7127L83.3959 64.3357C83.3959 64.3357 79.9401 64.3232 79.043 64.2344Z" fill="#684F60"/>
<path d="M97.6793 75.6133C97.6793 75.6133 96.4396 75.6272 95.9696 76.4983C95.4996 77.3694 94.2981 78.153 93.3057 79.5633C92.3133 80.9736 91.0075 80.8134 91.3208 81.4943C91.6342 82.1752 94.0369 82.2237 94.8726 81.4943C95.7084 80.7649 95.9696 80.347 96.2308 80.4516C96.4921 80.5561 95.8651 82.0185 94.9772 82.9067C94.0893 83.7946 93.2686 84.317 92.8171 84.0037C92.3654 83.6904 92.1566 85.6231 93.619 85.8844C95.0818 86.1456 95.9172 85.6752 96.962 84.5262C96.962 84.5262 97.1708 85.2053 98.3202 84.9961C99.4697 84.787 100.253 84.0558 100.253 84.0558C100.253 84.0558 100.671 84.5258 101.663 84.0037C102.656 83.4813 103.387 82.7879 103.544 80.7841C103.7 78.7804 103.544 78.3101 103.544 78.3101L103.976 77.0439L97.6793 75.6133Z" fill="#CA8A6A"/>
<path d="M96.9629 84.5258C96.9629 84.5258 98.112 83.4492 98.5299 82.2637L96.9629 84.5258Z" fill="#CA8A6A"/>
<path d="M87.6381 23.5527L88.1876 23.9335C88.1876 23.9335 83.4864 36.3654 83.9567 44.4096C84.4267 52.4539 86.0558 64.4155 86.0558 64.4155C86.0558 64.4155 79.5167 64.99 77.114 63.9976C77.114 63.9976 76.644 50.103 76.9052 41.2754C77.1664 32.4478 78.7305 28.1073 78.7305 28.1073L87.6381 23.5527Z" fill="#EFE0E4"/>
<path d="M82.4396 16.3672L85.9818 22.6846C85.9818 22.6846 82.4114 27.3209 79.7007 28.9407L77.4668 22.2371L82.4396 16.3672Z" fill="#CA8A6A"/>
<path d="M79.7012 28.9415L81.7245 31.9498L87.6377 23.553L85.9822 21.8008L85.675 22.1369L85.9822 22.6851C85.9822 22.6851 82.7095 26.9249 79.7012 28.9415Z" fill="white"/>
<path d="M78.6151 25.6836L78.2129 25.9327L78.4142 31.9493L79.7006 28.941L78.6151 25.6836Z" fill="white"/>
<path d="M78.7285 31.2124C78.7285 31.2124 78.9726 33.2062 79.4023 33.5035C79.8319 33.8011 80.7248 33.5035 80.7248 33.5035L81.4449 31.5358L79.6999 28.9414L78.7285 31.2124Z" fill="#D36B6E"/>
<path d="M78.7289 62.1687L80.5078 65.1459L82.8584 61.855L80.7252 33.5023C80.7252 33.5023 80.2826 32.8863 79.4026 33.5023C79.4026 33.5023 76.5845 41.7971 78.7289 62.1687Z" fill="#D36B6E"/>
<path d="M91.9477 26.875L98.3726 30.1492C98.3726 30.1492 94.455 34.5285 95.1601 39.5213C95.8653 44.5138 100.096 53.0234 100.096 53.0234L102.238 70.2764C102.238 70.2764 95.447 71.5193 92.4177 71.7806C89.3879 72.0418 86.724 70.736 86.0974 68.4896C85.4707 66.2432 83.9566 51.0953 83.6689 47.2823C83.3813 43.4692 82.8589 39.6559 85.0004 35.3204C87.1422 30.9853 88.7613 26.996 91.9477 26.875Z" fill="#573D50"/>
<path d="M85.3125 44.0674V44.88H91.424V43.5742L85.3125 44.0674Z" fill="#4A3241"/>
<path d="M98.3721 30.1484C98.3721 30.1484 95.3948 29.8872 94.1412 32.3945C92.8875 34.9017 92.7308 37.0957 93.7233 39.603C94.7157 42.1103 97.223 49.7888 97.223 49.7888C97.223 49.7888 96.2306 51.0945 96.8051 51.5649C97.3796 52.0348 97.693 52.244 97.693 52.244C97.693 52.244 97.6409 52.4527 97.5363 53.0797C97.4317 53.7067 98.3721 54.49 98.3721 54.49L96.8572 72.8211C96.8572 72.8211 99.6778 74.13 102.238 73.9734C104.797 73.8167 105.842 73.4356 105.842 73.4356C105.842 73.4356 108.088 55.5345 108.088 52.5573C108.088 49.58 103.961 38.8718 102.969 36.3645C101.976 33.8569 99.939 30.4093 98.3721 30.1484Z" fill="#573D50"/>
<path d="M93.5293 39.0684L94.5342 41.7209C94.8693 42.6052 95.1962 43.492 95.5159 44.3813C96.159 46.1588 96.8145 47.932 97.4315 49.7188L97.484 49.8704L97.3484 49.9714C97.1692 50.1045 96.993 50.2955 96.8845 50.4885C96.7714 50.6859 96.7399 50.8946 96.7967 51.0891C96.8506 51.2875 97.0133 51.4631 97.1821 51.6262C97.282 51.6979 97.3737 51.7771 97.4786 51.8446L97.8048 52.0359L97.9647 52.1297L97.9229 52.3067C97.8305 52.6989 97.7845 53.1361 97.8366 53.5204C97.8608 53.7138 97.9208 53.8929 98.0182 54.0168C98.1124 54.1431 98.2437 54.2148 98.4097 54.2494L98.6363 54.2969L98.6167 54.5114C98.3776 57.1407 98.1692 59.7722 97.9051 62.3994L97.5111 66.3401C97.3634 67.6523 97.2306 68.9659 97.0683 70.277C97.1232 68.957 97.2081 67.6395 97.2777 66.3209L97.5357 62.369C97.7067 59.7343 97.9329 57.1039 98.1288 54.4714L98.3358 54.7333C98.0685 54.6905 97.7891 54.5453 97.6214 54.3144C97.4519 54.0864 97.3823 53.8276 97.3527 53.5871C97.322 53.3441 97.3252 53.1064 97.3459 52.8745C97.368 52.6404 97.4055 52.4195 97.4647 52.1843L97.5828 52.4548L97.2199 52.2368C97.1014 52.1586 96.9894 52.0626 96.8748 51.9759C96.665 51.77 96.448 51.5405 96.357 51.2137C96.2625 50.8907 96.3349 50.5321 96.493 50.2701C96.6525 50.0011 96.8488 49.7926 97.0993 49.6092L97.0162 49.8619C96.4013 48.0747 95.8257 46.2737 95.2372 44.4773C94.941 43.5798 94.6523 42.6798 94.3715 41.7769L93.5293 39.0684Z" fill="#422D3F"/>
<path d="M97.6934 52.2445C98.2822 52.4914 98.8585 52.7398 99.4409 52.9561C100.023 53.1609 100.613 53.37 101.195 53.4157C101.488 53.4571 101.762 53.4228 102.011 53.3393C102.065 53.3179 102.125 53.2883 102.133 53.2776C102.136 53.2598 102.132 53.3425 102.135 53.3154C102.116 53.2651 101.988 53.1559 101.872 53.0806C101.365 52.7655 100.773 52.5189 100.2 52.2441C100.836 52.3244 101.457 52.4593 102.064 52.7445C102.215 52.8294 102.372 52.8886 102.518 53.1102C102.551 53.1663 102.585 53.2558 102.572 53.3515C102.568 53.4018 102.555 53.4457 102.534 53.4828C102.515 53.5249 102.492 53.5581 102.468 53.5802C102.371 53.6891 102.282 53.7251 102.195 53.7719C101.854 53.9096 101.484 53.9478 101.15 53.9096C100.47 53.8422 99.8609 53.5952 99.2857 53.3094C98.7133 53.0175 98.1748 52.6663 97.6934 52.2445Z" fill="#422D3F"/>
<path d="M97.3251 73.0176L96.9629 75.0706C96.9629 75.0706 99.3135 77.0554 101.507 77.3166C103.701 77.5779 105.007 76.4976 105.007 76.4976L105.412 73.5561L97.3251 73.0176Z" fill="#EFE0E4"/>
<path d="M88.1863 23.9336L91.9472 26.8752L88.9699 28.9414L90.0669 29.5227C90.0669 29.5227 83.7409 38.7571 83.3962 42.4977C83.3962 42.4977 82.8584 35.9411 88.1863 23.9336Z" fill="#4A3241"/>
<path d="M89.8184 136.011C89.9222 135.639 90.0678 135.293 90.2284 134.955C90.389 134.617 90.5645 134.288 90.7565 133.969C90.9471 133.649 91.1559 133.34 91.3785 133.04C91.6016 132.739 91.8396 132.448 92.1197 132.182C92.0166 132.554 91.871 132.901 91.7104 133.239C91.5495 133.576 91.3746 133.906 91.1816 134.224C90.9903 134.544 90.7819 134.853 90.5588 135.153C90.3358 135.453 90.0981 135.745 89.8184 136.011Z" fill="#422D3F"/>
<path d="M71.9152 6.51053C71.3006 6.70038 70.375 7.7135 70.6319 10.0124C70.8885 12.3116 71.2992 15.0091 71.6072 17.3051C71.9152 19.6011 72.4287 22.5538 74.2768 22.6691C76.125 22.7843 78.3839 22.2801 80.0779 20.6585C81.7719 19.037 82.4396 16.3673 82.4396 16.3673C82.4396 16.3673 84.9037 16.5243 85.3658 14.5976C85.828 12.671 85.0065 10.6686 82.3368 11.4387C82.3368 11.4387 83.4663 9.17983 83.0042 7.22925C82.5417 5.27866 80.3855 3.89227 71.9152 6.51053Z" fill="#CA8A6A"/>
<path d="M81.6192 14.7245C81.6192 14.7245 80.2331 14.9814 79.6682 13.8777C79.1037 12.7739 78.4874 12.1576 78.5388 11.0282C78.5901 9.89871 80.4897 8.66648 80.7463 7.94777C81.0029 7.22905 80.3412 4.70678 77.7619 5.16463C75.1825 5.62212 72.5325 7.3743 71.711 7.48599C70.8895 7.59769 70.2222 6.07034 69.7087 5.10968C69.1952 4.14901 70.5302 2.35224 71.1975 1.58214C71.8648 0.812038 72.4297 -0.0608354 72.8401 0.0419396C73.2508 0.144715 73.5074 2.30085 73.5074 2.30085C73.5074 2.30085 75.8177 0.333491 77.0496 0.033731C78.2818 -0.26603 78.0381 1.53075 78.0381 1.53075C78.0381 1.53075 80.8483 1.06862 83.7232 1.27417C86.598 1.47936 87.4195 4.25179 87.6247 6.04857C87.8303 7.84535 85.4779 13.8777 85.4779 13.8777C85.4779 13.8777 85.773 10.3598 82.3372 11.4389L81.6192 14.7245Z" fill="#70414E"/>
<path d="M74.6873 14.3134C74.6873 14.5543 74.4918 14.7498 74.2509 14.7498C74.01 14.7498 73.8145 14.5543 73.8145 14.3134C73.8145 14.0725 74.01 13.877 74.2509 13.877C74.4921 13.877 74.6873 14.0722 74.6873 14.3134Z" fill="#4A3241"/>
<path d="M73.6103 12.4373H75.0477C75.0477 12.4373 74.9967 11.2325 74.2519 11.1811C73.5075 11.1301 73.6103 12.4373 73.6103 12.4373Z" fill="#70414E"/>
<path d="M72.582 19.9979C72.8572 19.9912 73.1013 19.9683 73.3186 19.9055C73.5359 19.8427 73.7143 19.7399 73.8728 19.604C74.0327 19.4673 74.1601 19.281 74.296 19.0844C74.352 18.9788 74.4188 18.8738 74.4837 18.7636C74.5444 18.6508 74.6044 18.5359 74.6871 18.4199C74.7125 18.5552 74.715 18.6911 74.7182 18.8296C74.7061 18.9648 74.6843 19.1022 74.6515 19.2378C74.564 19.5023 74.4359 19.7756 74.1997 19.9769C73.9702 20.1799 73.658 20.2931 73.3632 20.2884C73.0684 20.2874 72.7879 20.1846 72.582 19.9979Z" fill="#422D3F"/>
<path d="M85.2667 12.4369C84.6083 12.4052 83.9521 12.4983 83.4835 12.8455C83.4214 12.883 83.3661 12.9287 83.3172 12.9822C83.268 13.0347 83.2084 13.075 83.1705 13.1382L83.0371 13.307L82.9314 13.4986C82.8926 13.56 82.8629 13.6274 82.8412 13.6999L82.758 13.9076C82.7145 14.0521 82.6842 14.2034 82.6445 14.3511L82.2927 14.1067C82.5047 14.0025 82.7063 13.9325 82.9368 13.8915C83.1602 13.8601 83.4325 13.8605 83.6584 14.021C83.8821 14.1891 83.9435 14.4503 83.9503 14.6645C83.9446 14.7733 83.9381 14.8807 83.9189 14.9842C83.8957 15.087 83.8657 15.1876 83.8386 15.2865C83.829 15.1823 83.8165 15.0806 83.8104 14.9806C83.7958 14.8811 83.7729 14.7847 83.7565 14.6909C83.6983 14.5096 83.6113 14.3529 83.4821 14.3005C83.2319 14.1873 82.8258 14.344 82.5289 14.5178L82.0625 14.7911L82.1767 14.2737C82.2142 14.1031 82.2452 13.9311 82.2916 13.7612C82.3583 13.5953 82.3965 13.4201 82.5011 13.267C82.6592 12.9408 82.9379 12.6661 83.2516 12.4816C83.5695 12.2971 83.9321 12.2146 84.2782 12.2189C84.6251 12.2228 84.9648 12.2917 85.2667 12.4369Z" fill="#422D3F"/>
<path d="M72.0603 14.4696C72.0603 14.7105 71.9032 14.9061 71.7098 14.9061C71.5164 14.9061 71.3594 14.7105 71.3594 14.4696C71.3594 14.2288 71.5164 14.0332 71.7098 14.0332C71.9032 14.0332 72.0603 14.2284 72.0603 14.4696Z" fill="#4A3241"/>
<path d="M71.9672 13.0293C72.0874 13.4693 72.1488 13.915 72.182 14.3629C72.2159 14.8068 72.2148 15.2707 72.1717 15.7122C72.136 16.1518 72.086 16.5786 72.106 16.9933C72.1288 17.404 72.2334 17.8048 72.5835 18.112C72.3619 18.0553 72.157 17.9068 72.01 17.7116C71.8655 17.5143 71.7723 17.2813 71.7231 17.0486C71.6239 16.5807 71.6399 16.1147 71.6778 15.6711L71.7966 14.36C71.8362 13.9189 71.8826 13.4764 71.9672 13.0293Z" fill="#422D3F"/>
<path d="M71.0341 12.6111H71.8799C71.8799 12.6111 71.8499 11.4064 71.4117 11.355C70.9734 11.3036 71.0341 12.6111 71.0341 12.6111Z" fill="#70414E"/>
<path d="M77.4668 22.2373C78.031 21.8412 78.5859 21.5201 79.1212 21.165C79.3881 20.9883 79.649 20.8078 79.9081 20.6179C80.1646 20.4238 80.4073 20.2168 80.6771 19.9941C80.4826 20.669 79.9602 21.2017 79.3935 21.5797C79.1048 21.7674 78.7947 21.919 78.4728 22.0343C78.1509 22.1485 77.8154 22.2313 77.4668 22.2373Z" fill="#422D3F"/>
<path d="M37.9099 68.9805L38.0833 72.5362C38.0833 72.5362 36.4004 73.1807 35.2545 72.5362L34.0059 69.4255L37.9099 68.9805Z" fill="#85533F"/>
<path d="M39.9457 71.1741L41.5929 82.0957L30.9935 80.5559L29.8477 70.9004L39.9457 71.1741Z" fill="#2D1F28"/>
<path d="M39.9473 71.1756H40.52L42.0174 80.9941C42.0666 81.3075 42.3568 81.5241 42.6712 81.482C42.9727 81.4416 43.1929 81.1761 43.1765 80.8721L42.6326 70.5311L43.2232 70.2773L43.6507 81.4527C43.6625 81.7382 43.4659 81.9901 43.1861 82.0479L42.1976 82.2524C41.87 82.3202 41.5524 82.099 41.5024 81.7682L39.9473 71.1756Z" fill="#4A3241"/>
<path d="M40.5 71.1211C40.5 71.1211 41.0296 71.6232 41.5941 71.5558C42.1587 71.4883 42.6326 70.5312 42.6326 70.5312L43.2521 80.8509C43.2692 81.176 43.0287 81.4579 42.7047 81.4918C42.3796 81.526 42.0848 81.2984 42.0352 80.9754L40.5 71.1211Z" fill="#EFE0E4"/>
<path d="M42.631 70.5311L31.3372 70.2773C31.3372 70.2773 30.9446 71.3358 29.8477 70.9018L40.5184 71.1759C40.5184 71.1759 40.8692 71.6259 41.5926 71.556C42.3163 71.4857 42.631 70.5311 42.631 70.5311Z" fill="white"/>
<path d="M43.2223 70.2766L31.7508 69.6738L31.3379 70.2766L42.6317 70.5303L43.2223 70.2766Z" fill="#573D50"/>
<path d="M36.3151 42.498C36.3151 42.498 37.2511 44.1671 37.6576 45.6405C38.064 47.1144 38.2164 53.8729 38.1151 57.9382C38.0134 62.0035 38.1458 65.9461 38.1458 65.9461C38.1458 65.9461 38.7249 66.374 38.6236 66.5264C38.5219 66.6787 38.1154 66.9838 38.1154 66.9838C38.1154 66.9838 38.6475 66.9838 38.6357 67.3903C38.6239 67.7968 38.0141 68.0002 38.0141 68.0002C38.0141 68.0002 38.4958 67.8985 38.6361 68.356C38.7763 68.8135 37.9124 68.9808 37.9124 68.9808L32.7012 69.575L33.8981 48.8426C33.8974 48.8419 33.9056 44.5386 36.3151 42.498Z" fill="#4A3241"/>
<path d="M31.457 128.235L32.1996 132.182C32.1996 132.182 33.5107 133.252 35.6776 133.055C37.8444 132.858 38.5831 131.775 38.5831 131.775V127.055C38.5831 127.055 34.5742 126.911 31.457 128.235Z" fill="#85533F"/>
<path d="M30.9993 132.465C30.9993 132.465 31.4425 131.48 32.7229 131.825C34.0033 132.169 34.0525 132.514 35.6284 132.465C37.2043 132.416 37.8445 131.972 37.6475 131.431C37.4505 130.889 39.4696 130.347 40.5038 130.84C40.5038 130.84 41.341 132.316 43.1631 133.08C44.9852 133.844 51.4858 134.435 52.126 135.764C52.4211 136.377 52.3229 138.032 52.3229 138.032H32.9199C32.9199 138.032 31.147 138.131 30.9993 137.096C30.8515 136.062 30.9993 132.465 30.9993 132.465Z" fill="#573D50"/>
<path d="M36.0454 72.8784L39.1451 126.628C39.1451 126.628 35.1729 130.168 30.5095 127.837C30.5095 127.837 25.0999 85.0908 25.2573 79.9096C25.4146 74.728 30.1823 70.8557 36.0454 72.8784Z" fill="#4A3241"/>
<path d="M16.9039 67.6983L15.7559 70.4379C15.7559 70.4379 21.1933 74.6556 26.7321 74.9607C32.2709 75.2658 36.692 72.5216 36.692 72.5216C36.692 72.5216 36.692 68.9138 36.3362 66.2206C35.9804 63.5273 32.0168 61.9518 26.2239 63.7304C20.4307 65.5086 16.9039 67.6983 16.9039 67.6983Z" fill="#EFE0E4"/>
<path d="M32.5528 38.5801C32.5528 38.5801 34.7093 40.6598 35.5226 41.3714C36.3355 42.083 36.4957 42.7435 36.6442 44.5221C36.793 46.3007 36.4372 52.3477 36.3861 54.2279C36.3355 56.1082 36.5168 58.2933 36.6802 59.9701C36.8436 61.647 37.1994 65.9454 37.1994 65.9454C37.1994 65.9454 37.3011 68.7107 36.1831 69.5236C35.0651 70.3365 34.2946 67.7168 34.3963 64.7881C34.498 61.8593 33.3964 50.0748 33.0071 45.4264C32.6177 40.778 31.711 40.4225 31.711 40.4225C31.711 40.4225 31.2599 38.685 32.5528 38.5801Z" fill="#573D50"/>
<path d="M22.5968 37.0234C22.5968 37.0234 21.8538 38.0679 20.2276 38.7285C18.6014 39.389 16.213 40.6809 17.128 46.5394C18.0426 52.3979 20.1263 57.5302 20.1263 57.5302L19.7612 57.9367V58.5466H19.3269L19.7612 59.3088C19.7612 59.3088 17.8902 64.2888 15.7559 66.7279C15.7559 66.7279 18.6525 69.2687 22.0569 71.6062C25.4617 73.9436 29.3743 74.2487 31.5086 71.3014C33.643 68.3541 34.4559 66.8296 34.4559 63.3231C34.4559 59.8166 35.5993 51.9304 33.4514 46.539C33.4514 46.539 30.2889 41.7182 29.4249 40.5028C28.5613 39.2873 24.4578 36.233 22.5968 37.0234Z" fill="#573D50"/>
<path d="M33.4512 46.5391C33.7242 47.3884 33.9326 48.2563 34.1381 49.1249C34.3269 49.997 34.4868 50.8756 34.6274 51.7585C34.9086 53.5238 35.0481 55.3138 35.0467 57.1081C35.0224 58.8981 34.8993 60.6835 34.6645 62.4535C34.5482 63.3385 34.4158 64.221 34.2623 65.0996C34.0928 65.9753 33.9262 66.8518 33.7013 67.715C33.8155 66.8311 33.9344 65.95 34.0218 65.0646C34.126 64.1821 34.2152 63.2982 34.2852 62.4135C34.4297 60.6446 34.5382 58.8739 34.5514 57.1046C34.5653 55.3388 34.4407 53.5709 34.2512 51.8084C34.1574 50.927 34.0393 50.047 33.9008 49.1698C33.7763 48.2891 33.616 47.4151 33.4512 46.5391Z" fill="#422D3F"/>
<path d="M25.1146 28.1246L24.2988 35.0441C24.2988 35.0441 28.0237 39.5212 31.0463 40.5036C31.0463 40.5036 31.4663 40.1678 30.6545 35.0441L30.6263 31.1814C30.6263 31.1814 27.3864 27.8402 25.1146 28.1246Z" fill="#85533F"/>
<path d="M20.3166 28.0634C20.3166 28.0634 19.175 29.2767 19.3431 29.7246C19.5111 30.1724 20.1271 30.1164 20.1271 30.1164C20.1271 30.1164 20.267 31.2084 20.9389 31.2362C21.6109 31.2641 22.2547 30.1442 22.2547 30.1442C22.2547 30.1442 22.6187 32.3839 24.1025 31.9082C25.5863 31.4321 25.5242 28.71 25.5242 28.71C25.5242 28.71 24.7462 26.0008 23.1504 25.9729C21.5549 25.9451 20.3166 28.0634 20.3166 28.0634Z" fill="#353635"/>
<path d="M34.925 16.3209C34.925 16.3209 36.0387 23.0038 36.4491 25.2898C36.8595 27.5762 36.5661 30.7415 34.3386 31.1519C32.1111 31.5623 30.4696 31.3278 28.4765 30.507C26.4835 29.6863 24.08 27.1069 24.08 27.1069C24.08 27.1069 20.7973 30.1552 19.0972 26.638C17.3972 23.1208 21.2662 21.7137 23.1422 23.4723C23.1422 23.4723 21.0906 18.8999 23.0252 16.3205C24.9597 13.7412 33.2249 9.05204 34.925 16.3209Z" fill="#85533F"/>
<path d="M23.4778 26.8121C23.1085 26.8564 22.7249 26.8374 22.3513 26.7051C22.1671 26.6351 21.9823 26.5309 21.8367 26.3625C21.6903 26.1915 21.6268 25.9596 21.619 25.7426C21.6165 25.5324 21.6568 25.3037 21.7817 25.1024C21.9112 24.9054 22.1025 24.7634 22.2995 24.6738C22.7045 24.499 23.1014 24.4893 23.5132 24.5261L23.3683 24.9925L22.8719 24.7745C22.7024 24.7213 22.5325 24.6638 22.362 24.6203C22.019 24.5407 21.6714 24.5207 21.3321 24.5757C20.9984 24.6471 20.6804 24.808 20.4153 25.051C20.1452 25.2898 19.9318 25.6024 19.7637 25.9442C19.8258 25.5663 19.9885 25.1988 20.2347 24.8837C20.4842 24.5714 20.8346 24.3205 21.2354 24.1978C21.6379 24.0789 22.059 24.095 22.459 24.1578C22.656 24.1999 22.8473 24.2616 23.0393 24.3184L23.5867 24.5489C23.7112 24.6014 23.7698 24.7452 23.7173 24.8697C23.6738 24.9732 23.5674 25.031 23.4614 25.0178L23.4418 25.0153C23.126 24.9761 22.7598 24.9925 22.4808 25.102C22.3398 25.1563 22.2221 25.2362 22.1386 25.3429C22.0636 25.455 22.0162 25.5938 22.0008 25.7515C21.9915 25.9011 22.0172 26.042 22.0929 26.1705C22.1721 26.2975 22.3034 26.4021 22.4512 26.4874C22.7513 26.6608 23.1139 26.7507 23.4778 26.8121Z" fill="#422D3F"/>
<path d="M36.5519 13.293C36.5519 13.293 37.0947 15.3342 37.3748 17.7701C37.6549 20.206 35.7657 21.3183 35.7657 21.3183C35.7657 21.3183 34.8026 17.5963 34.8008 15.8491C34.799 14.1023 36.5519 13.293 36.5519 13.293Z" fill="#353635"/>
<path d="M32.4591 22.878C32.4591 23.1571 32.2329 23.383 31.9542 23.383C31.6751 23.383 31.4492 23.1567 31.4492 22.878C31.4492 22.5989 31.6755 22.373 31.9542 22.373C32.2329 22.373 32.4591 22.5989 32.4591 22.878Z" fill="#353635"/>
<path d="M30.8506 21.3192C30.8506 21.3192 31.3128 20.5427 32.1036 20.7104C32.1036 20.7104 31.7745 19.8986 31.1868 20.0106C30.5983 20.1223 30.8506 21.3192 30.8506 21.3192Z" fill="#353635"/>
<path d="M34.07 22.3066C34.1735 22.6699 34.2798 23.0175 34.4379 23.3091C34.5232 23.4532 34.606 23.5731 34.7255 23.6659C34.8661 23.7858 35.006 23.9154 35.1384 24.0674C35.2687 24.219 35.3896 24.4067 35.4539 24.6216C35.5113 24.8385 35.5167 25.0662 35.4642 25.2668C35.4143 25.473 35.3411 25.6318 35.2612 25.8088C35.1738 25.9762 35.0852 26.1532 34.9379 26.282C34.9882 26.1004 35.0067 25.9205 35.0278 25.7396C35.0485 25.5648 35.0738 25.3688 35.081 25.2129C35.0938 24.8835 34.9793 24.6405 34.7609 24.3889C34.6545 24.2626 34.5286 24.1384 34.4037 24.006C34.2531 23.8493 34.1367 23.6516 34.0821 23.4575C33.964 23.0682 33.9697 22.6746 34.07 22.3066Z" fill="#422D3F"/>
<path d="M34.4052 25.5684C34.488 25.6551 34.5233 25.7286 34.5423 25.7978C34.5608 25.8667 34.5633 25.9313 34.5465 25.9909C34.5315 26.0508 34.4962 26.1051 34.4452 26.1547C34.3938 26.2046 34.3256 26.2496 34.2097 26.2817C34.1265 26.195 34.0908 26.1211 34.0719 26.0523C34.0537 25.9834 34.0509 25.9184 34.0683 25.8596C34.0844 25.8 34.119 25.7457 34.1704 25.6958C34.2218 25.6462 34.29 25.6008 34.4052 25.5684Z" fill="#422D3F"/>
<path d="M32.104 26.8125C32.4729 27.2803 32.8234 27.6693 33.263 27.9066C33.48 28.023 33.7102 28.125 33.9689 28.1725C34.0956 28.2114 34.2305 28.2153 34.3679 28.2431C34.5067 28.2638 34.6476 28.2646 34.8007 28.2963C34.6726 28.372 34.5345 28.4373 34.3903 28.4858C34.2437 28.5161 34.0927 28.5661 33.9364 28.5582C33.6245 28.5797 33.2994 28.4944 33.02 28.3388C32.7381 28.1828 32.5079 27.947 32.3505 27.6814C32.1942 27.4152 32.0961 27.1173 32.104 26.8125Z" fill="#422D3F"/>
<path d="M24.3853 34.3066H23.8982L22.5957 37.0252L26.033 40.7882L27.7259 39.8476V41.5844C27.7259 41.5844 32.582 45.456 33.4502 46.5415C33.4502 46.5415 31.9689 42.3927 31.045 40.5053C31.045 40.5053 26.4705 37.5887 24.2976 35.0457L24.3853 34.3066Z" fill="#4A3241"/>
<path d="M30.6543 35.043L32.3297 37.1677L32.8001 40.1346H32.1035L33.0899 41.3647L33.4517 46.5388L31.0465 40.5025C31.0465 40.5025 31.1935 38.8688 30.963 37.2073C30.7325 35.5458 30.6543 35.043 30.6543 35.043Z" fill="#4A3241"/>
<path d="M23.1754 43.3536C23.1754 43.3536 22.3624 41.2192 21.2444 40.2029C20.1264 39.1865 18.761 39.2472 17.6651 40.7924C16.5692 42.3372 16.7748 45.6128 17.5399 48.7899C18.3053 51.967 25.5128 62.0033 26.2244 63.172C26.9359 64.3407 28.4094 63.9849 28.4094 63.9849C28.4094 63.9849 27.6978 65.0013 28.7142 64.9506C29.7305 64.8999 29.8829 64.4931 29.8829 64.4931C29.8829 64.4931 29.8004 65.7128 30.6548 65.5601C31.5091 65.4077 31.5091 65.4077 31.5091 65.4077L32.4237 66.5258L34.7604 59.1574L33.1353 59.3098C33.1353 59.3098 33.2074 58.4968 32.0533 58.8523C32.0533 58.8523 32.5468 57.7853 32.0533 57.7342C31.5597 57.6835 31.1554 57.8359 31.1554 57.8359L23.1754 43.3536Z" fill="#573D50"/>
<path d="M24.0156 44.8789C24.6708 45.9256 25.3153 46.9779 25.9341 48.0442C26.5597 49.107 27.1827 50.1711 27.7873 51.2456C28.3918 52.3201 28.9959 53.3946 29.5837 54.4784C30.1768 55.5593 30.7585 56.6463 31.3334 57.7369L31.1224 57.6341C31.3137 57.6119 31.4911 57.6059 31.6809 57.6194C31.8679 57.6376 32.066 57.6623 32.2647 57.7932C32.314 57.8211 32.3575 57.8785 32.3993 57.9231C32.4339 57.9767 32.4603 58.0423 32.4796 58.1026C32.4853 58.1633 32.4896 58.2257 32.4885 58.2853L32.451 58.4424C32.42 58.5419 32.3714 58.6236 32.3283 58.71L32.173 58.9384L31.9775 58.7236C32.1263 58.644 32.2712 58.5783 32.4282 58.5226C32.5852 58.4705 32.7472 58.4199 32.9389 58.4302C33.0306 58.437 33.148 58.4656 33.2258 58.5576C33.3036 58.6436 33.3239 58.755 33.3232 58.8438C33.3289 58.938 33.3018 59.0173 33.2893 59.1018L33.2122 59.3345L33.1276 59.2267C33.6715 59.1993 34.2153 59.1711 34.7606 59.1554C34.2221 59.2414 33.6825 59.3149 33.143 59.3887L33.0291 59.4044L33.0584 59.281L33.1101 59.0622C33.1134 58.9926 33.1316 58.9163 33.1198 58.8549C33.1076 58.715 33.0484 58.675 32.9267 58.6743C32.8047 58.675 32.6605 58.72 32.5256 58.7753C32.39 58.8313 32.2526 58.9027 32.1291 58.9776L31.6153 59.2892L31.9336 58.7628L32.0585 58.5562C32.0874 58.4873 32.1249 58.4159 32.1406 58.3503C32.1816 58.2036 32.1556 58.134 32.0678 58.0826C31.9736 58.0259 31.8165 58.0002 31.6624 57.997C31.5075 57.9934 31.3387 58.0091 31.1888 58.0345L31.0504 58.058L30.9776 57.9313C30.3627 56.8625 29.7543 55.7902 29.1576 54.7118C28.5552 53.6362 27.97 52.5514 27.3844 51.4665C26.7988 50.3817 26.2321 49.2865 25.6679 48.1898C25.0958 47.0989 24.5506 45.9919 24.0156 44.8789Z" fill="#422D3F"/>
<path d="M22.8125 58.1172C23.4456 58.9162 24.0569 59.7298 24.6585 60.5499C25.2555 61.3732 25.8429 62.2029 26.4218 63.0386L26.4064 63.0183C26.5235 63.1496 26.6758 63.2856 26.8254 63.399C26.9781 63.5132 27.139 63.6142 27.3071 63.6888C27.4756 63.7612 27.6483 63.8084 27.8196 63.8273C27.9916 63.8415 28.1589 63.8116 28.3213 63.7587L29.0354 63.5264L28.6043 64.1285C28.4833 64.2976 28.3588 64.5114 28.3192 64.6769C28.3106 64.7151 28.3092 64.7508 28.3103 64.7597C28.3142 64.7683 28.3003 64.7462 28.2988 64.7497C28.2985 64.7601 28.4023 64.7779 28.4997 64.7612C28.7021 64.7369 28.9273 64.6637 29.1439 64.5852C29.3619 64.5046 29.5807 64.4125 29.798 64.3179L30.0371 64.2137L30.0738 64.4621C30.0995 64.6356 30.1499 64.8265 30.2187 64.9938C30.289 65.1616 30.3775 65.3232 30.501 65.4288C30.622 65.537 30.7779 65.578 30.9471 65.5455C31.032 65.5427 31.1159 65.4956 31.2026 65.4695C31.2861 65.4288 31.3675 65.3778 31.4513 65.3321L31.5363 65.2861L31.5809 65.3478C31.8635 65.739 32.15 66.1261 32.4227 66.5255C32.0855 66.1793 31.7625 65.8214 31.4353 65.467L31.5648 65.4827C31.4795 65.5438 31.3971 65.6101 31.3064 65.6676C31.2065 65.7122 31.1169 65.7786 30.9995 65.7961C30.7818 65.8624 30.5042 65.8196 30.3122 65.6704C30.117 65.5273 29.9928 65.3332 29.8979 65.1387C29.8033 64.9399 29.7373 64.744 29.6906 64.5235L29.9664 64.668C29.748 64.7779 29.5303 64.8907 29.2991 64.9831C29.0668 65.0756 28.8345 65.1658 28.5597 65.2108C28.423 65.2258 28.2689 65.2593 28.0558 65.1484C27.9505 65.0916 27.8638 64.9617 27.846 64.8514C27.8242 64.7412 27.8392 64.6555 27.8535 64.576C27.9298 64.2723 28.0622 64.0664 28.2132 63.8412L28.4962 64.2112C28.2681 64.2926 28.0233 64.3358 27.7817 64.3183C27.5416 64.2983 27.3132 64.2316 27.1044 64.137C26.896 64.041 26.7069 63.9186 26.531 63.7837C26.3543 63.6449 26.1973 63.5043 26.0414 63.3259L26.0331 63.3166L26.026 63.3055C25.4675 62.4562 24.9176 61.6012 24.3777 60.7394C23.8424 59.8744 23.3164 59.0033 22.8125 58.1172Z" fill="#422D3F"/>
<path d="M10.3579 123.788L8.74023 126.652C8.74023 126.652 8.78948 130.198 11.2026 130.641C13.6156 131.084 16.3242 130.641 16.3242 130.641C16.3242 130.641 15.29 129.115 15.4377 128.327C15.5855 127.539 15.9734 127.014 15.9734 127.014C15.9734 127.014 13.2067 123.436 10.3579 123.788Z" fill="#85533F"/>
<path d="M9.43131 125.43C9.43131 125.43 9.03556 124.93 8.14912 126.211C7.26269 127.491 6.22852 129.313 6.22852 129.313C6.22852 129.313 7.74373 132.366 9.79317 134.09C11.8426 135.814 13.0613 138.177 15.9732 138.818C18.8852 139.458 22.2339 138.473 22.5294 138.325C22.8249 138.177 23.1696 137.586 23.1204 136.799C23.0711 136.011 22.7225 136.454 20.4097 134.632C18.0973 132.81 17.2601 130.741 16.8661 129.609C16.8661 129.609 15.0932 128.968 12.5324 129.953C12.5324 129.953 10.9073 130.347 10.5133 129.165C10.119 127.984 10.5658 126.718 9.43131 125.43Z" fill="#573D50"/>
<path d="M15.7557 70.4375C15.7557 70.4375 14.2969 73.2959 14.6776 78.3076C15.0584 83.319 16.9037 93.5954 16.9037 93.5954C16.9037 93.5954 16.402 94.4836 16.9037 94.7374C17.4055 94.9911 17.8494 95.2448 17.8494 95.2448C17.8494 95.2448 16.9729 95.0546 16.9037 95.7523C16.8345 96.4499 17.8494 96.577 17.8494 96.577C17.8494 96.577 16.2635 96.6405 16.6443 97.4652C17.0247 98.2899 17.5325 98.4166 17.5325 98.4166L9.79297 123.283C9.79297 123.283 13.5357 126.898 17.0879 127.216C17.0879 127.216 25.9055 107.043 26.9839 100.636C28.0623 94.2292 27.9988 90.6135 28.1893 86.49C28.3796 82.3669 27.9378 74.9782 27.9378 74.9782C27.9378 74.9782 23.1769 75.6987 15.7557 70.4375Z" fill="#4A3241"/>
<path d="M19.0154 72.4824C18.6215 73.5387 18.3502 74.6368 18.1707 75.7445C17.992 76.8529 17.9334 77.9795 18.0176 79.0925C18.1065 80.2091 18.2607 81.3271 18.412 82.442C18.5658 83.5575 18.7314 84.6716 18.9034 85.785C19.2538 88.0107 19.591 90.2386 19.9636 92.4604C20.1449 93.5788 20.3465 94.6658 20.5442 95.7977C20.6994 96.944 20.6655 98.0948 20.5553 99.2293C20.3012 101.498 19.7259 103.704 19.0272 105.856C18.6807 106.935 18.2881 107.995 17.8956 109.052C17.5041 110.11 17.0973 111.162 16.6816 112.211C15.8544 114.309 15.0133 116.401 14.1614 118.489C13.2936 120.57 12.4346 122.655 11.5371 124.724L13.9352 118.399C14.741 116.294 15.5418 114.187 16.3251 112.074C17.0916 109.957 17.9181 107.855 18.5972 105.718C19.2763 103.581 19.8269 101.395 20.0621 99.1775C20.1774 98.0713 20.2162 96.9536 20.0753 95.862C19.8922 94.7725 19.691 93.6412 19.5189 92.5328C19.1682 90.3043 18.8195 88.076 18.5276 85.8389C18.3777 84.7209 18.2343 83.6021 18.1026 82.4812C17.9748 81.3596 17.8392 80.2402 17.7768 79.1075C17.7279 77.9695 17.8257 76.8322 18.0423 75.7216C18.255 74.6111 18.5718 73.5195 19.0154 72.4824Z" fill="#553C4E"/>
<path d="M17.9473 76.8821C18.4351 76.9795 18.9133 76.9773 19.3529 76.8699C19.7915 76.7621 20.1862 76.5448 20.5191 76.2443C20.8703 75.9606 21.1272 75.5674 21.3984 75.1823L21.7599 74.5614C21.8709 74.3462 21.9819 74.1289 22.115 73.9141C22.0872 74.1607 22.0365 74.4047 21.9862 74.651C21.9198 74.8915 21.8295 75.127 21.74 75.364C21.5201 75.8186 21.2521 76.2718 20.8457 76.6169C20.4499 76.9627 19.9425 77.2107 19.4125 77.2507C18.8876 77.2999 18.358 77.1711 17.9473 76.8821Z" fill="#553C4E"/>
<path d="M27.166 99.5195C27.3773 98.076 27.5168 96.6264 27.6524 95.1787C27.7802 93.7295 27.8612 92.2778 27.9247 90.8264C27.9839 89.3744 28.0128 87.9234 27.9968 86.4692C27.9882 85.0143 27.9961 83.554 28.0075 82.0966L28.0082 82.0252L28.0535 81.9642C28.2041 81.7619 28.3519 81.4967 28.4685 81.2391C28.5917 80.9789 28.6923 80.7063 28.7862 80.4308C28.9703 79.878 29.0934 79.3031 29.1848 78.7232C29.2786 78.1433 29.3346 77.5556 29.371 76.9654L29.396 76.0779L29.3896 75.1875L29.4806 76.075L29.5202 76.9675C29.522 77.5631 29.5256 78.1633 29.4492 78.7586C29.3825 79.3542 29.2825 79.949 29.117 80.5314C29.0324 80.8219 28.9396 81.1113 28.8215 81.3936C28.7026 81.6795 28.5806 81.9478 28.3836 82.2269L28.4293 82.0945C28.4568 83.5519 28.4757 85.0064 28.4875 86.466C28.511 87.9262 28.4707 89.3908 28.3822 90.8493C28.298 92.3088 28.1463 93.7637 27.9529 95.2115C27.8605 95.9359 27.7477 96.6578 27.6153 97.3758C27.4836 98.0946 27.3452 98.8118 27.166 99.5195Z" fill="#553C4E"/>
<path d="M34.6216 59.5915C34.6216 59.5915 47.6673 56.1596 48.9883 55.8041C50.3094 55.4484 51.5798 55.2453 53.6635 55.8041C55.7469 56.363 56.6108 56.6681 56.9666 56.9222C57.3224 57.1763 58.0336 58.9548 58.0847 59.2596C58.1353 59.5644 57.8306 60.2759 57.8306 60.2759C57.8306 60.2759 57.9323 61.0889 57.7289 61.2416C57.5255 61.3943 55.7469 60.4793 55.2897 60.3776C54.8326 60.2759 52.0884 60.53 51.4278 58.9548C51.4278 58.9548 40.9087 64.2395 39.2319 64.9511C37.555 65.6627 34.1955 66.3561 32.6992 65.6538L34.6216 59.5915Z" fill="#85533F"/>
<path d="M56.8256 58.1172C57.0026 58.2535 57.135 58.4109 57.2521 58.5754C57.3687 58.7399 57.4701 58.9115 57.5536 59.0918C57.6385 59.2709 57.7045 59.4593 57.7559 59.6542C57.807 59.8494 57.8419 60.0521 57.8319 60.2755C57.6546 60.1391 57.5218 59.9821 57.4051 59.8176C57.2888 59.6531 57.1871 59.4814 57.1043 59.3009C57.0201 59.121 56.9537 58.9333 56.9027 58.7381C56.8517 58.5429 56.8167 58.3406 56.8256 58.1172Z" fill="#422D3F"/>
<path d="M24.7837 24.4709C24.7837 24.4709 29.708 21.0122 28.0664 14.2708C28.0664 14.2708 31.2988 18.0703 35.0173 16.8741C35.0173 16.8741 36.939 15.7949 36.6064 13.5674C36.2738 11.3399 33.577 9.34688 29.0631 10.2262C24.5492 11.1055 24.4322 12.4394 24.4322 12.4394C24.4322 12.4394 22.4976 12.747 20.4461 14.1538C18.3945 15.5608 17.9559 19.1119 19.5525 23.2276C19.5525 23.2276 21.2665 22.0089 23.1425 23.4745L24.0803 27.1091C24.0803 27.1091 23.6699 28.7507 24.6666 29.0437C25.6633 29.3366 25.7219 28.2814 25.5459 27.4021C25.37 26.5224 24.7837 24.4709 24.7837 24.4709Z" fill="#353635"/>
<path d="M35.6453 22.6564C35.5857 22.9291 35.3163 23.1014 35.0437 23.0418C34.771 22.9822 34.5987 22.7128 34.6583 22.4402C34.7179 22.1675 34.9873 21.9952 35.2599 22.0547C35.5326 22.1143 35.7049 22.3838 35.6453 22.6564Z" fill="#353635"/>
<path d="M34.4062 20.7887C34.4062 20.7887 35.0236 20.1289 35.7605 20.4622C35.7605 20.4622 35.6131 19.5986 35.0147 19.5822C34.4166 19.5658 34.4062 20.7887 34.4062 20.7887Z" fill="#353635"/>
<path d="M30.6257 31.1816C30.3755 31.3233 30.0875 31.3704 29.8063 31.3697C29.5241 31.3675 29.2386 31.3204 28.9734 31.2177C28.4456 31.0135 27.9742 30.6431 27.7266 30.1328C27.9938 30.2374 28.2215 30.3601 28.4556 30.4636C28.6844 30.5757 28.9181 30.661 29.1469 30.753C29.6122 30.9297 30.0804 31.0574 30.6257 31.1816Z" fill="#422D3F"/>
<path d="M50.7167 60.2766C50.5322 60.7234 51.5895 60.946 52.1027 60.2766C52.6162 59.6071 53.4887 57.9645 52.8214 57.8103C52.1541 57.6562 51.076 59.4058 50.7167 60.2766Z" fill="#CA8A6A"/>
<path d="M52.5504 60.2763C52.9002 59.7531 53.2006 59.3295 53.6688 58.9655C54.137 58.6012 54.8914 58.4452 55.1516 58.7054C55.4117 58.9655 55.4378 59.25 55.4378 59.25C55.4378 59.25 54.8136 59.6678 54.5792 59.8762C54.3451 60.0843 53.5728 60.7866 53.0615 60.8908C52.5504 60.9943 52.3017 60.6481 52.5504 60.2763Z" fill="#CA8A6A"/>
<path d="M56.8246 59.5377C56.5301 59.3825 56.0102 59.0399 55.4382 59.2498L53.9458 60.4063C53.9458 60.4063 53.7474 61.0319 54.4497 60.9092C55.152 60.7864 55.8803 60.3646 56.3485 60.2764C56.8167 60.1879 57.1507 59.7094 56.8246 59.5377Z" fill="#CA8A6A"/>
<path d="M55.8548 61.9307C55.8548 61.9307 57.8315 61.1213 57.8315 60.6988C57.8315 60.2763 56.783 60.1428 56.3491 60.2763C55.9152 60.4097 54.7104 60.929 54.5802 61.0788C54.4503 61.2284 54.0081 61.9567 55.8548 61.9307Z" fill="#CA8A6A"/>
<path d="M59.7309 55.0631C59.7309 55.0631 58.8723 54.3347 58.3524 53.9186C57.8321 53.5025 57.2226 53.4765 56.1356 54.2048C55.0486 54.9332 52.8843 55.3803 52.3536 55.5338C51.823 55.6876 52.8447 56.7278 53.9206 56.7021C54.9965 56.6761 56.2191 56.0366 56.2191 56.0366C56.2191 56.0366 56.5824 56.6761 57.8314 56.442C59.0808 56.2079 59.7309 55.0631 59.7309 55.0631Z" fill="#CA8A6A"/>
</svg>
