<svg width="66" height="141" viewBox="0 0 66 141" fill="none" xmlns="http://www.w3.org/2000/svg">
<path d="M32.8932 140.79C51.0597 140.79 65.7865 140.287 65.7865 139.666C65.7865 139.045 51.0597 138.541 32.8932 138.541C14.7268 138.541 0 139.045 0 139.666C0 140.287 14.7268 140.79 32.8932 140.79Z" fill="#EBEBEB"/>
<path d="M57.78 31.3955C57.78 31.3955 58.8196 21.3203 59.0936 18.1383C59.3676 14.9562 60.0684 12.8141 59.635 12.631C59.0979 12.4043 58.6454 15.1557 58.2663 15.0699C58.1448 15.0423 59.0474 11.7016 58.3163 11.4812C57.5992 11.265 57.2655 14.7897 57.0059 14.8258C56.7462 14.8619 57.4486 11.1024 56.6283 10.5312C56.1246 10.1804 56.0054 11.8708 55.8017 13.2771C55.61 14.6019 55.5437 15.3835 55.3745 15.385C55.2678 15.3862 55.7272 11.6647 54.9076 11.8129C54.4036 11.9041 54.3388 16.8158 53.3488 19.0541C53.1478 19.5089 51.9142 27.1222 51.0449 30.1145L57.78 31.3955Z" fill="#B78776"/>
<path d="M54.5669 18.2998C54.5669 18.2998 53.4489 14.9016 52.445 14.6268C51.4411 14.3521 53.9041 19.0317 53.2556 20.4962C52.6072 21.9611 54.5669 18.2998 54.5669 18.2998Z" fill="#B78776"/>
<path d="M36.0234 28.1782C36.0234 28.1782 39.3079 29.4584 39.8819 29.8231C40.4554 30.1879 48.8937 36.5738 48.8937 36.5738L51.5077 21.8086C51.5077 21.8086 61.9514 26.9837 62.3383 28.659C62.9088 31.1278 54.7247 53.8229 52.531 55.3712C50.3373 56.92 39.4705 53.9975 39.4705 53.9975L36.0234 28.1782Z" fill="#273238"/>
<path d="M24.2717 126.207L23.8774 137.532C23.8774 137.532 12.5066 139.669 11.3836 139.606C10.2601 139.542 17.7407 136.598 14.8008 138.01C14.5128 138.148 19.336 134.531 19.5223 134.447L18.7438 126.354L24.2717 126.207Z" fill="url(#paint0_linear_10207_10928)"/>
<path d="M18.041 109.209L17.0938 128.97L24.9174 129.509L26.5394 109.209H18.041Z" fill="#467CFB"/>
<path d="M23.9812 134.539C23.9812 134.539 23.2959 135.873 22.1744 135.963C20.4956 136.098 19.5216 134.445 19.5216 134.445C19.5216 134.445 18.6896 135.086 15.4521 137.019C13.946 137.919 13.3197 137.042 11.4729 138.031C10.6483 138.473 9.67428 140.009 10.079 140.099C10.4838 140.189 23.5395 139.11 23.9812 138.84C24.4228 138.571 23.9812 134.539 23.9812 134.539Z" fill="#273238"/>
<path opacity="0.5" d="M18.0422 109.209L17.5703 119.051C19.3379 119.307 22.2433 119.681 25.6826 119.945L26.5402 109.209L18.0422 109.209Z" fill="#155BCC"/>
<path d="M32.3438 126.207L32.738 137.532C32.738 137.532 44.1088 139.669 45.2319 139.606C46.3549 139.542 38.8747 136.598 41.8147 138.01C42.1026 138.148 37.2794 134.531 37.0932 134.447L37.8716 126.354L32.3438 126.207Z" fill="url(#paint1_linear_10207_10928)"/>
<path d="M40.4705 109.209L39.5228 128.97L31.6992 129.509L31.9724 109.209H40.4705Z" fill="#467CFB"/>
<path d="M32.6336 134.539C32.6336 134.539 33.3189 135.873 34.4404 135.963C36.1191 136.098 37.0931 134.445 37.0931 134.445C37.0931 134.445 37.9251 135.086 41.1627 137.019C42.6687 137.919 43.2951 137.042 45.1418 138.031C45.9665 138.473 46.9405 140.009 46.5357 140.099C46.131 140.189 33.0752 139.11 32.6336 138.84C32.1924 138.571 32.6336 134.539 32.6336 134.539Z" fill="#273238"/>
<path opacity="0.5" d="M39.9532 119.959L40.4686 109.209H31.9705L31.8223 120.241C34.5045 120.289 37.2822 120.221 39.9532 119.959Z" fill="#155BCC"/>
<path d="M20.8762 27.9785L17.02 29.823C17.02 29.823 14.0693 45.3673 14.3735 52.5778C14.6032 58.018 18.2614 54.4898 17.8551 59.7759C17.041 70.3706 9.30664 116.117 9.30664 116.117C9.30664 116.117 28.2589 121.885 47.2396 116.627C47.2396 116.627 42.4114 54.2915 42.4339 51.2871C42.4564 48.2832 39.3605 29.5591 39.3605 29.5591L35.0565 27.9785H20.8762Z" fill="#273238"/>
<path d="M32.0136 4.30864C32.0136 4.30864 31.537 3.99237 29.6476 4.76732C28.606 5.19457 27.8839 4.03622 26.7655 3.99315C25.6471 3.95007 25.6471 5.37191 23.8403 5.0052C22.0335 4.63849 22.2667 4.71338 21.9225 6.34788C21.5783 7.98237 21.7378 10.0007 20.9637 10.145C20.1895 10.2894 16.5348 10.0344 16.0974 12.1229C15.7408 13.8257 17.4739 15.3919 16.4416 16.5534C15.4094 17.7148 14.4629 18.3602 15.0652 20.0808C15.6675 21.8015 16.872 20.5539 16.1405 22.4464C15.4094 24.339 16.3555 24.382 16.7428 24.6401C17.13 24.8982 16.2833 25.7084 16.6997 26.0165C17.7284 26.7775 18.4479 25.3025 18.9795 25.7154C19.6408 26.2292 20.1806 28.3328 22.2916 27.0057C23.4259 26.2928 23.5392 25.5 25.2168 26.8338C26.8943 28.1671 26.7022 26.1787 29.1063 27.1648C30.7838 27.8532 31.454 27.436 33.0885 26.963C34.723 26.49 34.8701 27.5284 36.1262 27.0573C37.8624 26.4065 35.9322 23.7274 37.562 23.909C39.8597 24.1647 40.9525 22.1453 40.2644 20.8119C39.5764 19.4786 40.0137 19.0486 39.9707 18.1021C39.9276 17.1556 37.6478 16.3815 37.992 15.4781C38.3362 14.5747 39.6878 13.2557 38.7844 11.7931C37.881 10.3305 35.3986 12.0562 34.6675 10.2925C33.9364 8.52876 33.6551 9.28702 32.6655 9.24394C31.6764 9.20087 33.5185 8.81087 33.3466 7.47751C33.175 6.14376 32.9608 4.38276 32.0136 4.30864Z" fill="#283034"/>
<path d="M19.715 16.4043C19.3983 17.3624 20.1535 19.5254 21.3367 21.3481" stroke="#92B6FF" stroke-miterlimit="10"/>
<path d="M35.2605 15.9512C36.2303 16.3047 35.6191 18.6823 34.375 20.8131" stroke="#92B6FF" stroke-miterlimit="10"/>
<path d="M19.0312 28.86L28.4284 42.2646L37.729 28.86L35.429 27.9783L22.6507 27.7148H21.6697C21.6697 27.7148 20.3448 27.9403 19.0312 28.86Z" fill="#EBEBEB"/>
<path d="M28.3307 37.0723C28.3307 37.0723 34.729 29.133 35.055 27.9801C34.3627 27.7997 29.7642 26.3704 29.7642 26.3704L29.6105 20.0742L25.6931 20.0925L25.7183 25.5136L25.6927 26.3829L20.875 27.9805C21.0791 29.0077 28.3307 37.0723 28.3307 37.0723Z" fill="#B78776"/>
<path opacity="0.5" d="M31.9918 26.9766C31.1474 26.7499 29.7651 26.3685 29.7651 26.3685L29.6115 20.0723L25.694 20.0905L25.7193 25.5117L25.6936 26.3809L23.9668 27.0293C25.6475 28.0061 28.2257 28.7054 31.9918 26.9766Z" fill="#F0C2BF"/>
<path d="M34.4036 15.9178C34.4036 15.9178 36.1526 15.744 36.5399 17.3168C36.9361 18.926 34.3027 19.2958 34.3027 19.2958L34.4036 15.9178Z" fill="url(#paint2_linear_10207_10928)"/>
<g opacity="0.5">
<path opacity="0.3" d="M34.147 16.5269C34.147 16.5269 35.662 16.2847 36.1273 17.7372C36.1273 17.7372 34.8599 16.9665 34.0547 17.6138L34.147 16.5269Z" fill="#DD8373"/>
</g>
<path d="M21.1576 15.9746C21.1576 15.9746 19.2821 16.1031 19.1641 17.7189C19.0435 19.3717 21.7016 19.2948 21.7016 19.2948L21.1576 15.9746Z" fill="url(#paint3_linear_10207_10928)"/>
<path opacity="0.3" d="M21.3896 16.5391C21.3896 16.5391 19.8552 16.5546 19.6406 18.0645C19.6406 18.0645 20.7609 17.0924 21.6632 17.5954L21.3896 16.5391Z" fill="#DD8373"/>
<path d="M33.9284 13.5364C33.4286 12.2379 32.5403 8.42683 27.7641 8.06788C25.7606 7.91731 21.4989 10.0897 21.1877 14.2795C20.6941 20.9242 22.1318 25.0714 27.95 25.0454C34.2179 25.0174 35.8073 18.4189 33.9284 13.5364Z" fill="#B78776"/>
<path d="M28.3731 20.754C28.5186 20.754 28.6808 20.7299 28.7891 20.6434C28.871 20.5778 28.9144 20.4823 28.914 20.3675C28.9137 20.0248 28.6374 19.9142 28.4546 19.8413C28.3785 19.811 28.2924 19.7765 28.2769 19.7423C28.2245 19.6294 28.2202 18.8339 28.2295 18.3589C28.2303 18.3181 28.1977 18.2844 28.157 18.2832C28.1077 18.2824 28.0824 18.315 28.0817 18.3558C28.0774 18.5669 28.0607 19.6278 28.1426 19.8044C28.1829 19.8917 28.2834 19.9317 28.3999 19.9782C28.5795 20.0504 28.7658 20.1245 28.7658 20.3671C28.7658 20.4373 28.7433 20.4897 28.6963 20.5273C28.5481 20.6465 28.1996 20.6022 28.0782 20.5751C28.0378 20.5665 27.9986 20.5914 27.9901 20.6313C27.9812 20.6713 28.0064 20.7109 28.046 20.7198C28.0572 20.7222 28.2035 20.7544 28.3731 20.754Z" fill="#283034"/>
<path d="M32.8425 16.2814C32.9434 16.0494 31.3311 14.6636 30.2422 15.2344C29.2798 15.7389 31.1328 16.1631 32.0695 16.3392C33.0063 16.5158 32.8425 16.2814 32.8425 16.2814Z" fill="#283034"/>
<path d="M22.8161 16.2194C22.6695 16.0133 23.9578 14.3225 25.1418 14.6543C26.1884 14.9477 24.4638 15.7479 23.5841 16.1154C22.7048 16.4828 22.8161 16.2194 22.8161 16.2194Z" fill="#283034"/>
<path d="M29.8412 22.0256L25.6836 22.002C25.6836 22.002 26.197 23.5332 27.9235 23.5592C29.5669 23.5841 29.8412 22.0256 29.8412 22.0256Z" fill="#F6FCF7"/>
<path d="M22.8053 20.4971C22.9268 20.0477 23.3039 19.7155 23.765 19.6503C24.7343 19.5133 26.8465 19.2976 28.3087 19.3892C30.4593 19.5242 31.8684 19.8839 32.1679 20.1237C32.4675 20.3636 32.7954 22.2313 31.9056 23.8708C31.1082 25.3396 28.5633 25.5794 26.5698 25.4029C25.0048 25.2643 23.6097 24.5748 23.0176 23.5596C22.6186 22.8751 22.5624 21.3973 22.8053 20.4971Z" fill="#92B6FF"/>
<path d="M34.3726 20.8125C33.5658 22.194 32.4928 23.4715 31.4121 24.026" stroke="#92B6FF" stroke-miterlimit="10"/>
<path d="M32.0332 20.7545C32.0332 20.7545 33.1504 15.6872 35.0911 15.9115C35.1516 15.9185 35.2079 15.9317 35.2595 15.9503" stroke="#92B6FF" stroke-miterlimit="10"/>
<path d="M21.3359 21.3496C22.0938 22.5169 23.0271 23.5448 23.9662 24.0264" stroke="#92B6FF" stroke-miterlimit="10"/>
<path d="M23.3467 20.7545C23.3467 20.7545 22.2291 15.6872 20.2888 15.9115C19.9939 15.9457 19.808 16.1234 19.7148 16.4051" stroke="#92B6FF" stroke-miterlimit="10"/>
<path d="M23.4972 18.2047C23.4123 17.9133 23.4883 17.597 23.6886 17.335C23.8923 17.0716 24.2524 16.914 24.5803 16.9163C24.8958 16.9097 25.2198 17.0044 25.474 17.221C25.7196 17.4363 25.8655 17.7611 25.7903 18.0599C25.5559 17.8752 25.3498 17.7902 25.1616 17.7448C24.9769 17.701 24.7852 17.6897 24.5947 17.6921C24.415 17.6948 24.2675 17.715 24.0902 17.7918C23.9121 17.8698 23.7208 18.0087 23.4972 18.2047Z" fill="#283034"/>
<path d="M29.841 18.2047C29.756 17.9133 29.8321 17.597 30.0323 17.335C30.236 17.0716 30.5961 16.914 30.9241 16.9163C31.2395 16.9097 31.5636 17.0044 31.8177 17.221C32.0634 17.4363 32.2093 17.7611 32.1336 18.0599C31.8992 17.8752 31.6932 17.7902 31.505 17.7448C31.3203 17.701 31.1286 17.6897 30.938 17.6921C30.7583 17.6948 30.6109 17.715 30.4336 17.7918C30.2558 17.8698 30.0645 18.0087 29.841 18.2047Z" fill="#283034"/>
<path d="M20.4325 13.907C20.4325 13.907 21.6018 14.1006 21.9242 13.5523C22.2467 13.004 22.1854 11.2255 22.6518 11.3082C23.1179 11.3908 23.7954 13.262 25.1183 13.0362C26.4412 12.8103 26.4102 11.2705 26.8281 11.7785C27.246 12.2868 27.2457 12.907 27.8596 12.8103C28.4735 12.7137 28.5705 11.643 29.054 11.9869C29.5375 12.3307 29.9031 13.2096 31.4138 12.6229C32.9245 12.0362 31.5938 11.4133 32.0339 11.3054C32.4739 11.1976 32.0867 12.4234 33.1189 12.7781C34.1511 13.1328 35.7379 12.6194 35.7379 12.6194L34.6688 10.2938L31.796 9.64844H26.3438L19.8594 10.6485L20.4325 13.907Z" fill="#283034"/>
<path d="M42.4443 6.30833L29.0672 9.63204C28.5348 9.8412 27.9128 9.86332 27.3256 9.69335L13.1938 4.35796C12.7417 4.22718 12.6998 3.69205 13.1317 3.57214L27.2534 0.0943789C27.6737 -0.0220381 28.1343 -0.0309641 28.581 0.0687664L42.2984 5.52989C42.7493 5.63039 42.8463 6.15039 42.4443 6.30833Z" fill="#155BCC"/>
<path d="M13.1938 4.35796L13.2326 4.3727L27.2534 0.919775C27.6737 0.803358 28.1343 0.794432 28.581 0.894163L42.2821 6.34869L42.4443 6.30833C42.8463 6.15039 42.7489 5.63039 42.2984 5.52989L28.581 0.0687664C28.1343 -0.0309641 27.6737 -0.0220381 27.2534 0.0943789L13.1317 3.57214C12.6998 3.69166 12.7417 4.22718 13.1938 4.35796Z" fill="#467CFB"/>
<path d="M28.5299 0.0609178C28.0992 -0.0271711 27.658 -0.0170794 27.2536 0.0946809L13.1318 3.57244C12.6995 3.69235 12.7418 4.22749 13.1939 4.35826L13.2327 4.373L27.2536 0.920077C27.658 0.807929 28.0992 0.798228 28.5299 0.886317V0.0609178Z" fill="#467CFB"/>
<path d="M21.1243 4.84104L20.9648 10.1469C20.9648 10.1469 24.1275 11.2475 29.0011 11.2475C33.8747 11.2475 34.6943 10.2909 34.6943 10.2909V6.98311V5.50927C28.3014 1.38268 21.1243 4.84104 21.1243 4.84104Z" fill="#467CFB"/>
<path d="M16.0936 2.84375L15.5996 10.6914" stroke="#E0AC19" stroke-miterlimit="10"/>
<path d="M15.6227 10.2401C15.6227 10.2401 15.3243 10.1664 15.2063 10.3061C15.0883 10.4458 15.1205 10.7314 15.2451 10.7764C15.3697 10.8215 15.814 10.9771 15.9665 10.8525C16.119 10.7279 16.053 10.5064 16.0418 10.4524C16.0119 10.3112 15.6227 10.2401 15.6227 10.2401Z" fill="#E0AC19"/>
<path d="M15.2939 10.5215C15.2939 10.5215 14.5784 14.2367 14.6812 14.3741C14.7844 14.5115 14.7844 14.5115 14.7844 14.5115C14.7844 14.5115 14.6125 15.5965 14.5784 15.8701C14.5438 16.1437 14.7328 16.3326 14.8531 15.5938C14.9734 14.8549 14.5268 17.6078 14.6296 17.6144C14.7324 17.621 14.7914 17.7541 14.9338 17.3955C15.0762 17.037 15.3681 14.4944 15.3681 14.4944C15.3681 14.4944 15.3851 14.8724 15.5054 14.8724C15.6257 14.8724 15.8458 10.5215 15.8458 10.5215H15.2939Z" fill="#E0AC19"/>
<path d="M25.6934 26.3809C25.6934 26.3809 19.7926 26.339 18.7402 31.5218C17.6874 36.7043 12.8301 86.1723 12.8301 86.1723C12.8301 86.1723 15.5325 95.6055 16.0932 95.9862C16.654 96.3669 21.2032 89.3986 21.703 88.4952C22.2024 87.5914 23.4368 27.7177 25.6934 26.3809Z" fill="#467CFB"/>
<path d="M29.7637 26.3691C29.7637 26.3691 34.8414 26.3847 36.8527 29.0033C38.864 31.6219 42.3127 65.6719 44.875 72.87C47.4373 80.068 50.3423 85.5272 50.3423 85.5272C50.3423 85.5272 49.624 93.5282 49.1941 93.657C48.7641 93.7862 40.9991 90.5169 40.7841 90.2157C40.5691 89.9146 37.5496 79.0529 36.5791 73.0528C35.1061 63.9443 33.9586 34.9661 33.4285 32.0018C32.8922 29.006 32.3097 27.0917 29.7637 26.3691Z" fill="#467CFB"/>
<path d="M30.5051 76.2657L13.1415 72.4329C12.6444 72.323 12.33 71.831 12.4398 71.3339L17.6825 47.5848C17.7923 47.0877 18.2844 46.7734 18.7815 46.8832L36.1451 50.716C36.6422 50.8259 36.9565 51.3179 36.8467 51.815L31.604 75.5641C31.4942 76.0612 31.0022 76.3755 30.5051 76.2657Z" fill="#92B6FF"/>
<path d="M24.9225 59.4609C24.9225 59.4609 29.7848 60.2999 30.3331 60.2673C30.8814 60.2351 33.4624 59.6239 33.4946 60.2673C33.5268 60.9107 31.8815 61.5739 31.8815 61.5739C31.8815 61.5739 34.9463 61.9449 35.5269 62.4288C36.1074 62.9127 35.1396 63.5258 35.1074 63.9449C35.0752 64.3644 35.0752 66.2678 34.7527 67.1064C34.4302 67.945 33.3681 68.4084 33.1423 68.602C32.9164 68.7956 21.7031 62.988 21.7031 62.988L24.9225 59.4609Z" fill="#B78776"/>
<path d="M17.0197 29.8242L13.3634 31.8243C11.8034 33.3594 10.3498 36.3036 9.9 38.4453C8.43159 45.4326 4.2658 60.171 4.91114 61.9091C5.23943 62.7931 17.2133 69.4405 23.1494 69.9567L27.5725 56.0375L14.3735 52.5787L17.0197 29.8242Z" fill="#273238"/>
<path opacity="0.3" d="M34.8595 52.275L19.7168 48.9316L18.9656 52.3341L34.1083 55.6775L34.8595 52.275Z" fill="#92B6FF"/>
<path d="M53.1787 99.6173C50.4669 99.3949 48.1995 102.979 50.2748 105.096C50.7312 105.562 51.3839 105.838 52.0374 105.723C52.6637 105.613 53.1957 105.123 53.4247 104.542C53.6544 103.959 53.4957 103.298 53.0083 102.898C52.465 102.451 51.7304 102.378 51.0575 102.486C49.647 102.711 48.4257 103.879 48.1475 105.28C48.0264 105.89 48.9613 106.151 49.0831 105.538C49.2546 104.675 49.8569 103.935 50.6745 103.596C51.0641 103.435 51.5267 103.349 51.9435 103.442C52.2528 103.512 52.6028 103.711 52.5636 104.042C52.5252 104.364 52.2396 104.653 51.9412 104.751C51.5682 104.872 51.1872 104.651 50.9353 104.384C50.3292 103.74 50.3191 102.756 50.723 102.006C51.205 101.111 52.1488 100.504 53.1787 100.589C53.4402 100.61 53.6637 100.35 53.6637 100.104C53.6637 99.8222 53.441 99.639 53.1787 99.6173Z" fill="#467CFB"/>
<path d="M8.19179 71.4559C8.09866 72.0911 8.05636 72.7978 8.45257 73.3484C8.64931 73.6216 8.89961 73.8315 9.22286 73.9383C9.52943 74.0395 9.85772 73.9899 10.1441 73.8544C10.4355 73.7167 10.6909 73.4206 10.7421 73.097C10.7631 72.9638 10.7638 72.8439 10.6932 72.7233C10.6342 72.6228 10.519 72.5265 10.4033 72.5005C10.1709 72.4477 9.84919 72.5711 9.8065 72.8393C9.80146 72.8715 9.79292 72.9018 9.78477 72.9336C9.76498 73.0127 9.84259 72.8319 9.79602 72.9049C9.78438 72.9231 9.76691 72.9452 9.75876 72.965C9.81154 72.899 9.82201 72.8851 9.79019 72.9227C9.77972 72.9348 9.76846 72.946 9.75682 72.9573C9.72034 72.9926 9.67262 72.9941 9.78089 72.9433C9.76032 72.953 9.73937 72.9716 9.71958 72.9833C9.70328 72.993 9.60354 73.0387 9.68969 73.0023C9.77584 72.9662 9.67261 73.0058 9.65476 73.0112C9.63303 73.0174 9.60277 73.0193 9.58259 73.0279C9.67068 73.0174 9.6893 73.0151 9.63808 73.0205C9.62566 73.0217 9.61324 73.0224 9.60121 73.0224C9.57327 73.0232 9.54262 73.017 9.51507 73.0205C9.61363 73.0089 9.61053 73.0372 9.54728 73.0221C9.51585 73.0147 9.48635 73.0038 9.45569 72.9941C9.42076 72.9809 9.43824 72.9887 9.50886 73.017C9.49256 73.0093 9.47627 73.0015 9.46036 72.9926C9.43668 72.9798 9.41339 72.9658 9.3905 72.9507C9.37536 72.9406 9.36062 72.9305 9.34587 72.9196C9.40408 72.9654 9.41922 72.9767 9.39089 72.953C9.34742 72.9115 9.3059 72.8707 9.26555 72.8261C9.20152 72.7555 9.32143 72.9115 9.27408 72.8362C9.25429 72.8047 9.23333 72.7741 9.21471 72.7419C9.20112 72.7178 9.18794 72.693 9.17591 72.6678C9.16776 72.6511 9.16 72.6344 9.15263 72.6173C9.16194 72.6387 9.17125 72.6604 9.18056 72.6817C9.18095 72.6522 9.15379 72.6057 9.14525 72.577C9.13516 72.5432 9.12663 72.5091 9.11925 72.4745C9.11382 72.4497 9.09286 72.3973 9.09984 72.3709C9.10877 72.4419 9.10994 72.4501 9.10373 72.3954C9.1014 72.3721 9.09945 72.3488 9.0979 72.3255C9.09325 72.2553 9.09247 72.1846 9.09364 72.114C9.09558 72.0314 9.10102 71.9487 9.10916 71.8664C9.11266 71.8311 9.11693 71.7958 9.12081 71.7605C9.12779 71.7058 9.12663 71.7135 9.11731 71.7838C9.12042 71.7605 9.12391 71.7372 9.1274 71.7139C9.14719 71.5797 9.14991 71.4621 9.0785 71.3402C9.01952 71.2397 8.90426 71.1435 8.78862 71.1175C8.5585 71.0647 8.23137 71.1873 8.19179 71.4559Z" fill="#273238"/>
<path d="M42.6426 26.4249C42.6426 26.941 42.6426 27.4572 42.6426 27.9733C42.6426 28.2271 42.8657 28.47 43.1276 28.4583C43.3904 28.4467 43.6127 28.2453 43.6127 27.9733C43.6127 27.4572 43.6127 26.941 43.6127 26.4249C43.6127 26.1711 43.3896 25.9282 43.1276 25.9399C42.8649 25.9515 42.6426 26.1529 42.6426 26.4249Z" fill="#273238"/>
<defs>
<linearGradient id="paint0_linear_10207_10928" x1="11.381" y1="132.799" x2="24.1573" y2="133.013" gradientUnits="userSpaceOnUse">
<stop stop-color="#E2948F"/>
<stop offset="1" stop-color="#F0C2BF"/>
</linearGradient>
<linearGradient id="paint1_linear_10207_10928" x1="45.2345" y1="132.799" x2="32.4583" y2="133.013" gradientUnits="userSpaceOnUse">
<stop stop-color="#E2948F"/>
<stop offset="1" stop-color="#F0C2BF"/>
</linearGradient>
<linearGradient id="paint2_linear_10207_10928" x1="37.29" y1="18.0437" x2="33.7843" y2="17.4845" gradientUnits="userSpaceOnUse">
<stop offset="0.5023" stop-color="#B78776"/>
<stop offset="1" stop-color="#8C5D4A"/>
</linearGradient>
<linearGradient id="paint3_linear_10207_10928" x1="18.855" y1="18.6832" x2="22.2532" y2="17.1992" gradientUnits="userSpaceOnUse">
<stop offset="0.5023" stop-color="#B78776"/>
<stop offset="1" stop-color="#8C5D4A"/>
</linearGradient>
</defs>
</svg>
