<svg width="148" height="141" viewBox="0 0 148 141" fill="none" xmlns="http://www.w3.org/2000/svg">
<path opacity="0.3" d="M72.9126 140.789C111.35 140.789 142.509 138.089 142.509 134.757C142.509 131.425 111.35 128.725 72.9126 128.725C34.4757 128.725 3.31641 131.425 3.31641 134.757C3.31641 138.089 34.4757 140.789 72.9126 140.789Z" fill="#95B9C1"/>
<path d="M0 18.9554L11.2252 94.2323L136.199 104.222L147.05 13.1973L0 18.9554Z" fill="#FFFBE6"/>
<path d="M107.714 131.842C105.656 130.85 103.366 129.705 103.137 127.266C102.91 124.52 102.888 122.311 103.137 119.637C103.302 117.863 103.445 116.277 103.576 114.797C103.93 110.791 104.197 107.57 104.587 103.618C104.969 99.6494 105.807 94.4633 105.807 90.4967L100.086 87.9785C99.9337 91.7176 100.62 95.838 100.238 100.489C99.875 104.916 99.4641 106.708 98.8658 111.17C98.7094 112.341 98.5912 113.416 98.5059 114.431C98.0699 119.564 98.446 123.071 98.6376 128.869C98.6376 129.089 98.3831 130.655 98.168 132.016C98.7827 132.249 99.6755 132.473 100.238 132.529C103.259 132.879 107.116 133.661 110.268 132.74C109.389 132.467 108.499 132.207 107.714 131.842Z" fill="#15223F"/>
<path d="M107.146 134.319C109.221 134.436 111.543 134.331 113.618 134.447C113.895 134.448 114.214 134.408 114.537 134.375C114.512 134.814 114.45 135.241 114.386 135.612L98.4512 135.494C98.0879 135.401 97.9697 134.787 97.9551 134.066C101.037 134.154 103.943 134.18 107.146 134.319Z" fill="#8C7272"/>
<path d="M107.38 130.125C107.827 129.757 108.413 129.513 108.991 129.375C109.029 129.382 109.069 129.389 109.107 129.395C110.232 129.577 111.498 129.548 112.409 130.327C113.144 130.928 114.019 131.848 114.366 132.729C114.541 133.242 114.569 133.819 114.537 134.377C114.214 134.41 113.895 134.45 113.619 134.449C111.543 134.332 109.221 134.438 107.146 134.321C106.766 134.304 106.391 134.29 106.018 134.276C106.03 132.761 106.154 131.164 107.38 130.125Z" fill="#AD8C8C"/>
<path d="M102.107 129.287C101.76 128.442 101.8 127.456 101.699 126.577C101.613 125.337 101.717 124.18 101.748 122.961C102.517 122.958 103.191 122.949 103.513 122.928C103.535 125.391 103.101 127.64 104.891 128.353C106.154 128.837 107.649 129.157 108.991 129.374C108.412 129.512 107.827 129.756 107.379 130.124C106.946 130.492 106.652 130.931 106.45 131.411C104.918 131.295 102.623 130.583 102.107 129.287Z" fill="#661B48"/>
<path d="M98.258 129.396C98.2681 129.036 98.2764 128.677 98.2786 128.318C98.2865 126.629 98.3815 125.364 98.2363 122.9C98.7938 122.942 100.413 122.964 101.748 122.961C101.72 124.076 101.637 125.142 101.689 126.264C101.509 126.922 101.227 127.597 100.813 128.085C100.356 128.59 99.1703 129.391 98.258 129.396Z" fill="#6F3061"/>
<path d="M98.2574 129.396C99.1696 129.391 100.355 128.59 100.812 128.085C101.226 127.597 101.508 126.922 101.688 126.264C101.692 126.368 101.692 126.471 101.699 126.577C101.8 127.457 101.76 128.442 102.107 129.287C102.623 130.582 104.917 131.294 106.45 131.411C106.081 132.286 106.024 133.297 106.017 134.276C103.251 134.174 100.67 134.144 97.9547 134.067C97.9356 133.112 98.0972 131.969 98.1189 131.588C98.1945 130.858 98.2349 130.127 98.2574 129.396Z" fill="#8C3975"/>
<path d="M100.524 129.363C100.528 129.364 100.532 129.363 100.535 129.364C101.38 129.368 101.541 130.512 101.522 131.122C101.504 131.636 101.256 132.604 100.689 132.772C99.43 133.145 98.8994 129.355 100.524 129.363Z" fill="#AD8C8C"/>
<path d="M107.346 129.287C106.413 129.282 105.687 129.987 105.286 130.771C105.26 130.821 105.084 130.833 105.105 130.792C105.559 129.906 106.392 129.199 107.424 129.203C107.545 129.203 107.402 129.287 107.346 129.287Z" fill="white"/>
<path d="M105.591 128.772C104.899 129.07 104.336 129.582 104.022 130.27C103.997 130.321 103.822 130.338 103.841 130.295C104.178 129.558 104.787 129.032 105.524 128.714C105.598 128.683 105.707 128.721 105.591 128.772Z" fill="white"/>
<path d="M104.473 128.316C103.651 128.404 103.075 128.974 102.47 129.477C102.432 129.509 102.254 129.496 102.307 129.451C102.969 128.899 103.576 128.337 104.467 128.241C104.579 128.23 104.582 128.305 104.473 128.316Z" fill="white"/>
<path d="M103.765 127.578C103.171 127.558 102.611 127.761 102.096 128.043C102.045 128.07 101.885 128.057 101.99 127.999C102.56 127.687 103.189 127.474 103.844 127.496C103.965 127.5 103.821 127.581 103.765 127.578Z" fill="white"/>
<path d="M103.346 126.624C102.863 126.586 102.382 126.526 101.905 126.645C101.827 126.665 101.722 126.611 101.846 126.58C102.372 126.449 102.898 126.504 103.431 126.547C103.552 126.557 103.402 126.628 103.346 126.624Z" fill="white"/>
<path d="M103.455 125.634C102.956 125.692 102.463 125.637 101.963 125.628C101.835 125.627 101.93 125.553 102.009 125.555C102.474 125.561 102.937 125.619 103.402 125.565C103.48 125.556 103.582 125.619 103.455 125.634Z" fill="white"/>
<path d="M103.526 124.142C103.01 124.139 102.494 124.136 101.979 124.133C101.899 124.133 101.81 124.132 101.937 124.133C102.452 124.136 102.969 124.138 103.485 124.141C103.565 124.142 103.654 124.142 103.526 124.142Z" fill="white"/>
<path d="M101.667 132.991C99.6071 132 97.3183 130.854 97.0889 128.415C96.861 125.668 96.8412 123.462 97.0889 120.785C97.2622 118.937 97.4085 117.291 97.5435 115.755C97.89 111.84 98.1568 108.657 98.5396 104.767C98.9197 100.799 99.759 95.6122 99.759 91.6452L94.0379 89.1289C93.8849 92.8658 94.5722 96.9847 94.1913 101.638C93.828 106.065 93.4145 107.857 92.817 112.319C92.6853 113.305 92.5824 114.225 92.5008 115.096C91.9994 120.497 92.3923 124.04 92.5884 130.017C92.5884 130.237 92.3354 131.804 92.1191 133.163C92.7339 133.4 93.6278 133.621 94.1909 133.678C97.2098 134.026 101.067 134.81 104.218 133.889C103.342 133.615 102.45 133.356 101.667 132.991Z" fill="#1C2D4F"/>
<path d="M100.779 135.333C102.854 135.45 105.176 135.344 107.251 135.461C107.528 135.462 107.847 135.422 108.17 135.388C108.145 135.828 108.083 136.254 108.019 136.625L92.084 136.508C91.7207 136.415 91.6025 135.801 91.5879 135.08C94.6696 135.168 97.5758 135.193 100.779 135.333Z" fill="#D1D1D1"/>
<path d="M101.012 131.137C101.46 130.768 102.045 130.524 102.624 130.387C102.662 130.393 102.702 130.401 102.74 130.407C103.865 130.589 105.131 130.56 106.042 131.339C106.777 131.94 107.652 132.86 107.999 133.741C108.174 134.253 108.202 134.83 108.17 135.388C107.847 135.422 107.528 135.462 107.251 135.461C105.176 135.345 102.854 135.45 100.779 135.333C100.399 135.316 100.023 135.302 99.6504 135.288C99.6627 133.773 99.7866 132.176 101.012 131.137Z" fill="#F2F2F2"/>
<path d="M95.7401 130.299C95.3932 129.454 95.4333 128.468 95.3323 127.589C95.2462 126.349 95.3498 125.192 95.3809 123.972C96.1495 123.97 96.8237 123.961 97.1455 123.939C97.1683 126.402 96.7335 128.651 98.524 129.364C99.7868 129.849 101.282 130.169 102.624 130.386C102.046 130.524 101.46 130.768 101.013 131.136C100.579 131.504 100.285 131.943 100.084 132.423C98.5505 132.306 96.2561 131.594 95.7401 130.299Z" fill="#AB4E85"/>
<path d="M91.8908 130.408C91.9009 130.048 91.9092 129.689 91.9114 129.33C91.9197 127.641 92.0143 126.375 91.8691 123.912C92.4267 123.953 94.0461 123.976 95.3811 123.972C95.3531 125.087 95.27 126.154 95.3216 127.276C95.142 127.934 94.8603 128.609 94.4453 129.097C93.9888 129.601 92.8027 130.403 91.8908 130.408Z" fill="#B471A5"/>
<path d="M91.8902 130.408C92.8024 130.403 93.9882 129.601 94.4443 129.097C94.8589 128.609 95.1406 127.934 95.3206 127.275C95.3251 127.38 95.3244 127.483 95.3315 127.589C95.4325 128.468 95.3925 129.453 95.7393 130.299C96.2553 131.594 98.5497 132.306 100.082 132.423C99.7142 133.297 99.6573 134.308 99.6502 135.288C96.8835 135.186 94.3032 135.156 91.5875 135.079C91.5684 134.124 91.7301 132.981 91.7518 132.6C91.8273 131.869 91.8674 131.138 91.8902 130.408Z" fill="#D17EBA"/>
<path d="M94.1549 130.377C94.1587 130.377 94.1624 130.377 94.1662 130.377C95.0107 130.382 95.1723 131.525 95.1528 132.135C95.1353 132.65 94.8872 133.618 94.3203 133.786C93.0608 134.159 92.5303 130.369 94.1549 130.377Z" fill="#F2F2F2"/>
<path d="M100.979 130.3C100.046 130.296 99.3196 131.001 98.9188 131.785C98.893 131.834 98.7168 131.846 98.7381 131.805C99.192 130.92 100.025 130.212 101.056 130.217C101.177 130.217 101.035 130.301 100.979 130.3Z" fill="white"/>
<path d="M99.223 129.783C98.5316 130.082 97.9688 130.594 97.6541 131.281C97.6302 131.333 97.4547 131.35 97.4742 131.307C97.8109 130.57 98.4201 130.044 99.1568 129.726C99.2313 129.695 99.3402 129.733 99.223 129.783Z" fill="white"/>
<path d="M98.1034 129.33C97.2813 129.418 96.7058 129.988 96.1008 130.491C96.0626 130.523 95.8842 130.51 95.9377 130.464C96.5992 129.913 97.2069 129.35 98.0981 129.255C98.2093 129.244 98.213 129.319 98.1034 129.33Z" fill="white"/>
<path d="M97.3976 128.59C96.8034 128.57 96.2437 128.773 95.7284 129.054C95.6779 129.082 95.5174 129.069 95.6233 129.011C96.1928 128.699 96.8218 128.485 97.4766 128.507C97.5978 128.512 97.4545 128.593 97.3976 128.59Z" fill="white"/>
<path d="M96.9766 127.635C96.4939 127.597 96.0127 127.538 95.536 127.657C95.4578 127.676 95.3531 127.623 95.4773 127.592C96.0026 127.461 96.5287 127.515 97.0619 127.559C97.1824 127.569 97.0331 127.64 96.9766 127.635Z" fill="white"/>
<path d="M97.0875 126.647C96.5891 126.706 96.0956 126.651 95.5961 126.642C95.4681 126.641 95.5624 126.567 95.6414 126.568C96.1068 126.575 96.5701 126.632 97.0344 126.578C97.113 126.57 97.2148 126.633 97.0875 126.647Z" fill="white"/>
<path d="M97.1592 125.153C96.6428 125.15 96.1272 125.148 95.6116 125.145C95.5315 125.145 95.4425 125.144 95.5697 125.145C96.0853 125.148 96.6016 125.15 97.1176 125.153C97.197 125.153 97.286 125.153 97.1592 125.153Z" fill="white"/>
<path d="M96.5083 70.3165C95.0947 70.2618 94.077 70.7748 93.3125 71.5924C91.7732 73.2317 87.2988 90.4833 87.2988 90.4833C88.7862 90.908 91.2493 91.3312 92.6214 91.9673C94.3385 92.7115 95.0248 93.2432 96.9701 93.2432C100.059 93.2432 102.634 94.0926 105.61 93.0303C107.097 92.5005 107.955 93.1362 109.444 92.8185C111.044 92.3938 111.731 91.6496 113.447 91.5444C114.248 91.4382 114.126 91.4311 115.024 90.875C115.416 90.6326 111.401 75.3315 109.735 72.0706C109.203 71.0281 109.034 70.6753 108.859 70.5847C108.563 70.4332 98.1124 70.379 96.5083 70.3165Z" fill="#3E4B75"/>
<path d="M92.4707 89.9234L92.5609 89.2907C92.5874 89.08 92.6338 88.8712 92.6473 88.6598L92.7603 87.3921L92.889 86.1214L93.0799 84.8462L93.0772 84.859C93.28 83.5916 93.5008 82.3247 93.7317 81.0604C94.0082 79.808 94.3023 78.5571 94.5975 77.31C94.9141 76.0678 95.2437 74.8278 95.5872 73.5926C95.7481 72.9748 95.9079 72.3548 96.0845 71.7389C96.2581 71.1223 96.4261 70.5031 96.6143 69.8887C96.5043 70.5203 96.3797 71.1493 96.2581 71.779C96.1428 72.4106 96.0066 73.0381 95.8764 73.6641C95.607 74.9187 95.3271 76.1673 95.0319 77.4144C94.7543 78.6619 94.4774 79.9113 94.1826 81.155C93.9431 82.4111 93.698 83.6635 93.4331 84.9147L93.4297 84.9278L93.1809 86.1633L92.9863 87.4209L92.7682 88.683C92.69 89.101 92.574 89.5103 92.4707 89.9234Z" fill="#2B3A5E"/>
<path d="M96.834 90.4817C96.834 90.4817 96.8403 90.2269 96.849 89.7772C96.8669 89.3311 96.8755 88.6913 96.9204 87.9257C96.9634 87.1594 96.9964 86.2652 97.0821 85.3092C97.155 84.3531 97.2493 83.3361 97.3447 82.318C97.4749 81.3018 97.6029 80.2863 97.7395 79.337C97.8102 78.8618 97.8667 78.4027 97.9576 77.9697C98.0414 77.5379 98.1215 77.1305 98.196 76.7522C98.3397 75.999 98.4893 75.3763 98.5795 74.9363C98.6805 74.5023 98.7374 74.252 98.7374 74.252C98.7374 74.252 98.7123 74.5068 98.6689 74.9532C98.6169 75.3977 98.5604 76.0356 98.4575 76.7937C98.4074 77.1731 98.355 77.5851 98.2974 78.0188C98.2341 78.4521 98.2109 78.9168 98.1529 79.3897C98.056 80.3424 97.9326 81.3534 97.8128 82.3678C97.7081 83.3818 97.6063 84.3973 97.4929 85.3484C97.3799 86.3 97.2748 87.1879 97.1835 87.9482C97.0967 88.707 96.9964 89.3409 96.9406 89.7854C96.8718 90.2284 96.834 90.4817 96.834 90.4817Z" fill="#2B3A5E"/>
<path d="M102.432 72.5742C102.432 72.5742 102.455 72.8676 102.493 73.3772C102.525 73.8879 102.586 74.6176 102.626 75.492C102.648 75.9298 102.671 76.4046 102.696 76.9068C102.715 77.4089 102.768 77.9361 102.793 78.4832C102.863 79.5754 102.918 80.7409 102.974 81.9065C103.011 83.0776 103.048 84.2462 103.066 85.344C103.076 85.8929 103.097 86.4224 103.074 86.9249C103.057 87.4281 103.041 87.9041 103.026 88.3438C103.001 89.2219 102.951 89.9523 102.929 90.4619C102.898 90.9738 102.878 91.2653 102.878 91.2653C102.878 91.2653 102.862 90.9742 102.838 90.4608C102.821 89.9501 102.778 89.2182 102.761 88.3426C102.752 87.9063 102.741 87.4334 102.73 86.932C102.726 86.4302 102.672 85.9012 102.651 85.3552C102.594 84.2619 102.55 83.0949 102.503 81.9289C102.456 80.7596 102.408 79.5907 102.38 78.4933C102.363 77.9455 102.346 77.4153 102.353 76.9128C102.356 76.4106 102.359 75.9369 102.363 75.4965C102.363 74.6213 102.395 73.8894 102.403 73.3772C102.419 72.8676 102.432 72.5742 102.432 72.5742Z" fill="#2B3A5E"/>
<path d="M106.35 71.5664C106.35 71.5664 106.438 71.874 106.591 72.4135C106.664 72.6852 106.753 73.0148 106.854 73.3897C106.906 73.5795 106.959 73.7793 107.018 73.9907C107.068 74.2036 107.1 74.4341 107.144 74.6698C107.23 75.1461 107.322 75.6602 107.42 76.2054C107.529 76.7517 107.574 77.3309 107.645 77.9288C107.709 78.5283 107.794 79.146 107.82 79.7773C107.86 80.4089 107.902 81.0498 107.942 81.6889C107.983 82.9716 108.03 84.2539 108.043 85.455C108.058 86.6538 108.071 87.773 108.084 88.7342C108.092 89.6932 108.12 90.4928 108.13 91.0541C108.137 91.615 108.14 91.9364 108.14 91.9364C108.14 91.9364 108.103 91.6169 108.039 91.0605C107.99 90.5022 107.867 89.7067 107.817 88.7451C107.758 87.7861 107.674 86.665 107.627 85.4662C107.577 84.2688 107.524 82.9895 107.47 81.7099C107.437 81.0726 107.402 80.4347 107.367 79.8083C107.341 79.1786 107.282 78.5664 107.234 77.9685C107.171 77.3751 107.161 76.7925 107.081 76.2511C107.011 75.7085 106.947 75.1951 106.886 74.7207C106.854 74.4842 106.826 74.2563 106.798 74.0393C106.758 73.8245 106.72 73.6199 106.685 73.4279C106.615 73.0436 106.552 72.7084 106.501 72.4337C106.405 71.8822 106.35 71.5664 106.35 71.5664Z" fill="#2B3A5E"/>
<path d="M108.588 73.6934C108.588 73.6934 108.656 73.8887 108.778 74.2333C108.888 74.5779 109.065 75.0688 109.244 75.6656C109.334 75.962 109.434 76.283 109.537 76.6261C109.645 76.9644 109.731 77.3337 109.822 77.7112C110.008 78.4697 110.188 79.282 110.372 80.0951C110.518 80.913 110.666 81.7306 110.788 82.5003C110.923 83.2662 110.996 83.991 111.075 84.6088C111.152 85.2265 111.19 85.7462 111.229 86.1073C111.259 86.4706 111.274 86.6757 111.274 86.6757C111.274 86.6757 111.224 86.4744 111.138 86.1212C111.061 85.7668 110.933 85.262 110.813 84.6525C110.751 84.3476 110.683 84.0176 110.613 83.6681C110.54 83.3201 110.462 82.9534 110.38 82.574C110.219 81.8148 110.065 81.0002 109.911 80.1868C109.738 79.3793 109.566 78.5737 109.419 77.8123C109.338 77.4321 109.289 77.0609 109.206 76.7129C109.129 76.3646 109.056 76.0346 108.988 75.7319C108.851 75.1253 108.763 74.6123 108.69 74.2546C108.624 73.8988 108.588 73.6934 108.588 73.6934Z" fill="#2B3A5E"/>
<path d="M108.564 44.582C110.42 45.3742 110.412 46.4828 111.151 47.6974C112.946 50.4958 114.002 53.5581 116.167 56.04C117.54 57.6238 120.527 60.6442 118.837 62.4391C118.098 63.284 116.559 63.9287 115.556 63.5062C114.288 62.8727 112.805 60.8762 112.382 59.6616C111.96 58.2887 111.045 56.8317 110.359 55.5644C109.672 54.4557 108.986 53.3994 108.405 52.238C107.666 50.8124 107.296 49.7037 107.349 48.1195C107.402 47.1691 107.56 45.321 108.352 44.7403C108.352 44.7403 108.405 44.7403 108.458 44.7403L108.564 44.582Z" fill="#800302"/>
<path d="M108.232 44.1174C107.84 43.6145 107.412 43.6415 106.853 43.0252C106.292 44.0893 104.677 43.8645 103.613 43.698C102.662 43.5861 102.32 43.4731 101.704 42.9137C101.089 42.2989 100.92 42.3558 99.9677 42.4108C98.3446 42.5242 97.5068 42.5242 96.7221 44.0343C96.1063 45.2085 95.6595 46.3277 95.716 47.6152C95.8279 51.6439 94.7783 54.4442 94.3869 58.4726C94.1056 60.8224 94.1471 64.3478 93.7553 66.6973C93.4777 68.2662 93.1413 70.3915 92.3574 71.7355C93.2532 72.6863 95.8077 72.9845 96.9732 73.1342C100.92 73.6374 100.92 73.6374 103.159 73.8623C105.341 74.0284 108.084 73.6936 110.21 73.0795C110.101 70.173 109.763 67.9279 109.875 65.2432C109.929 63.5647 109.986 61.8296 109.929 60.0942C109.875 58.0239 109.818 55.954 109.818 53.8833C109.818 51.4201 109.511 47.7297 109.621 45.2119L108.232 44.1174Z" fill="#A52E2E"/>
<path d="M106.686 41.291C107.189 42.69 106.306 43.4373 104.684 43.3811C104.85 44.1089 105.79 45.4881 106.238 46.0475C107.077 47.0548 107.525 47.0548 108.084 45.8245C108.812 44.2575 108.644 42.2987 106.854 41.346L106.686 41.291Z" fill="white"/>
<path d="M103.104 40.7305C102.321 40.7305 101.202 41.0115 100.586 41.4597C99.1872 42.3555 99.5782 43.5847 100.586 44.5938C101.034 45.1532 102.988 47.0439 103.216 46.6641C103.329 46.4751 105.255 43.014 104.951 43.5076C104.223 43.0578 103.272 43.4732 102.88 42.6354C102.49 41.8511 102.936 41.5162 103.216 40.8435L103.104 40.7305Z" fill="white"/>
<path d="M100.77 59.9247C101.039 59.1154 101.579 58.1698 101.984 57.325C102.255 56.7506 102.861 55.1649 103.535 54.8603C104.481 54.4562 104.076 55.6367 103.909 56.0778C103.334 57.4267 102.726 58.8445 102.085 60.1264L100.77 59.9247Z" fill="#A37467"/>
<path d="M107.734 46.813C110.078 46.1133 111.338 46.0868 113.716 45.5371C113.99 46.498 115.763 46.7797 115.354 47.7952C114.994 48.6929 113.916 49.1176 113.144 49.5756C111.854 50.3385 110.696 51.3308 109.558 52.3022C108.54 53.1699 107.486 54.3489 106.103 54.5872C105.129 54.7552 104.907 53.9526 104.428 53.2417C103.867 52.4054 103.223 51.6215 102.796 50.7022C102.17 49.3578 102.228 48.2985 103.789 47.9356C105.113 47.6272 106.425 47.2044 107.734 46.813Z" fill="#2B3A5E"/>
<path d="M110.76 46.0176C109.746 46.6252 106.911 47.3683 106.471 47.4697C105.729 47.6381 105.019 47.8746 104.278 48.1111C103.874 48.2443 103.063 48.3128 102.724 48.6158C102.116 49.1573 103.028 49.2587 103.467 49.2587C104.413 49.292 105.493 49.1906 106.404 48.9541C107.889 48.5163 109.206 47.9083 110.59 47.2669C110.895 47.1322 111.231 47.0641 111.502 46.8958C111.468 46.7607 112.954 46.2829 112.852 46.2148L110.76 46.0176Z" fill="#FDFBF2"/>
<path d="M102.49 48.8543C102.454 49.5637 102.961 66.7109 103.67 70.6948C104.245 71.2347 105.291 71.1662 105.899 71.0214C106.686 70.8313 107.181 70.5585 107.855 70.12C109.038 69.4125 112.958 67.0009 114.309 66.1212C114.169 63.9084 112.953 46.8906 112.852 46.2148C110.623 47.3636 110.919 47.3587 107.485 48.6163C106.847 48.8498 105.39 49.2243 104.682 49.2591C104.209 49.2591 103.129 49.4275 102.757 49.1577L102.49 48.8543Z" fill="#2B3A5E"/>
<path d="M104.684 49.5273C104.684 49.5273 104.828 50.8096 104.994 52.7366C105.062 53.7027 105.142 54.8301 105.225 56.0357C105.298 57.2432 105.377 58.5322 105.454 59.8197C105.522 61.1069 105.589 62.394 105.653 63.6015C105.68 64.2062 105.707 64.7891 105.732 65.3418C105.772 65.8952 105.811 66.416 105.846 66.8976C105.979 68.8242 106.034 70.1177 106.034 70.1177C106.034 70.1177 105.843 68.8459 105.607 66.92C105.488 65.958 105.349 64.8336 105.284 63.6258C105.202 62.4187 105.115 61.1316 105.029 59.8418C104.97 58.555 104.912 57.2675 104.857 56.06C104.82 54.8515 104.786 53.7218 104.756 52.7557C104.692 50.8212 104.684 49.5273 104.684 49.5273Z" fill="#212F4C"/>
<path d="M105.391 48.7191L115.518 46.0176C115.518 46.0176 118.118 45.8114 118.105 46.2144C118.091 46.6189 117.521 63.5079 117.521 63.5079L109.5 65.83L105.391 66.9357V48.7191Z" fill="#661D5A"/>
<path d="M106.066 48.7188L108.431 48.9769V67.295L106.066 67.0701V48.7188Z" fill="#F7F7F7"/>
<path d="M106.066 48.7176L115.18 46.2129H118.105L108.431 48.9758L106.066 48.7176Z" fill="white"/>
<path d="M108.398 67.2938L117.488 63.5068L118.073 46.2129L108.398 48.9758V67.2938Z" fill="#661D5A"/>
<path d="M117.366 48.5984C117.908 48.4487 118.383 48.2688 118.693 47.7805C119.028 47.254 118.622 46.9659 118.105 47.0609C117.835 47.1111 117.95 47.5208 118.219 47.4725C118.415 47.4355 118.405 47.4224 118.326 47.5657C118.267 47.6708 118.185 47.7588 118.1 47.8437C117.904 48.0368 117.513 48.1154 117.253 48.1868C116.988 48.2602 117.1 48.6718 117.366 48.5984Z" fill="#B6B6B6"/>
<path d="M117.489 50.6734C117.935 50.6472 118.464 50.3386 118.724 49.9756C119.058 49.5064 118.586 49.2714 118.162 49.2579C117.887 49.2493 117.888 49.6759 118.162 49.6841C118.262 49.6879 118.422 49.6542 118.39 49.7129C118.329 49.8196 118.201 49.906 118.104 49.9756C117.931 50.0991 117.705 50.2334 117.488 50.2473C117.215 50.2641 117.214 50.6903 117.489 50.6734Z" fill="#B6B6B6"/>
<path d="M117.591 52.9176C118.095 52.8144 118.623 52.5562 118.941 52.145C119.346 51.6208 118.615 51.3154 118.219 51.2458C117.95 51.1994 117.836 51.6106 118.105 51.6574C118.22 51.6772 118.565 51.7038 118.618 51.84C118.647 51.9134 118.421 52.0787 118.379 52.1102C118.119 52.31 117.797 52.4417 117.478 52.5068C117.209 52.5614 117.323 52.9711 117.591 52.9176Z" fill="#B6B6B6"/>
<path d="M117.31 55.0857C117.843 55.091 118.412 54.7407 118.652 54.2629C118.946 53.6766 118.32 53.442 117.85 53.4453C117.575 53.4468 117.575 53.8734 117.85 53.8719C118.233 53.87 118.418 53.9568 118.122 54.2798C117.919 54.5013 117.613 54.6629 117.31 54.6595C117.034 54.6577 117.035 55.0842 117.31 55.0857Z" fill="#B6B6B6"/>
<path d="M117.366 57.643C117.869 57.5633 118.435 57.2164 118.663 56.7468C118.931 56.1904 118.333 55.9607 117.893 55.9192C117.62 55.8926 117.622 56.3192 117.893 56.3457C117.98 56.3536 118.325 56.3659 118.293 56.5253C118.267 56.6484 118.145 56.7536 118.059 56.8366C117.841 57.045 117.547 57.185 117.253 57.2318C116.981 57.2748 117.097 57.6864 117.366 57.643Z" fill="#B6B6B6"/>
<path d="M117.217 59.9478C117.731 59.9194 118.239 59.5729 118.542 59.1732C118.942 58.6468 118.375 58.2954 117.904 58.2236C117.636 58.1824 117.521 58.5933 117.791 58.6352C117.871 58.6468 118.229 58.6752 118.245 58.795C118.262 58.9214 118.084 59.0614 118.007 59.1347C117.806 59.3195 117.495 59.5059 117.217 59.5209C116.944 59.5362 116.942 59.9628 117.217 59.9478Z" fill="#B6B6B6"/>
<path d="M117.027 62.4147C117.569 62.5213 118.127 62.2748 118.386 61.7782C118.667 61.2409 118.231 60.8376 117.727 60.7425C117.458 60.6924 117.343 61.1036 117.613 61.1537C118.505 61.3206 117.716 62.1165 117.14 62.0031C116.871 61.9503 116.757 62.3616 117.027 62.4147Z" fill="#B6B6B6"/>
<path d="M107.348 51.4531C107.348 51.4531 107.379 51.6582 107.41 51.9661C107.44 52.2741 107.451 52.6857 107.46 53.0972C107.43 53.51 107.395 53.923 107.348 54.2295C107.301 54.5359 107.258 54.7372 107.258 54.7372C107.258 54.7372 107.239 54.5273 107.229 54.2194C107.217 53.9096 107.232 53.5032 107.247 53.0954C107.253 52.6856 107.263 52.2741 107.29 51.9661C107.317 51.6582 107.348 51.4531 107.348 51.4531Z" fill="#B6B6B6"/>
<path d="M107.843 49.7871C107.843 49.7871 107.873 50.055 107.903 50.4546C107.932 50.8561 107.942 51.3908 107.949 51.9255C107.942 52.4602 107.932 52.9945 107.903 53.396C107.874 53.7956 107.843 54.0643 107.843 54.0643C107.843 54.0643 107.812 53.796 107.782 53.396C107.754 52.9945 107.744 52.4602 107.736 51.9255C107.744 51.3908 107.754 50.8561 107.782 50.4546C107.812 50.0554 107.843 49.7871 107.843 49.7871Z" fill="#B6B6B6"/>
<path d="M107.573 66.9344C107.573 66.9344 107.551 66.5924 107.535 66.0816C107.521 65.5709 107.528 64.8888 107.539 64.2081C107.539 63.5283 107.543 62.8492 107.567 62.3392C107.59 61.8295 107.618 61.4883 107.618 61.4883C107.618 61.4883 107.653 61.8299 107.687 62.341C107.722 62.8521 107.739 63.5335 107.753 64.216C107.727 64.8959 107.699 65.5765 107.655 66.0869C107.613 66.5961 107.573 66.9344 107.573 66.9344Z" fill="#B6B6B6"/>
<path d="M119.603 60.6653C119.688 60.3974 119.674 60.0928 119.638 59.7778C119.593 59.3662 119.613 58.94 119.592 58.522C119.547 57.6162 119.428 56.7099 119.172 55.8388C118.726 54.3152 118.255 53.5564 116.711 52.9166C116.391 52.7613 115.643 52.3732 115.563 52.9783C115.47 53.4875 116.427 53.7158 116.774 53.8325C117.222 53.9672 117.587 54.2123 117.841 54.6052C118.1 55.0318 118.151 55.388 117.624 55.1665C117.48 55.0868 115.728 53.6829 115.746 54.5075C115.749 54.7706 116.642 55.2387 116.831 55.41C117.205 55.7199 117.58 56.0315 117.741 56.4708C117.19 56.3174 116.669 55.8961 116.012 55.9227C115.984 56.4222 116.737 56.6123 117.098 56.827C117.495 57.0669 117.768 57.358 118.109 57.673C117.537 57.5896 116.963 57.2749 116.394 57.2237C116.217 57.8429 117.258 57.9597 117.586 58.1774C118.099 58.534 117.928 58.9553 117.973 59.5099C118.01 60.0011 117.945 60.7042 118.262 61.0885C118.474 61.3437 118.798 61.4151 119.091 61.2587C119.377 61.1065 119.528 60.9003 119.603 60.6653Z" fill="#A37467"/>
<path d="M110.42 56.9209C110.408 56.0667 107.011 57.056 106.369 56.8528C106.606 55.7385 109.239 56.1453 110.015 55.7385C110.724 55.4007 110.218 55.3341 109.71 55.2656C109.239 55.1986 108.766 55.1653 108.26 55.1986C107.247 55.2323 106.369 55.3337 105.459 55.8066C103.63 56.7043 102.138 58.2751 100.835 59.8204C99.6066 60.055 98.3741 60.3031 97.1217 60.3296C94.9598 60.3629 92.6983 59.6217 90.5382 60.2612L89.4568 60.5994C89.3221 61.0387 89.2207 61.4769 89.2207 61.9502C89.2551 63.3668 90.3675 63.5371 91.5507 63.5023C93.3396 63.4353 95.1959 63.0974 96.9182 62.7606C98.1904 62.4879 99.4861 62.2462 100.765 62.028C101.496 62.318 102.449 62.3094 103.162 62.1182C103.939 61.9146 105.491 61.072 105.627 60.1613C106.606 60.1613 107.883 60.4209 108.83 60.0494C109.639 59.7777 109.002 59.5865 108.429 59.4851C107.787 59.4182 107.145 59.3849 106.538 59.3168C106.842 59.3168 110.455 58.9104 110.219 58.406C110.117 58.134 108.563 58.2709 108.327 58.2709C107.687 58.3042 106.708 58.4722 106.48 58.0996C106.503 57.7984 110.428 57.4537 110.42 56.9209Z" fill="#A37467"/>
<path d="M99.102 49.3974C99.102 49.3974 98.4947 51.0321 98.2144 51.5927C97.841 52.4802 97.4672 53.4145 96.9535 54.3017C96.4397 55.1424 96.2994 56.2167 95.6457 56.9643C95.459 57.151 95.1788 57.2445 95.0852 57.478C94.9917 57.7115 95.1788 57.8518 95.132 58.0849C94.9917 58.599 94.7114 58.739 94.2444 58.9725C94.9449 59.1124 94.8517 59.533 94.3848 59.86C94.8985 59.9068 95.4122 59.8132 95.926 59.9068C96.5797 60.0467 96.6732 59.9068 97.2805 59.86C97.7942 59.8132 98.2612 60.2338 98.7285 60.0935C99.3355 59.9068 99.2887 59.3463 100.083 59.4394C100.129 60.7476 100.129 62.1021 100.129 63.4098C99.5689 63.5497 99.1487 63.3166 98.5882 63.3166C97.8878 63.2699 97.6539 63.6901 97.0002 63.8771C96.4397 64.0639 96.0195 63.7368 95.5054 63.6433C94.8985 63.5501 94.4312 63.8304 93.9174 63.9703C92.3762 64.3905 89.2934 64.8578 88.7329 62.8493C88.4526 61.775 88.92 60.5605 89.2002 59.533C89.6204 58.0849 90.1809 56.6837 90.835 55.3292C91.8625 53.0871 92.3751 52.1543 93.2158 49.8655C93.6828 48.5577 94.3836 47.2032 94.6639 45.8955C94.6639 45.8955 95.1267 42.6035 98.3271 42.6035" fill="#A52E2E"/>
<path d="M99.1013 49.3967C98.9445 49.8289 98.7866 50.261 98.619 50.6891C98.4626 51.1231 98.2583 51.5359 98.0948 51.965C97.9208 52.3905 97.7502 52.8185 97.5567 53.2368C97.4594 53.446 97.3696 53.6585 97.2581 53.861C97.1496 54.0645 97.0479 54.2741 96.9341 54.4727C96.7231 54.8697 96.5794 55.3068 96.4166 55.7382C96.2557 56.1696 96.0664 56.6081 95.7607 56.9786C95.6009 57.1791 95.3514 57.2757 95.2395 57.4227C95.1815 57.4987 95.1508 57.5765 95.1691 57.6588C95.1818 57.7453 95.2481 57.8616 95.2473 58.0132C95.2455 58.0543 95.247 58.0772 95.2305 58.1322L95.2039 58.2141C95.1893 58.2672 95.1665 58.3241 95.1347 58.3847C95.0805 58.506 94.9992 58.6059 94.908 58.6957C94.7197 58.8734 94.4994 58.9707 94.2973 59.0773L94.2674 58.8543C94.3841 58.8801 94.5016 58.9097 94.618 58.9718C94.6756 59.0055 94.7332 59.0455 94.7822 59.1043C94.8305 59.1634 94.8679 59.2412 94.8735 59.3231C94.8847 59.4893 94.8047 59.6154 94.7283 59.7142C94.6479 59.8137 94.5547 59.8926 94.4574 59.963L94.3957 59.7302C94.869 59.7707 95.3701 59.6816 95.8939 59.7606C96.0185 59.7748 96.148 59.8107 96.2561 59.8141C96.3672 59.8283 96.4814 59.8215 96.5936 59.8096C96.8241 59.774 97.0823 59.7183 97.3442 59.7067C97.6432 59.7026 97.8894 59.8077 98.1195 59.8799C98.234 59.917 98.3447 59.948 98.4484 59.9581C98.5558 59.9671 98.6403 59.96 98.7421 59.9177C98.8439 59.8777 98.9206 59.8279 99.0078 59.7523C99.0923 59.6797 99.1732 59.5866 99.2805 59.4945C99.3857 59.4021 99.5294 59.3213 99.6772 59.291C99.8242 59.2595 99.9653 59.2648 100.102 59.2771L100.241 59.2895L100.245 59.4324L100.29 61.4215L100.301 63.4084L100.301 63.5408L100.171 63.5745C99.8242 63.6643 99.4639 63.6119 99.1567 63.5547C99.0022 63.5281 98.8521 63.5015 98.7069 63.4956L98.4753 63.4873C98.405 63.4884 98.3451 63.4944 98.2751 63.5057C98.0076 63.5498 97.7655 63.7287 97.4628 63.8828C97.315 63.9588 97.1455 64.022 96.9887 64.0647C96.8151 64.1148 96.616 64.1242 96.4428 64.095C96.087 64.0396 95.8004 63.8858 95.5205 63.8316C95.5107 63.8293 95.4685 63.8215 95.4849 63.8237L95.4258 63.8188L95.3076 63.8095C95.2286 63.8031 95.1729 63.8162 95.104 63.8162C94.9641 63.8342 94.8211 63.8652 94.6771 63.9116C94.3953 64.0026 94.0754 64.1309 93.7641 64.202C93.4505 64.2817 93.1362 64.3457 92.8182 64.3973C92.1829 64.4987 91.5333 64.5526 90.8796 64.4931C90.2364 64.4314 89.5412 64.2518 89.0424 63.7448C88.8022 63.4892 88.6301 63.179 88.5511 62.8344C88.4767 62.5205 88.4602 62.162 88.486 61.841C88.5365 61.1817 88.7274 60.5617 88.904 59.9551L89.0353 59.5016L89.1812 59.0429C89.2804 58.7417 89.365 58.4386 89.4828 58.1393C89.5951 57.8403 89.7006 57.5376 89.8188 57.2416L90.187 56.3604C90.7202 55.2013 91.2684 54.0683 91.8068 52.9207C92.0788 52.3489 92.3265 51.7697 92.5754 51.189L93.2687 49.4236C93.7297 48.2375 94.3074 47.1053 94.5993 45.8802L94.5985 45.8847C94.6831 45.4316 94.8376 45.0035 95.0434 44.5983C95.2514 44.1957 95.5171 43.8193 95.849 43.5098C96.1786 43.1982 96.5734 42.9587 96.9988 42.8079C97.4258 42.6601 97.8778 42.598 98.3264 42.6017C97.8778 42.6088 97.4291 42.6822 97.0101 42.8386C96.5925 42.9983 96.2101 43.2438 95.8943 43.557C95.5762 43.8687 95.3248 44.2432 95.1313 44.6417C94.9394 45.041 94.7976 45.4709 94.7283 45.9027L94.728 45.9057L94.7276 45.9072C94.4634 47.1625 93.9085 48.321 93.4651 49.4962L92.7946 51.2773C92.5533 51.864 92.3112 52.4533 92.047 53.0292L90.4777 56.4862L90.1174 57.3595C90.0018 57.6517 89.9004 57.9481 89.7911 58.2422C89.6778 58.5333 89.5932 58.8412 89.4959 59.1417L89.356 59.5888L89.2254 60.0483C89.0503 60.6552 88.8714 61.258 88.8284 61.8657C88.8082 62.1755 88.8194 62.4568 88.8909 62.7599C88.9541 63.0327 89.1004 63.2954 89.295 63.4989C89.6983 63.9098 90.3105 64.08 90.9122 64.1328C91.5209 64.1859 92.1447 64.1324 92.758 64.0314C93.064 63.9805 93.3708 63.915 93.6706 63.8394C93.9778 63.7698 94.2472 63.6598 94.5678 63.5577C94.7257 63.5075 94.8926 63.4705 95.067 63.4499C95.1564 63.4469 95.2589 63.4364 95.3379 63.4435L95.4561 63.4536L95.5152 63.4589C95.5706 63.4667 95.5676 63.4686 95.5964 63.4739C95.9377 63.5476 96.2232 63.6987 96.4967 63.738C96.6355 63.7601 96.7601 63.7549 96.8914 63.7193C97.0404 63.6789 97.1687 63.6314 97.3034 63.5637C97.5642 63.4376 97.846 63.2228 98.2123 63.1588C98.298 63.1442 98.3967 63.1356 98.4847 63.136L98.7275 63.1461C98.8985 63.1547 99.0613 63.1846 99.2181 63.2123C99.5294 63.2718 99.8137 63.31 100.087 63.2415L99.9574 63.4076L99.9563 61.4238L99.9204 59.4433L100.063 59.5982C99.9526 59.5881 99.8429 59.5843 99.7464 59.6053C99.6495 59.6259 99.5687 59.6693 99.4867 59.7389C99.4044 59.8077 99.3209 59.902 99.2169 59.9918C99.1181 60.0805 98.9823 60.1662 98.8517 60.2144C98.7241 60.2687 98.5543 60.2889 98.4151 60.2702C98.2718 60.2537 98.1427 60.2137 98.0218 60.1729C97.7831 60.0902 97.5575 60.0026 97.355 60.0045C97.1197 60.012 96.8896 60.058 96.6292 60.0951C96.4952 60.1078 96.359 60.1134 96.2239 60.0947C96.0829 60.085 95.9717 60.0494 95.8497 60.0341C95.3873 59.9544 94.8896 60.0337 94.3721 59.9854L94.0253 59.9529L94.3104 59.7523C94.3938 59.6936 94.472 59.6277 94.5323 59.5555C94.5918 59.484 94.6329 59.4017 94.6266 59.3426C94.6251 59.3127 94.6127 59.2869 94.5922 59.2588C94.5701 59.2315 94.5368 59.2064 94.499 59.1828C94.4189 59.1383 94.3198 59.1102 94.2202 59.0867L93.8977 59.0107L94.1907 58.8637C94.395 58.7611 94.603 58.6672 94.7519 58.5277C94.8241 58.4584 94.8922 58.3772 94.9323 58.2882C94.9558 58.2481 94.9775 58.1991 94.9948 58.1411L95.0228 58.0596C95.0239 58.0603 95.0292 58.0248 95.0292 58.0087C95.0352 57.9264 94.985 57.8317 94.9585 57.6925C94.9465 57.6244 94.9506 57.541 94.9746 57.471C94.9974 57.4078 95.0326 57.3389 95.0775 57.2899C95.2612 57.0792 95.4789 57.0145 95.6073 56.8499C95.8947 56.512 96.0832 56.0959 96.2546 55.6735C96.4271 55.2499 96.5816 54.8121 96.8132 54.4016C96.933 54.2045 97.0374 54.0024 97.1496 53.8026C97.2652 53.605 97.3603 53.3959 97.4617 53.1904C97.6649 52.7796 97.8456 52.3572 98.0304 51.9358C98.2052 51.5097 98.4199 51.1014 98.5864 50.6738C98.7653 50.2528 98.9341 49.8251 99.1013 49.3967Z" fill="#800302"/>
<path d="M93.5804 59.7823C92.9724 60.25 91.7096 61.0451 90.8677 60.8112C89.2307 60.3903 92.8321 59.5016 93.2063 59.221C92.4111 58.8001 91.5225 58.613 90.6338 58.4727" fill="#A52E2E"/>
<path d="M93.5793 59.7823C93.3776 59.9731 93.1572 60.1448 92.929 60.3057C92.7015 60.4681 92.4594 60.6133 92.2027 60.7345C91.9464 60.8569 91.6725 60.9534 91.3762 60.9946C91.2276 61.011 91.0731 61.0193 90.9171 60.9875C90.8351 60.9751 90.7633 60.9546 90.7 60.937C90.629 60.9138 90.5455 60.8864 90.4677 60.8397C90.4295 60.8217 90.3831 60.7802 90.3438 60.7398C90.3229 60.7113 90.3034 60.6803 90.2877 60.6489C90.2754 60.6111 90.2679 60.5673 90.2656 60.5265C90.2821 60.3559 90.3685 60.2938 90.428 60.2283C90.5571 60.1145 90.6854 60.0449 90.8142 59.9757C91.072 59.844 91.3316 59.7366 91.5943 59.6412L92.3797 59.3654L92.7692 59.2341C92.8912 59.1914 93.0375 59.1368 93.1101 59.0934L93.1311 59.3609L92.5443 59.071L91.9247 58.8386C91.7114 58.7791 91.4993 58.7084 91.2849 58.644C91.0679 58.5905 90.8505 58.5348 90.6334 58.4727C90.8583 58.488 91.0825 58.5101 91.307 58.534C91.5296 58.5703 91.7545 58.601 91.9778 58.6425L92.6398 58.8199L93.2803 59.0803L93.5438 59.1873L93.3017 59.3478C93.1412 59.4541 93.0237 59.4908 92.889 59.5492L92.4994 59.7003L91.7257 59.9873C91.4716 60.0876 91.2179 60.1856 90.9814 60.302C90.8658 60.3604 90.7506 60.4262 90.6712 60.4947C90.6349 60.5246 90.6151 60.5684 90.6211 60.5407C90.6102 60.4977 90.6099 60.5213 90.6514 60.5467C90.6911 60.5733 90.7386 60.5927 90.7973 60.6152C90.8666 60.638 90.9272 60.6575 90.9818 60.6672C91.0959 60.6967 91.2216 60.696 91.3477 60.6934C91.6022 60.6803 91.8604 60.6043 92.114 60.5175C92.6195 60.3334 93.1082 60.0741 93.5793 59.7823Z" fill="#800302"/>
<path d="M91.0078 57.7243C91.8965 57.6775 93.019 58.0984 93.7673 58.5194L91.0078 57.7243Z" fill="#A52E2E"/>
<path d="M91.0078 57.7234C91.0078 57.7234 91.0531 57.708 91.1328 57.6874C91.214 57.671 91.3229 57.6328 91.4669 57.6328C91.6106 57.6227 91.7816 57.6238 91.9537 57.6508C92.1314 57.665 92.3099 57.7211 92.4918 57.7657C92.6665 57.8315 92.845 57.888 92.9988 57.9722C93.1563 58.047 93.2959 58.1327 93.41 58.2143C93.6409 58.3729 93.7677 58.5181 93.7677 58.5181C93.7677 58.5181 93.7198 58.5106 93.6397 58.4927C93.5593 58.4755 93.4497 58.4429 93.3176 58.4085C93.1863 58.3722 93.0366 58.3262 92.8764 58.2783C92.7182 58.2285 92.5494 58.1757 92.3807 58.1226C92.2123 58.074 92.0454 58.0148 91.8867 57.9726C91.8078 57.9482 91.7315 57.925 91.6592 57.9026C91.5878 57.8861 91.5197 57.8656 91.4557 57.8465C91.33 57.8031 91.2106 57.7866 91.1332 57.7615C91.0531 57.7395 91.0078 57.7234 91.0078 57.7234Z" fill="#800302"/>
<path d="M100.296 11.9017C101.119 10.8978 101.738 7.72145 98.2402 8.21199C99.2692 6.30221 97.4186 4.7913 95.3497 5.51233C95.8485 3.8394 94.8435 3.40125 93.4849 3.09293C92.6662 3.02595 92.0877 3.60442 91.5216 3.47571C91.5216 3.47571 90.5439 1.7938 89.864 1.63964C88.9581 1.43422 88.1428 1.249 87.2369 2.15301C87.0042 2.38537 86.5058 3.41434 86.5058 3.41434C86.5058 3.41434 85.072 3.23399 84.6806 3.38291C83.2299 4.00629 82.394 4.74341 82.7753 6.73438C80.6455 7.20322 79.1638 9.01085 80.6152 11.0067C77.6772 11.6024 77.5021 14.2302 79.108 15.5469C77.5544 16.623 77.1387 19.5049 79.0743 20.4201C76.9752 22.3251 79.019 24.3366 81.108 24.5727C80.522 26.1064 82.8438 27.9429 84.1451 26.9289C83.4817 28.8024 87.4195 29.8153 88.2835 28.106C88.5929 29.367 91.0838 29.932 91.4696 28.2336C92.7721 29.8388 94.6658 28.8398 95.5043 27.2443C96.2032 25.736 95.6828 23.8319 94.9464 22.3554L100.296 11.9017Z" fill="black"/>
<path d="M93.1584 20.8673C91.194 20.1189 90.0715 17.7803 90.7263 15.7224C91.4747 12.9161 95.6841 12.8226 96.3389 15.6288L93.1584 20.8673Z" fill="#FFD200"/>
<path d="M105.61 10.4725C105.831 10.4725 105.979 10.5462 106.2 10.6203L107.898 10.9156C109.89 11.4323 112.326 12.4658 113.286 14.4582C114.688 17.1889 114.541 20.2149 114.614 23.1671C114.688 26.2671 116.238 29.2194 115.5 32.3194C114.688 35.788 110.407 37.7071 107.16 38.1501C106.95 38.1759 106.741 38.1935 106.534 38.2055L106.766 43.3175C106.766 43.3175 103.956 44.4692 102.021 42.7644L103.636 37.9529C101.412 37.4295 99.4031 36.1749 97.7855 34.4597C95.5719 32.0979 95.1285 28.7763 95.1285 25.6767C95.0555 19.5511 97.5651 9.29202 105.61 10.4725Z" fill="#A37467"/>
<path d="M95.3896 28.5693C96.4982 26.9061 97.1448 24.8733 96.1286 22.9328C97.5145 21.1772 99.1781 16.6497 98.2539 14.432C102.134 14.2471 108.337 14.4458 112.033 12.8746C112.033 12.8746 109.988 10.9207 108.048 10.4586C106.385 9.9965 104.168 9.62719 102.412 9.71924C97.7921 9.90408 94.2809 13.0456 93.1722 17.3887C92.1556 21.1768 93.4495 25.1501 95.1123 28.4765C95.1123 28.569 95.2047 28.569 95.2047 28.569H95.3896V28.5693Z" fill="#302C2C"/>
<path d="M96.4041 27.7377C95.2954 25.8896 92.2463 26.5362 91.8766 28.6615C91.4145 32.45 97.5127 34.1132 97.3279 30.4171L96.4041 27.7377Z" fill="#A37467"/>
<path d="M95.1188 32.1009C95.4174 32.1009 95.6595 31.8588 95.6595 31.5602C95.6595 31.2616 95.4174 31.0195 95.1188 31.0195C94.8202 31.0195 94.5781 31.2616 94.5781 31.5602C94.5781 31.8588 94.8202 32.1009 95.1188 32.1009Z" fill="#661D5A"/>
<mask id="mask0_10207_10683" style="mask-type:luminance" maskUnits="userSpaceOnUse" x="95" y="10" width="21" height="34">
<path d="M105.608 10.4725C105.829 10.4725 105.977 10.5462 106.198 10.6203L107.896 10.9156C109.888 11.4323 112.324 12.4658 113.284 14.4582C114.686 17.1889 114.539 20.2149 114.612 23.1671C114.686 26.2671 116.236 29.2194 115.498 32.3194C114.686 35.788 110.406 37.7071 107.158 38.1501C106.948 38.1759 106.739 38.1935 106.532 38.2055L106.764 43.3175C106.764 43.3175 103.954 44.4692 102.019 42.7644L103.634 37.9529C101.41 37.4295 99.4011 36.1749 97.7835 34.4597C95.5699 32.0979 95.1265 28.7763 95.1265 25.6767C95.0536 19.5511 97.5632 9.29202 105.608 10.4725Z" fill="white"/>
</mask>
<g mask="url(#mask0_10207_10683)">
<g opacity="0.3">
<path d="M112.389 29.9309C112.389 30.5636 113.295 31.0762 114.414 31.0762C115.532 31.0762 116.439 30.5632 116.439 29.9309C116.439 29.2981 115.532 28.7852 114.414 28.7852C113.295 28.7852 112.389 29.2981 112.389 29.9309Z" fill="#EBB7C4"/>
<path d="M97.334 30.3723C97.334 31.005 98.2402 31.5176 99.3594 31.5176C100.477 31.5176 101.384 31.005 101.384 30.3723C101.384 29.7396 100.477 29.2266 99.3594 29.2266C98.2399 29.2266 97.334 29.7392 97.334 30.3723Z" fill="#EBB7C4"/>
</g>
</g>
<path d="M112.418 21.9496C112.418 21.9496 112.386 21.9025 112.342 21.8198C112.321 21.7786 112.293 21.7281 112.27 21.6705C112.242 21.6159 112.224 21.5403 112.188 21.4834C112.153 21.4235 112.116 21.3629 112.086 21.3004C112.062 21.2361 112.018 21.1766 111.977 21.1163C111.934 21.0587 111.914 20.9846 111.859 20.9394C111.809 20.8915 111.779 20.8275 111.728 20.7818C111.674 20.7377 111.623 20.6931 111.577 20.6393C111.518 20.5992 111.456 20.5603 111.399 20.5143C111.345 20.4634 111.275 20.4324 111.211 20.3953C111.147 20.359 111.086 20.3167 111.027 20.2759C110.78 20.1573 110.592 20.0122 110.592 20.0122C110.592 20.0122 110.64 19.9856 110.728 19.9519C110.817 19.9201 110.947 19.8756 111.107 19.8539C111.267 19.8535 111.464 19.8352 111.669 19.9081C111.77 19.9448 111.879 19.9807 111.981 20.0361C112.079 20.1042 112.174 20.1831 112.267 20.2625C112.352 20.3493 112.414 20.4589 112.477 20.5596C112.549 20.6584 112.564 20.7743 112.596 20.8791C112.625 20.9843 112.645 21.0864 112.636 21.1874C112.636 21.287 112.626 21.379 112.616 21.4606C112.612 21.5444 112.575 21.6024 112.555 21.6638C112.535 21.7225 112.509 21.7738 112.49 21.8164C112.448 21.901 112.418 21.9496 112.418 21.9496Z" fill="black"/>
<path d="M110.211 31.9004C109.652 34.5533 104.905 35.0416 103.719 32.5286L110.211 31.9004Z" fill="white"/>
<path d="M111.708 25.2149C111.708 24.5979 111.209 24.0977 110.592 24.0977C109.975 24.0977 109.475 24.5979 109.475 25.2149C109.475 25.8323 109.975 26.3326 110.592 26.3326C111.209 26.3326 111.708 25.8323 111.708 25.2149Z" fill="black"/>
<path d="M103.017 25.6583C103.017 25.0413 102.517 24.541 101.9 24.541C101.283 24.541 100.783 25.0413 100.783 25.6583C100.783 26.2753 101.283 26.7756 101.9 26.7756C102.517 26.7756 103.017 26.2753 103.017 25.6583Z" fill="black"/>
<path d="M99.3543 21.3962C99.3543 21.3962 99.3203 21.3498 99.2731 21.2671C99.2267 21.1926 99.1736 21.0456 99.1553 20.8824C99.1418 20.7986 99.1366 20.7073 99.1441 20.61C99.1459 20.512 99.1706 20.4121 99.1949 20.3069C99.2541 20.1008 99.3641 19.8909 99.5156 19.7105C99.5972 19.6256 99.6784 19.5399 99.776 19.4744C99.8658 19.4007 99.9743 19.3536 100.073 19.3072C100.178 19.2694 100.279 19.2353 100.379 19.2245C100.478 19.2058 100.573 19.2099 100.658 19.2166C100.743 19.2155 100.82 19.2417 100.885 19.2589C100.951 19.2724 101.006 19.3008 101.05 19.3236C101.137 19.3696 101.181 19.4026 101.181 19.4026C101.181 19.4026 101.129 19.4325 101.047 19.4725C101.006 19.4905 100.958 19.5156 100.906 19.5444C100.854 19.5747 100.798 19.6005 100.741 19.6383C100.627 19.7083 100.511 19.7951 100.399 19.8856C100.289 19.9829 100.181 20.0847 100.081 20.1999C99.8823 20.4293 99.7109 20.7006 99.5788 20.9442C99.5156 21.0673 99.4584 21.1645 99.4217 21.2585C99.3828 21.346 99.3543 21.3962 99.3543 21.3962Z" fill="black"/>
<path d="M106.162 28.5999C106.162 28.5999 106.207 28.5535 106.289 28.4771C106.368 28.3986 106.495 28.3002 106.659 28.1898C106.745 28.1423 106.835 28.0843 106.939 28.0382C107.046 27.9956 107.156 27.9421 107.284 27.9193C107.408 27.8863 107.548 27.8702 107.69 27.8796C107.834 27.8893 107.984 27.9275 108.12 27.9978C108.255 28.0719 108.367 28.1782 108.455 28.293C108.545 28.4087 108.597 28.5366 108.643 28.6586C108.723 28.9048 108.744 29.1379 108.741 29.3333C108.739 29.5289 108.718 29.6887 108.693 29.7995C108.672 29.9102 108.657 29.9723 108.657 29.9723C108.657 29.9723 108.643 29.9099 108.619 29.7998C108.601 29.6902 108.568 29.5368 108.527 29.3572C108.511 29.2663 108.473 29.1746 108.45 29.0747C108.42 28.977 108.377 28.8798 108.337 28.7817C108.312 28.7357 108.287 28.6889 108.262 28.6418C108.233 28.598 108.199 28.5602 108.171 28.5164C108.106 28.4379 108.029 28.3724 107.942 28.3282C107.857 28.2803 107.761 28.2508 107.658 28.2399C107.556 28.2328 107.448 28.2238 107.343 28.2433C107.13 28.2639 106.928 28.3323 106.752 28.3832C106.582 28.4465 106.432 28.4959 106.328 28.5404C106.223 28.58 106.162 28.5999 106.162 28.5999Z" fill="#77483C"/>
<path d="M46.7976 7.2398C50.6868 6.74327 55.2386 5.41907 58.7143 3.51565C58.8647 3.45541 59.002 3.38058 59.1341 3.29826C57.4252 1.29905 54.7761 0.493456 52.2085 0.124147C47.0962 -0.611478 40.6058 1.92766 39.7422 7.59265C41.9928 7.99413 45.5333 7.42053 46.7976 7.2398Z" fill="black"/>
<path d="M60.8311 20.2592C60.9995 19.5689 61.1334 18.8662 61.2427 18.1571C60.7248 18.1784 60.2013 18.1305 59.7071 18.0808C59.1278 14.6051 58.714 10.7986 58.714 7.23985C56.7215 7.48157 56.0529 6.35568 55.7711 4.89453C52.8829 6.05821 49.6613 6.87428 46.7973 7.23985C45.533 7.42058 41.9926 7.99418 39.7419 7.59307C39.7329 7.65107 39.721 7.70794 39.7135 7.76669C39.4388 9.87291 39.7599 12.2706 40.2983 14.3166C41.0343 17.1132 41.9177 18.6402 42.3589 21.5104C42.5796 22.9824 42.2855 24.6752 42.7267 26.1468C43.3156 27.8392 44.9347 29.1642 46.48 29.9002C48.1556 30.6874 49.7264 30.9478 51.1752 30.8109L52.3837 36.9616C52.3837 36.9616 54.9468 38.2139 57.2933 35.6542L54.3062 29.8309C57.5657 28.033 59.8661 24.1207 60.8311 20.2592Z" fill="#A37467"/>
<path d="M58.7144 10.7988C58.7144 14.3571 59.0971 15.8273 59.6764 19.303C60.1706 19.3524 60.7252 18.1786 61.243 18.1572C61.6116 15.7674 61.664 13.2971 61.4937 10.9133C61.2954 8.13352 61.2453 6.38202 59.6468 3.96972C59.4885 3.73062 59.3149 3.51024 59.1342 3.29883C59.0017 3.38077 58.8648 3.45598 58.7144 3.51622C57.798 4.01799 56.8057 4.47822 55.7715 4.89505C56.0529 6.3562 56.1842 9.70692 58.7144 10.7988Z" fill="#72615F"/>
<path d="M59.4122 20.2106C59.6905 18.7375 60.623 17.3598 62.1077 17.3089C66.0496 17.1727 64.9623 23.222 61.6999 23.7656C59.7538 24.09 59.0601 22.074 59.4122 20.2106Z" fill="#A37467"/>
<path d="M48.3392 16.5742C48.3294 17.0064 48.298 17.4363 48.2767 17.8674L48.0941 19.1568C48.0177 19.5826 47.9257 20.0054 47.8374 20.4293C47.739 20.8503 47.6275 21.2675 47.5231 21.6865L47.5216 21.6933L47.5178 21.7034C47.4351 21.926 47.3435 22.1277 47.2735 22.3365C47.2365 22.4398 47.2058 22.5438 47.1833 22.6448C47.1594 22.7462 47.1485 22.8457 47.1538 22.9273C47.1579 22.9449 47.1609 22.9621 47.1624 22.9804C47.1609 22.9823 47.1691 23.0141 47.1594 22.9924L47.1773 23.0313C47.2005 23.0755 47.2271 23.1544 47.2477 23.1578C47.2735 23.2057 47.3442 23.2379 47.4179 23.2562C47.5856 23.2813 47.8104 23.2218 48.0282 23.1743C48.1378 23.1462 48.2546 23.1252 48.3579 23.0916C48.4623 23.0575 48.5678 23.0306 48.6722 22.9905C48.8836 22.9161 49.0879 22.8252 49.2899 22.7279L49.5863 22.5692C49.6839 22.5142 49.7719 22.4457 49.8665 22.384C49.9601 22.3211 50.0334 22.237 50.1191 22.1632C50.1988 22.0847 50.2553 21.987 50.3271 21.8961V21.8976L50.3309 21.8542L50.3346 21.8976L50.3342 21.8991C50.2796 21.9975 50.2392 22.1116 50.1685 22.204C50.0914 22.2897 50.0237 22.3889 49.9361 22.4656C49.7662 22.6265 49.5792 22.766 49.3835 22.8944C49.1822 23.0115 48.9771 23.1219 48.7635 23.2165C48.5483 23.3116 48.3223 23.3958 48.1072 23.4601C47.886 23.5252 47.6626 23.6098 47.3723 23.5862C47.226 23.5604 47.0673 23.5028 46.9633 23.3557C46.8967 23.2813 46.8941 23.2439 46.8615 23.1892L46.8421 23.1511C46.8208 23.1032 46.8282 23.1054 46.82 23.0796L46.7968 22.9644C46.7848 22.8192 46.8024 22.6893 46.8282 22.5685C46.8537 22.4465 46.887 22.3301 46.9251 22.2182C46.9989 21.9934 47.089 21.7756 47.1702 21.572L47.1646 21.5885L47.4999 20.3448C47.6039 19.9291 47.7061 19.5126 47.8205 19.0988L48.1015 17.8464C48.1809 17.4228 48.2486 16.9974 48.3392 16.5742Z" fill="#77483C"/>
<path d="M44.9844 18.2735C44.9844 17.7051 45.4446 17.2441 46.0134 17.2441C46.5813 17.2441 47.042 17.7051 47.042 18.2735C47.042 18.8419 46.5817 19.3025 46.0134 19.3025C45.4446 19.3025 44.9844 18.8419 44.9844 18.2735Z" fill="black"/>
<path d="M53.1406 17.4567C53.1406 16.8883 53.6009 16.4277 54.1696 16.4277C54.7376 16.4277 55.1982 16.8883 55.1982 17.4567C55.1982 18.0251 54.738 18.4857 54.1696 18.4857C53.6009 18.4857 53.1406 18.0251 53.1406 17.4567Z" fill="black"/>
<path d="M43.2894 14.4815C42.9792 14.4815 42.7379 14.2746 42.6687 13.9644C42.4966 13.2404 43.4619 12.6885 44.0479 12.5163C44.5306 12.3783 46.0823 12.3094 45.634 13.2404C45.4619 13.585 44.1515 14.2057 43.7721 14.3438C43.7033 14.3782 43.5652 14.4127 43.5652 14.4127L43.2894 14.4815Z" fill="black"/>
<path d="M55.2386 12.545C54.4293 12.9282 52.3044 12.6498 52.0118 12.2737C51.3222 11.5153 53.0808 11.067 53.5634 11.1015C54.1053 11.1333 55.456 11.4038 55.5469 12.0945C55.5735 12.2973 55.4515 12.4444 55.2386 12.545Z" fill="black"/>
<path d="M47.2656 25.9427C48.1131 26.8665 49.6083 27.2695 50.8423 26.9687C51.7029 26.7572 52.3899 26.1111 52.8576 25.3956C53.0705 25.0488 53.6606 24.165 53.3632 23.7949L47.2656 25.9427Z" fill="white"/>
<path d="M50.8812 111.504C50.4849 107.157 50.1863 103.658 49.7489 99.3632C49.3224 95.0564 48.3828 89.4244 48.3828 85.1162L54.7913 82.3828C54.9615 86.4415 54.1926 90.9155 54.6192 95.9694C55.0266 100.775 55.488 102.721 56.157 107.564C56.334 108.836 56.4642 110.004 56.5607 111.107C54.728 111.447 52.8007 111.518 50.8812 111.504Z" fill="#E8C0AE"/>
<path d="M48.0082 133.397C45.9331 133.514 43.6113 133.409 41.5358 133.525C41.2585 133.527 40.9401 133.486 40.6172 133.453C40.6419 133.892 40.704 134.319 40.768 134.69L56.7025 134.572C57.0658 134.479 57.1841 133.866 57.1987 133.145C54.117 133.232 51.2108 133.258 48.0082 133.397Z" fill="#A5AB97"/>
<path d="M47.7747 129.201C47.3272 128.833 46.7417 128.589 46.1639 128.451C46.1258 128.458 46.0857 128.465 46.0472 128.471C44.9224 128.653 43.6558 128.624 42.7451 129.403C42.0099 130.004 41.135 130.924 40.7878 131.806C40.6134 132.318 40.585 132.895 40.6168 133.453C40.9397 133.486 41.2581 133.526 41.5354 133.525C43.6106 133.409 45.9327 133.514 48.0079 133.397C48.388 133.381 48.7633 133.366 49.1364 133.352C49.1244 131.837 49.0002 130.24 47.7747 129.201Z" fill="#C5CCB5"/>
<path d="M53.0474 128.363C53.3942 127.518 53.3542 126.533 53.4552 125.653C53.5413 124.414 53.4376 123.256 53.4066 122.037C52.6384 122.035 51.9634 122.025 51.642 122.004C51.6195 124.467 52.0539 126.716 50.2635 127.429C49.0007 127.914 47.5055 128.233 46.1641 128.451C46.7418 128.589 47.3274 128.833 47.7749 129.201C48.2085 129.569 48.5026 130.008 48.7043 130.488C50.2373 130.371 52.5314 129.659 53.0474 128.363Z" fill="#453A1C"/>
<path d="M56.8962 128.472C56.8857 128.112 56.8782 127.753 56.8756 127.395C56.8674 125.706 56.7727 124.44 56.9179 121.977C56.3603 122.018 54.7413 122.041 53.4062 122.037C53.4343 123.151 53.5174 124.218 53.4661 125.34C53.6453 125.999 53.9275 126.674 54.3421 127.161C54.7982 127.666 55.9836 128.468 56.8962 128.472Z" fill="#564A24"/>
<path d="M56.8956 128.472C55.983 128.467 54.7977 127.666 54.3412 127.161C53.9266 126.673 53.6448 125.998 53.4652 125.34C53.4607 125.444 53.4611 125.548 53.454 125.653C53.353 126.533 53.393 127.518 53.0462 128.363C52.5302 129.659 50.2361 130.371 48.7031 130.487C49.0709 131.362 49.1278 132.373 49.1353 133.352C51.9016 133.25 54.4822 133.22 57.1976 133.143C57.2171 132.188 57.0554 131.045 57.0333 130.664C56.9585 129.934 56.9177 129.203 56.8956 128.472Z" fill="#67592C"/>
<path d="M54.6303 128.439C54.6265 128.44 54.6228 128.439 54.6191 128.44C53.7749 128.444 53.6129 129.588 53.6324 130.198C53.6499 130.712 53.8976 131.681 54.4649 131.848C55.724 132.222 56.2549 128.431 54.6303 128.439Z" fill="#C5CCB5"/>
<path d="M47.8089 128.363C48.7409 128.359 49.468 129.064 49.8683 129.847C49.8941 129.897 50.0708 129.909 50.0494 129.868C49.5956 128.982 48.763 128.275 47.7307 128.279C47.6102 128.28 47.7524 128.363 47.8089 128.363Z" fill="white"/>
<path d="M49.5632 127.848C50.2546 128.146 50.8174 128.658 51.1325 129.346C51.1564 129.397 51.3319 129.414 51.3124 129.371C50.9757 128.635 50.3661 128.108 49.6298 127.79C49.5553 127.759 49.4461 127.798 49.5632 127.848Z" fill="white"/>
<path d="M50.6835 127.392C51.506 127.48 52.0814 128.05 52.6865 128.553C52.7243 128.585 52.9031 128.572 52.8496 128.527C52.1877 127.975 51.5804 127.413 50.6891 127.318C50.5776 127.306 50.5743 127.381 50.6835 127.392Z" fill="white"/>
<path d="M51.3899 126.655C51.9837 126.634 52.5438 126.837 53.0587 127.119C53.1092 127.147 53.2701 127.133 53.1642 127.075C52.5947 126.763 51.9657 126.55 51.3109 126.572C51.1897 126.576 51.3334 126.658 51.3899 126.655Z" fill="white"/>
<path d="M51.8088 125.7C52.2915 125.662 52.7727 125.602 53.2493 125.721C53.3272 125.741 53.4323 125.687 53.3081 125.656C52.7828 125.526 52.2567 125.58 51.7235 125.623C51.603 125.633 51.7523 125.704 51.8088 125.7Z" fill="white"/>
<path d="M51.6988 124.712C52.1972 124.771 52.6908 124.715 53.1903 124.707C53.3183 124.705 53.224 124.631 53.145 124.633C52.6795 124.639 52.2163 124.697 51.7523 124.643C51.6738 124.634 51.5716 124.697 51.6988 124.712Z" fill="white"/>
<path d="M51.6285 123.218C52.1444 123.215 52.6601 123.212 53.1757 123.21C53.2557 123.21 53.3452 123.208 53.2176 123.209C52.702 123.212 52.186 123.214 51.67 123.217C51.5903 123.218 51.5009 123.218 51.6285 123.218Z" fill="white"/>
<path d="M59.186 100.762C58.7579 96.4534 57.8184 90.8217 57.8184 86.5131L64.2265 83.7812C64.3967 87.838 63.6278 92.3139 64.0558 97.3667C64.4618 102.172 64.9232 104.119 65.5941 108.963C65.7419 110.035 65.8578 111.031 65.9488 111.979C64.0528 112.207 62.1865 112.462 60.2991 112.697C59.9134 108.443 59.6144 104.988 59.186 100.762Z" fill="#F1D3C3"/>
<path d="M55.6825 131.41C57.9908 130.334 60.5528 129.091 60.8087 126.44C61.0654 123.459 61.0882 121.063 60.8087 118.156C60.6179 116.149 60.451 114.362 60.3002 112.697C62.1872 112.461 64.0539 112.207 65.9498 111.979C66.5118 117.843 66.0733 121.691 65.8514 128.18C65.8514 128.419 66.1358 130.121 66.376 131.598C65.6883 131.853 64.6878 132.095 64.0569 132.157C60.6736 132.534 56.353 133.387 52.8242 132.386C53.8072 132.09 54.8043 131.809 55.6825 131.41Z" fill="white"/>
<path d="M57.7367 135.641C55.6616 135.758 53.3398 135.653 51.2643 135.77C50.987 135.771 50.6686 135.73 50.3457 135.697C50.3704 136.136 50.4325 136.563 50.4965 136.934L66.431 136.817C66.7944 136.723 66.9126 136.11 66.9272 135.389C63.8455 135.476 60.9393 135.502 57.7367 135.641Z" fill="#D1D1D1"/>
<path d="M57.5033 131.445C57.0557 131.077 56.4702 130.833 55.8924 130.695C55.8543 130.702 55.8142 130.709 55.7757 130.715C54.6509 130.897 53.3844 130.869 52.4736 131.647C51.7384 132.249 50.8636 133.169 50.5163 134.05C50.342 134.562 50.3135 135.139 50.3453 135.697C50.6682 135.73 50.9867 135.771 51.2639 135.769C53.3391 135.653 55.6612 135.758 57.7364 135.641C58.1165 135.625 58.4918 135.61 58.8649 135.597C58.8529 134.081 58.7287 132.484 57.5033 131.445Z" fill="#F2F2F2"/>
<path d="M62.7759 130.607C63.1227 129.762 63.0827 128.777 63.1837 127.897C63.2698 126.658 63.1661 125.5 63.1351 124.281C62.3669 124.279 61.6919 124.269 61.3705 124.248C61.348 126.711 61.7824 128.96 59.992 129.673C58.7292 130.158 57.234 130.477 55.8926 130.695C56.4703 130.833 57.0559 131.077 57.5034 131.445C57.9371 131.813 58.2312 132.252 58.4328 132.732C59.9658 132.615 62.2599 131.903 62.7759 130.607Z" fill="#5B6B38"/>
<path d="M66.6247 130.716C66.6142 130.356 66.6067 129.997 66.6041 129.639C66.5959 127.95 66.5012 126.684 66.6464 124.221C66.0889 124.262 64.4698 124.285 63.1348 124.281C63.1628 125.396 63.2459 126.462 63.1946 127.584C63.3739 128.243 63.656 128.918 64.0706 129.406C64.5267 129.91 65.7121 130.712 66.6247 130.716Z" fill="#677C42"/>
<path d="M66.6242 130.716C65.7116 130.711 64.5262 129.91 64.0697 129.405C63.6551 128.917 63.3733 128.243 63.1937 127.584C63.1893 127.688 63.1896 127.792 63.1825 127.897C63.0815 128.777 63.1215 129.762 62.7747 130.607C62.2587 131.903 59.9646 132.615 58.4316 132.731C58.7995 133.606 58.8563 134.617 58.8638 135.596C61.6301 135.494 64.2108 135.464 66.9261 135.387C66.9456 134.432 66.7839 133.289 66.7619 132.908C66.687 132.178 66.6462 131.447 66.6242 130.716Z" fill="#768D4C"/>
<path d="M64.3588 130.684C64.3551 130.684 64.3513 130.684 64.3476 130.684C63.5034 130.688 63.3414 131.832 63.3609 132.442C63.3785 132.956 63.6262 133.925 64.1934 134.092C65.4525 134.466 65.9835 130.675 64.3588 130.684Z" fill="#F2F2F2"/>
<path d="M57.5374 130.607C58.4695 130.603 59.1965 131.308 59.5968 132.091C59.6227 132.141 59.7993 132.153 59.7779 132.112C59.3241 131.226 58.4915 130.519 57.4592 130.523C57.3387 130.524 57.4809 130.607 57.5374 130.607Z" fill="white"/>
<path d="M59.2917 130.092C59.9832 130.39 60.5459 130.902 60.861 131.59C60.8849 131.641 61.0604 131.658 61.0409 131.615C60.7042 130.879 60.0947 130.352 59.3583 130.035C59.2838 130.004 59.1746 130.042 59.2917 130.092Z" fill="white"/>
<path d="M60.4101 129.638C61.2325 129.726 61.808 130.296 62.413 130.799C62.4508 130.831 62.6297 130.818 62.5762 130.773C61.9143 130.221 61.307 129.659 60.4157 129.564C60.3042 129.552 60.3008 129.627 60.4101 129.638Z" fill="white"/>
<path d="M61.1184 128.899C61.7122 128.878 62.2723 129.081 62.7872 129.363C62.8377 129.391 62.9986 129.377 62.8927 129.319C62.3232 129.008 61.6942 128.794 61.0394 128.816C60.9182 128.821 61.0619 128.902 61.1184 128.899Z" fill="white"/>
<path d="M61.5373 127.944C62.02 127.906 62.5012 127.846 62.9779 127.965C63.0557 127.985 63.1608 127.931 63.0366 127.901C62.5113 127.77 61.9852 127.824 61.452 127.867C61.3315 127.877 61.4808 127.948 61.5373 127.944Z" fill="white"/>
<path d="M61.4273 126.956C61.9257 127.015 62.4193 126.959 62.9188 126.951C63.0468 126.95 62.9525 126.875 62.8735 126.877C62.4081 126.883 61.9448 126.941 61.4809 126.887C61.4023 126.878 61.3001 126.941 61.4273 126.956Z" fill="white"/>
<path d="M61.357 125.462C61.873 125.459 62.3886 125.456 62.9042 125.454C62.9843 125.454 63.0737 125.453 62.9461 125.453C62.4305 125.456 61.9145 125.459 61.3985 125.462C61.3188 125.462 61.2294 125.462 61.357 125.462Z" fill="white"/>
<path d="M58.6937 67.0615C57.9937 73.9313 57.4601 102.247 57.5847 107.231C57.8372 114.765 57.5881 119.025 57.5881 126.56V128.43C55.8321 128.552 51.3435 127.791 49.8404 126.818C49.8404 126.818 50.0544 122.504 50.179 120.682C50.4297 118.372 49.3121 99.8148 48.685 90.9439C48.3093 85.231 47.6826 79.639 47.0554 73.9276C46.9305 72.2266 46.8044 70.4044 47.4311 68.7011C48.3089 65.9057 51.9429 65.7845 54.8278 64.9336L58.6937 67.0615Z" fill="#3E4B75"/>
<path d="M47.2555 71.5642C47.2996 70.6104 47.5219 69.6136 47.7909 68.6588C48.1494 67.4015 49.4919 66.8362 50.7001 66.3602C51.6835 65.9684 52.8475 65.5352 53.9203 65.5352C55.1737 65.5352 56.3378 66.2727 57.5441 66.5342L57.5613 66.8852C59.1448 66.3916 61.6754 67.2926 63.7502 66.6797L67.6158 68.8077C66.9157 75.6779 66.384 103.992 66.5082 108.975C66.7593 116.512 66.8857 123.39 66.8857 130.926C65.1279 131.048 60.2666 130.661 58.7621 129.688C58.7621 129.688 59.3503 127.994 59.4767 126.171C59.7278 123.861 59.7731 121.322 59.8981 119.014C60.2734 110.142 58.2349 101.562 57.6085 92.6889C57.2875 87.8168 56.7849 83.0345 56.2547 78.1871C56.1739 78.1605 56.0968 78.1362 56.0227 78.1152C54.9481 77.7676 54.0531 77.3358 53.0698 76.8561C51.4144 75.9895 49.1249 75.4433 47.3887 74.1247C46.8503 73.7168 47.2098 72.3017 47.2555 71.5642Z" fill="#3E4B75"/>
<path d="M54.5788 122.112C54.5788 122.112 54.3752 122.088 54.0924 122.114C54.0205 122.121 53.9431 122.126 53.866 122.14C53.7852 122.157 53.7028 122.147 53.6183 122.16C53.4514 122.17 53.2797 122.198 53.1057 122.226C52.9279 122.253 52.7491 122.27 52.5822 122.309C52.4138 122.346 52.2578 122.377 52.1208 122.413C51.8484 122.479 51.6621 122.569 51.6621 122.569C51.6621 122.569 51.8466 122.648 52.1309 122.699C52.4134 122.766 52.7966 122.755 53.1771 122.72C53.3683 122.679 53.5599 122.638 53.7335 122.583C53.9113 122.54 54.0531 122.458 54.1781 122.386C54.4243 122.247 54.5788 122.112 54.5788 122.112Z" fill="#1C2D4F"/>
<path d="M60.3047 127.965C60.3047 127.965 60.347 128.028 60.4259 128.13C60.4645 128.179 60.5135 128.241 60.5696 128.309C60.6186 128.384 60.7118 128.439 60.7997 128.509C60.8925 128.577 60.9962 128.655 61.1107 128.729C61.227 128.783 61.3456 128.846 61.4773 128.903C61.6053 128.962 61.7389 129.02 61.8848 129.051C62.027 129.09 62.1729 129.129 62.317 129.167C62.4659 129.185 62.6156 129.203 62.7626 129.22C62.9086 129.245 63.0537 129.239 63.1959 129.231C63.3366 129.225 63.4739 129.213 63.6019 129.204C63.7295 129.178 63.8492 129.145 63.9581 129.115C64.0685 129.083 64.1673 129.067 64.2492 129.015C64.3338 128.971 64.4019 128.929 64.4588 128.895C64.5706 128.829 64.6286 128.787 64.6286 128.787C64.6286 128.787 64.5549 128.792 64.4251 128.804C64.3637 128.81 64.2881 128.818 64.2021 128.829C64.1213 128.848 64.0195 128.829 63.9158 128.833C63.8107 128.829 63.7003 128.829 63.5824 128.83C63.4631 128.816 63.3385 128.799 63.2101 128.79C63.0822 128.787 62.9505 128.766 62.8169 128.741C62.6818 128.72 62.5464 128.699 62.4094 128.678C62.2762 128.648 62.143 128.618 62.009 128.589C61.8758 128.56 61.746 128.534 61.6229 128.49C61.5017 128.45 61.3789 128.419 61.2633 128.39C61.16 128.346 61.0583 128.307 60.9614 128.274C60.8663 128.232 60.7679 128.219 60.6931 128.165C60.6138 128.123 60.5449 128.086 60.4888 128.054C60.3747 127.994 60.3047 127.965 60.3047 127.965Z" fill="#1C2D4F"/>
<path d="M63.5004 127.602C63.5004 127.602 63.2983 127.578 63.0139 127.604C62.9436 127.61 62.8661 127.616 62.7876 127.63C62.7067 127.646 62.6263 127.637 62.5421 127.65C62.3749 127.658 62.2012 127.689 62.0276 127.716C61.8506 127.741 61.671 127.759 61.5045 127.797C61.3377 127.836 61.1797 127.868 61.0428 127.901C60.7723 127.969 60.5859 128.059 60.5859 128.059C60.5859 128.059 60.7704 128.136 61.0551 128.189C61.3377 128.256 61.7204 128.244 62.0995 128.21C62.2907 128.168 62.4822 128.129 62.6559 128.074C62.8355 128.029 62.9777 127.949 63.1004 127.877C63.3473 127.736 63.5004 127.602 63.5004 127.602Z" fill="#1C2D4F"/>
<path d="M56.4497 123.131C56.4497 123.131 56.3617 123.143 56.2106 123.175C56.0594 123.196 55.8473 123.275 55.5928 123.303C55.4663 123.322 55.3328 123.34 55.1924 123.368C55.0555 123.4 54.8954 123.396 54.7393 123.421C54.4288 123.465 54.0879 123.478 53.7511 123.507C53.0735 123.544 52.3854 123.578 51.8657 123.635C51.3441 123.688 50.9961 123.768 50.9961 123.768C50.9961 123.768 51.3426 123.855 51.8623 123.921C52.1201 123.956 52.4221 123.988 52.7521 124.004C53.0769 124.03 53.4312 124.013 53.7826 124.006C53.9584 123.986 54.1354 123.967 54.309 123.948C54.4826 123.938 54.6518 123.887 54.8145 123.853C54.9765 123.814 55.1326 123.788 55.28 123.728C55.4289 123.677 55.5662 123.623 55.6893 123.572C55.9442 123.481 56.1144 123.34 56.2472 123.267C56.3775 123.182 56.4497 123.131 56.4497 123.131Z" fill="#1C2D4F"/>
<path d="M56.2614 78.1948C56.2614 78.1948 56.0227 78.0002 55.6399 77.7705C55.2587 77.5329 54.7307 77.2642 54.1934 77.0202C53.6527 76.78 53.0978 76.5746 52.6675 76.4515C52.241 76.3246 51.9375 76.2812 51.9375 76.2812C51.9375 76.2812 52.1729 76.4777 52.5553 76.7145C52.9347 76.9555 53.4578 77.2343 53.9966 77.4782C54.5354 77.7192 55.0974 77.9119 55.5277 78.0316C55.958 78.1547 56.2614 78.1948 56.2614 78.1948Z" fill="#1C2D4F"/>
<path d="M55.9793 68.2598C55.9793 68.2598 55.9621 68.4165 55.9427 68.6886C55.9303 68.9587 55.8952 69.3482 55.8791 69.8152C55.8424 70.7476 55.8357 71.9903 55.8705 73.2321C55.9075 74.4729 55.9827 75.7148 56.0725 76.6431C56.1148 77.1101 56.1709 77.4966 56.2009 77.769C56.2338 78.0388 56.26 78.1952 56.26 78.1952C56.26 78.1952 56.2776 78.0388 56.297 77.769C56.3112 77.497 56.3442 77.1086 56.3603 76.642C56.3954 75.7099 56.4003 74.4647 56.367 73.2217C56.3299 71.9802 56.2547 70.7387 56.1653 69.8081C56.123 69.3445 56.0688 68.9572 56.0388 68.6848C56.004 68.4147 55.9793 68.2598 55.9793 68.2598Z" fill="#1C2D4F"/>
<path d="M54.5694 68.4414C54.5694 68.4414 54.3939 68.9084 54.2678 69.6459C54.2061 70.0129 54.1537 70.4447 54.1343 70.9117C54.1025 71.3768 54.12 71.8752 54.1466 72.3702C54.1728 72.6198 54.1904 72.8675 54.2297 73.1111C54.2574 73.355 54.3098 73.5919 54.3591 73.8205C54.4011 74.0525 54.477 74.2684 54.5331 74.4753C54.6035 74.6793 54.6682 74.8738 54.7494 75.0456C54.8299 75.2162 54.895 75.3756 54.9825 75.5043C55.0671 75.6326 55.1266 75.7516 55.1969 75.8358C55.3357 76.0064 55.4162 76.0996 55.4162 76.0996C55.4162 76.0996 55.3709 75.9817 55.283 75.7872C55.234 75.694 55.2025 75.5642 55.1531 75.4268C55.1008 75.2903 55.0723 75.1234 55.0196 74.9531C54.9724 74.7773 54.9425 74.5823 54.8931 74.3836C54.8635 74.1767 54.8197 73.9664 54.7917 73.7412C54.7561 73.5182 54.7356 73.2866 54.7071 73.0512C54.6772 72.8155 54.6671 72.5738 54.6458 72.3343C54.5754 71.3712 54.5526 70.3998 54.5526 69.6698C54.556 69.3031 54.5511 68.9974 54.5616 68.7815C54.5713 68.5656 54.5694 68.4414 54.5694 68.4414Z" fill="#1C2D4F"/>
<path d="M64.6283 68.7148C64.6283 68.7148 64.6122 68.8234 64.5826 69.0112C64.565 69.2009 64.5018 69.4643 64.5156 69.794C64.5175 69.9593 64.5194 70.1382 64.528 70.3298C64.5317 70.5214 64.5647 70.7141 64.5927 70.918C64.6241 71.1212 64.6458 71.3356 64.7038 71.5429C64.7566 71.7524 64.809 71.9645 64.8614 72.1786C64.9332 72.384 65.0036 72.5909 65.0735 72.7948C65.1368 73.0002 65.2333 73.1885 65.3126 73.3785C65.4724 73.7538 65.655 74.0887 65.8166 74.3716C65.9712 74.6582 66.1343 74.8786 66.2398 75.035C66.3517 75.1914 66.4149 75.2793 66.4149 75.2793C66.4149 75.2793 66.3839 75.1738 66.3278 74.9909C66.2675 74.812 66.1815 74.5594 66.0763 74.2519C66.0254 74.0988 65.9712 73.9342 65.9057 73.7621C65.8413 73.5914 65.7919 73.404 65.7216 73.2176C65.5884 72.8423 65.4705 72.4364 65.3407 72.0345C65.2318 71.6267 65.1035 71.2233 65.0245 70.8372C64.9856 70.6437 64.9209 70.4596 64.8947 70.283C64.8666 70.1049 64.8314 69.9388 64.8011 69.7824C64.7278 69.4733 64.7192 69.196 64.6803 69.0097C64.6481 68.8234 64.6283 68.7148 64.6283 68.7148Z" fill="#1C2D4F"/>
<path d="M62.3725 107.73C62.3725 107.73 62.3026 107.544 62.1492 107.312C62.0002 107.077 61.7716 106.794 61.5153 106.539C61.2276 106.308 60.9077 106.108 60.6532 105.985C60.4006 105.86 60.2109 105.816 60.2109 105.816C60.2109 105.816 60.3022 105.997 60.4744 106.209C60.5589 106.319 60.6626 106.435 60.7801 106.55C60.8953 106.67 61.0322 106.78 61.164 106.896C61.424 107.148 61.7117 107.371 61.949 107.516C62.1847 107.664 62.3725 107.73 62.3725 107.73Z" fill="#1C2D4F"/>
<path d="M59.3871 108.038C59.3871 108.038 59.084 105.927 58.6298 102.761C58.4143 101.176 58.1628 99.3265 57.8934 97.3456C57.6476 95.361 57.3857 93.2443 57.1234 91.1276C56.9898 90.0694 56.8865 89.0071 56.7743 87.9632C56.6583 86.9196 56.5726 85.8888 56.4776 84.8931C56.3765 83.8982 56.317 82.9317 56.2482 82.0164C56.1737 81.102 56.1715 80.2298 56.1427 79.4328C56.091 77.8343 56.0667 76.5011 56.0503 75.5679C56.0368 74.6348 56.0293 74.1016 56.0293 74.1016C56.0293 74.1016 56.0686 74.6336 56.1378 75.5642C56.2033 76.4951 56.2965 77.8253 56.3859 79.4223C56.4379 80.2227 56.4708 81.0836 56.5625 81.9947C56.6385 82.9062 56.7047 83.8686 56.8128 84.862C56.9153 85.8555 57.0081 86.8829 57.132 87.9254C57.2484 88.9678 57.367 90.0267 57.4852 91.086C57.9739 95.3221 58.4622 99.5588 58.8289 102.736C59.184 105.915 59.3871 108.038 59.3871 108.038Z" fill="#1C2D4F"/>
<path d="M33.0713 34.1754C33.2487 33.6433 34.0461 32.8463 34.4004 32.1806C34.8865 31.2939 35.1536 30.2742 35.3748 29.2557C35.6415 27.6161 36.4385 25.6061 36.1276 23.9661C35.02 23.1672 34.1864 27.6599 34.0461 28.0584C33.8616 28.5815 33.2487 28.7678 32.7604 29.212C31.7861 30.1425 31.3415 31.7369 31.7861 33.0218L33.0713 34.1754Z" fill="#A37467"/>
<path d="M43.4826 44.2345C43.3052 44.4119 43.3954 44.3221 43.4826 44.2345C39.1406 46.9821 38.6523 47.2088 35.684 48.4888C34.8852 44.8983 34.6113 42.4879 34.2655 40.0243C33.9198 37.5596 33.2018 32.7717 33.3264 32.2643C33.8667 30.0241 34.3198 29.5164 34.2218 24.8239C34.1933 23.4716 34.0672 21.551 34.1776 19.8601C34.2304 19.0597 33.7458 17.9047 33.3787 18.7069C33.0678 19.3916 32.847 20.3027 32.7591 21.0118C32.5818 22.5201 32.1836 24.2477 32.2708 25.7541C32.1833 25.0446 31.8357 18.8371 31.0312 18.9737C29.7003 19.1986 30.898 25.0446 30.7206 26.0194C30.4557 24.3356 29.7006 20.3469 29.1704 20.4363C28.0172 20.1254 29.081 25.1782 29.4357 26.8571C29.5476 27.3469 28.4224 24.3094 27.6625 23.6265C26.7319 23.4054 28.4161 28.3684 28.6806 30.142C28.9478 31.7364 28.5931 34.0413 30.9863 35.1054C31.7848 40.7779 31.2972 45.1654 32.5372 50.7485C33.0697 53.4081 33.2014 54.3387 35.7712 53.4523C38.2542 52.7447 40.0712 51.5208 42.9943 49.8636C44.5078 49.0052 45.4769 48.1977 46.4969 47.6024L43.4826 44.2345Z" fill="#A37467"/>
<path d="M36.1274 23.9649C36.1274 23.9649 36.0944 23.9387 36.0275 23.8931C35.9571 23.8564 35.8239 23.807 35.6675 23.8702C35.3592 23.9967 35.0831 24.378 34.8477 24.8393C34.6109 25.3063 34.4021 25.875 34.2157 26.4913C34.1244 26.8 34.0316 27.1199 33.9508 27.4466C33.9104 27.6045 33.8677 27.7661 33.8292 27.9278L33.815 27.9734C33.8273 27.9401 33.8008 27.9981 33.7974 28.0033L33.7398 28.1193C33.6956 28.1721 33.678 28.1983 33.6257 28.251C33.4292 28.4512 33.1269 28.6196 32.8444 28.834C32.7725 28.883 32.7044 28.9478 32.6356 29.0043C32.5334 29.0974 32.5144 29.1378 32.4511 29.2078C32.3437 29.3309 32.2371 29.4484 32.1458 29.6063C31.9408 29.894 31.821 30.1941 31.7125 30.4804C31.6702 30.6282 31.6298 30.7704 31.5909 30.9088C31.5613 31.0491 31.549 31.1879 31.5295 31.3178C31.4873 31.5793 31.5191 31.8266 31.5228 32.0358C31.561 32.2465 31.5838 32.4309 31.6223 32.5765C31.7226 32.8661 31.7862 33.0206 31.7862 33.0206C31.7862 33.0206 31.763 32.8485 31.7177 32.5593C31.7035 32.4137 31.7125 32.2326 31.7084 32.0324C31.7402 31.8308 31.7477 31.6025 31.8139 31.3653C31.8457 31.2459 31.8719 31.1195 31.9123 30.9967C31.9602 30.8736 32.0089 30.7457 32.0601 30.614C32.1791 30.3648 32.3198 30.1013 32.4938 29.875C32.5637 29.7537 32.6831 29.6362 32.7972 29.5184C32.8463 29.4694 32.9237 29.3743 32.9518 29.3623C33.0116 29.3167 33.0663 29.2643 33.1329 29.2202C33.3854 29.0304 33.693 28.8778 33.9841 28.6005C34.0526 28.5339 34.1338 28.4179 34.1862 28.3352L34.2404 28.2192C34.2546 28.1893 34.2475 28.2069 34.2786 28.1351L34.2999 28.0595C34.3403 27.8911 34.3807 27.7242 34.4189 27.5588C34.4949 27.234 34.5667 26.9149 34.6385 26.6054C34.7856 25.9929 34.9401 25.4238 35.1093 24.9535C35.281 24.4902 35.4673 24.0985 35.7079 23.9582C35.8258 23.8878 35.9395 23.8964 36.0151 23.9159C36.0892 23.9473 36.1274 23.9649 36.1274 23.9649Z" fill="#77483C"/>
<path d="M29.3066 27.7527C29.3066 27.7527 29.4702 27.5331 29.7467 27.2484C29.8881 27.1099 30.0441 26.9378 30.2548 26.7941C30.4568 26.643 30.6817 26.4918 30.9074 26.3425C31.3829 26.097 31.8664 25.865 32.2634 25.7775C32.6529 25.672 32.9204 25.6387 32.9204 25.6387C32.9204 25.6387 32.7023 25.8089 32.3651 26.0091C32.0171 26.1917 31.5943 26.4989 31.1334 26.7305C30.7102 27.0149 30.2387 27.224 29.902 27.447C29.5585 27.6469 29.3066 27.7527 29.3066 27.7527Z" fill="#77483C"/>
<path d="M49.2506 35.6037C47.1926 35.7968 46.0349 38.5619 45.1347 40.1697C43.5916 43.128 40.7617 44.2213 38.1896 45.8931C37.8038 46.1505 37.4821 46.4719 37.0963 46.729C37.2894 45.8931 36.4531 45.7 35.8099 46.0858C36.3887 44.9281 35.7455 44.6067 35.4241 43.5777C35.1667 42.6131 35.4885 41.7128 35.2954 40.8122C34.974 39.7189 34.3951 39.3331 34.4595 38.1114C34.5238 37.2755 34.5238 36.3105 34.6526 35.4746C33.4305 35.539 31.4369 36.0535 30.4079 36.6967C29.4433 37.3399 30.0865 37.3399 30.3436 38.3688C30.4723 39.1408 30.2149 39.7192 30.1505 40.4264C30.1505 41.134 30.5363 41.8412 30.665 42.5487C30.8581 43.5133 30.665 44.3493 30.665 45.2495C30.665 46.793 31.1795 48.4008 31.3082 50.0083C31.3726 51.2947 31.6296 53.8027 33.0447 54.5099C34.1381 55.0888 36.1317 53.9954 37.289 53.6097C40.3116 52.6451 43.2698 50.7158 45.6491 48.5935C46.7425 47.6932 48.1572 46.4712 48.9291 45.3779L49.2506 35.6037Z" fill="#800302"/>
<path d="M34.9817 46.1504C34.7621 46.3906 34.5151 46.6065 34.2742 46.8235C34.0332 47.0417 33.7933 47.2587 33.5621 47.4806C33.3335 47.7043 33.1172 47.9401 32.9421 48.1967C32.8946 48.2585 32.8605 48.3273 32.8205 48.3924C32.7778 48.4568 32.7543 48.5286 32.7206 48.5956C32.6596 48.7326 32.6233 48.8736 32.6016 49.0154L32.4373 48.8283C32.5833 48.8175 32.7288 48.7924 32.8706 48.7367C32.9406 48.7049 33.0128 48.6835 33.0805 48.642C33.149 48.6042 33.2194 48.5724 33.2856 48.5264C33.5554 48.3591 33.8091 48.15 34.0616 47.9345C34.3153 47.7193 34.5709 47.4982 34.847 47.2912C34.9858 47.1887 35.1299 47.0899 35.2829 47.0009C35.4378 46.9137 35.6047 46.8415 35.7802 46.7854L36.0721 46.6922L35.9987 46.9725L35.9284 47.2396C35.9033 47.3275 35.8861 47.42 35.8464 47.4993C35.775 47.6617 35.7128 47.8312 35.6253 47.9831C35.5385 48.1354 35.458 48.2918 35.3664 48.4396L35.0846 48.8781L34.7845 49.3024C34.6801 49.4405 34.5701 49.5741 34.4635 49.7095C34.2457 49.9774 34.0216 50.2401 33.7847 50.4904C33.9774 50.2042 34.1728 49.9217 34.358 49.6328C34.5421 49.3432 34.7187 49.0502 34.896 48.7591L35.1419 48.312C35.2212 48.1623 35.2878 48.007 35.3611 47.8555C35.4352 47.7036 35.4786 47.5438 35.543 47.3908C35.5782 47.3141 35.5879 47.2351 35.6073 47.1573L35.6616 46.9238L35.8797 47.1109C35.7375 47.1629 35.5984 47.2276 35.4633 47.31C35.3278 47.3911 35.1961 47.4832 35.0667 47.5816C34.8077 47.7788 34.5611 48.0022 34.3026 48.2192C34.0429 48.4351 33.7758 48.6517 33.4738 48.8347C33.4012 48.8834 33.3185 48.9211 33.2396 48.9627C33.1621 49.0061 33.0719 49.0323 32.9877 49.0656C32.8145 49.1266 32.627 49.155 32.4381 49.1595L32.2383 49.1644L32.2738 48.972C32.3068 48.7936 32.358 48.6207 32.437 48.4639C32.4804 48.3883 32.5155 48.3068 32.5672 48.2383C32.6166 48.1683 32.6611 48.0938 32.7165 48.0302C32.9264 47.7635 33.1685 47.5348 33.4184 47.3212C33.9187 46.8939 34.4717 46.553 34.9817 46.1504Z" fill="#590C0C"/>
<path d="M37.1271 48.0469C37.1271 48.0469 37.0186 48.2553 36.8375 48.5427C36.6617 48.8282 36.414 49.2057 36.1341 49.5642C35.9855 49.7381 35.8441 49.9174 35.6847 50.0659C35.5358 50.2216 35.3752 50.3492 35.2349 50.4521C35.1014 50.5617 34.9618 50.6212 34.8754 50.6713C34.7852 50.7177 34.7324 50.7409 34.7324 50.7409C34.7324 50.7409 34.7668 50.6923 34.8293 50.6133C34.8892 50.5306 34.9884 50.4341 35.0875 50.2964C35.2929 50.0334 35.5668 49.6828 35.8411 49.3322C36.1195 48.9804 36.4181 48.6384 36.6755 48.4031C36.9273 48.1696 37.1271 48.0469 37.1271 48.0469Z" fill="#590C0C"/>
<path d="M58.1102 33.7734C59.8819 34.4829 62.3623 34.5723 63.7808 35.9014C65.377 37.3199 65.554 40.6874 65.8193 42.7274C66.1755 45.7402 66.4408 48.8425 66.7061 51.8554C66.9729 55.2244 67.5929 58.5022 67.8593 61.872C68.0355 64.7965 68.302 67.8988 68.6563 70.8256C63.7737 71.0014 59.5182 70.7346 55.5292 71.2678C52.251 71.8003 49.7778 71.6211 46.4981 72.0656C46.6459 64.8639 46.3208 60.0988 46.2317 54.4278C46.1438 50.0825 46.1139 44.4119 46.6459 40.0682C46.9984 37.0553 47.5627 35.9915 50.3996 34.573C50.6646 36.1689 52.7027 36.9659 54.2095 37.1432C56.3374 37.4097 56.9567 36.1689 57.3117 34.2198L58.1102 33.7734Z" fill="#A52E2E"/>
<path d="M50.929 32.8008C51.222 34.8688 52.6143 35.991 53.9433 36.8774C53.4988 37.5868 52.047 39.952 51.222 40.1185C51.011 40.1623 49.7822 38.8418 49.2501 37.6901C48.748 36.5332 48.4003 35.9379 48.6043 35.1921C48.7603 34.6234 49.5416 33.768 50.309 33.1551L50.929 32.8008Z" fill="white"/>
<path d="M56.2274 32.1191C57.9111 32.1191 60.4566 34.1154 60.4072 34.3893C60.2284 35.3831 57.9018 39.8918 57.3121 39.89C56.798 39.8866 54.5649 38.0288 53.8555 36.8771C55.3615 36.4326 56.6891 35.4515 56.6363 33.4482L56.2274 32.1191Z" fill="white"/>
<path d="M63.397 46.6239C63.397 46.6239 63.3776 46.5925 63.3394 46.5453C63.3023 46.4974 63.2357 46.4346 63.1867 46.3627C63.1355 46.2976 63.0737 46.2205 63.0004 46.1375C62.93 46.0567 62.8515 45.9725 62.7721 45.8887C62.6105 45.7236 62.4313 45.5672 62.2719 45.4598C62.1192 45.3495 61.9785 45.293 61.9785 45.293C61.9785 45.293 61.9766 45.4423 62.0421 45.6301C62.1031 45.8213 62.2348 46.0481 62.4171 46.2393C62.609 46.4237 62.8316 46.5659 63.0528 46.6168C63.1579 46.6482 63.2391 46.6363 63.3008 46.6344C63.36 46.6291 63.397 46.6239 63.397 46.6239Z" fill="#800302"/>
<path d="M55.8653 57.4995C55.8653 57.4995 55.7175 57.4505 55.5154 57.4378C55.3119 57.4258 55.0541 57.4378 54.803 57.4939C54.5463 57.5695 54.2971 57.6608 54.1317 57.8082C53.9648 57.9381 53.8848 58.0608 53.8848 58.0608C53.8848 58.0608 54.0427 58.0877 54.2357 58.0765C54.3319 58.0698 54.4378 58.0556 54.559 58.0451C54.6765 58.0365 54.7974 58.0066 54.919 57.9785C55.17 57.9186 55.4159 57.8243 55.5861 57.7136C55.7597 57.6114 55.8653 57.4995 55.8653 57.4995Z" fill="#E19680"/>
<path d="M56.0996 55.1659C56.0996 55.1659 56.036 55.1551 55.9271 55.1412C55.8186 55.1341 55.6689 55.1027 55.4796 55.1251C55.2918 55.1341 55.0669 55.1603 54.8439 55.2202C54.6123 55.2655 54.3859 55.3624 54.1505 55.4466C53.9294 55.5551 53.7045 55.6572 53.5115 55.7852C53.3131 55.9027 53.1414 56.0333 52.9985 56.1508C52.713 56.3839 52.5547 56.5844 52.5547 56.5844C52.5547 56.5844 52.802 56.5264 53.1414 56.4C53.4815 56.2739 53.9208 56.0924 54.3492 55.9049C54.7788 55.7223 55.2091 55.5416 55.5324 55.4065C55.6921 55.3291 55.8448 55.2872 55.9436 55.2378C56.0435 55.1951 56.0996 55.1659 56.0996 55.1659Z" fill="#E19680"/>
<path d="M55.9811 53.0082C55.9811 53.0082 55.9022 52.9906 55.7656 52.9697C55.6283 52.9364 55.4247 52.9678 55.1684 52.9873C54.9293 53.0277 54.6487 53.0733 54.3625 53.1613C54.0729 53.2421 53.7709 53.3472 53.4742 53.4685C53.179 53.5897 52.8908 53.7285 52.6278 53.8707C52.3614 54.0061 52.1309 54.1689 51.9307 54.3025C51.732 54.4376 51.5831 54.5783 51.4757 54.6692C51.3724 54.7623 51.3145 54.8203 51.3145 54.8203C51.3145 54.8203 51.3953 54.799 51.5285 54.7534C51.6636 54.7111 51.8428 54.6359 52.0654 54.555C52.2925 54.4813 52.5399 54.371 52.8138 54.2692C53.0892 54.167 53.3717 54.0368 53.6635 53.9302C53.9494 53.8089 54.2379 53.6881 54.5065 53.5758C54.7729 53.4583 55.0277 53.3633 55.2399 53.263C55.4472 53.1968 55.6212 53.0913 55.7652 53.0685C55.9022 53.0329 55.9811 53.0082 55.9811 53.0082Z" fill="#E19680"/>
<path d="M59.7566 56.7985C59.4632 55.9118 59.0138 55.2622 58.5719 54.3387C58.2752 53.7101 57.6099 51.9721 56.8702 51.6402C55.8345 51.1961 56.2786 52.4899 56.4631 52.973C57.0932 54.451 57.7574 56.0012 58.4612 57.4073L59.7566 56.7985Z" fill="#A37467"/>
<path d="M45.3367 41.5996C45.068 42.5358 43.1354 42.8673 43.6125 43.8349C44.0361 44.6884 45.2282 45.0618 46.0865 45.4764C47.5207 46.1701 48.8187 47.0884 50.0932 47.9852C51.234 48.7875 52.4228 49.8902 53.9449 50.0731C55.0158 50.203 55.2336 49.4195 55.7361 48.7175C56.3258 47.8906 57.0068 47.1108 57.4461 46.2102C58.0919 44.8916 57.9935 43.8716 56.2749 43.5749C54.8175 43.3219 47.9581 42.0479 45.3367 41.5996Z" fill="#543528"/>
<path d="M45.8769 41.9958C45.9367 41.9378 47.4095 42.3505 47.5591 42.3805C48.3947 42.5436 49.2354 42.6877 50.0766 42.8261C51.6743 43.0929 53.2773 43.3335 54.8754 43.6003C55.4389 43.6934 57.0807 43.732 57.2083 44.3886C57.3715 45.2189 55.73 44.8395 55.2948 44.8242C54.6733 44.8014 54.0499 44.7838 53.4464 44.6468C51.8064 44.2745 50.1862 44.0549 48.6532 43.4843C47.9509 43.2354 47.6594 43.2089 47.3627 43.0577C47.396 42.926 45.1296 42.682 45.2382 42.6136L45.8769 41.9958Z" fill="#FDFBF2"/>
<path d="M57.728 44.4159C57.7857 45.1007 57.749 61.6672 57.0923 65.5369C56.4794 66.0776 55.333 66.0476 54.6643 65.9279C53.7947 65.7719 53.2458 65.5245 52.4941 65.1257C51.1789 64.4817 46.8142 62.2887 45.3096 61.488C45.3975 59.3462 44.6271 43.1606 44.7162 42.5039C47.1898 43.5363 48.4523 43.2624 52.2501 44.3579C52.9558 44.5619 54.5625 44.8728 55.3382 44.881C55.8542 44.8653 57.0425 44.9918 57.4414 44.7194L57.728 44.4159Z" fill="#543528"/>
<path d="M55.3448 45.1426C55.3448 45.1426 55.3713 46.3927 55.359 48.2624C55.3541 49.1986 55.3496 50.2886 55.3448 51.4564C55.3204 52.6238 55.2957 53.8705 55.2696 55.115C55.2142 56.3614 55.1577 57.6082 55.106 58.776C55.0709 59.9434 54.9553 61.0318 54.8546 61.9643C54.6559 63.8288 54.4883 65.0609 54.4883 65.0609C54.4883 65.0609 54.513 63.8097 54.6024 61.9448C54.6271 61.4797 54.6533 60.9757 54.6806 60.4422C54.6922 59.9067 54.7046 59.3428 54.7169 58.7587C54.7502 57.5909 54.7854 56.3464 54.822 55.1016C54.8677 53.8548 54.9133 52.6103 54.9556 51.4407C54.9949 50.2717 55.0623 49.1833 55.1064 48.249C55.228 46.3841 55.3448 45.1426 55.3448 45.1426Z" fill="#3A251C"/>
<path d="M54.8406 44.912L43.7502 41.9535C43.7502 41.9535 40.9023 41.729 40.918 42.1712C40.9323 42.612 41.5571 61.1085 41.5571 61.1085L50.3408 63.651L54.8406 64.8622V44.912Z" fill="#76B3D6"/>
<path d="M54.1014 44.9121L51.5117 45.1965V65.2555L54.1014 65.0093V44.9121Z" fill="#F7F7F7"/>
<path d="M54.1016 44.9127L44.1209 42.1719H40.918L51.5119 45.1971L54.1016 44.9127Z" fill="white"/>
<path d="M51.5447 65.2561L41.5898 61.1092L40.9492 42.1719L51.5447 45.1971V65.2561Z" fill="#76B3D6"/>
<path d="M41.8462 44.3387C41.5491 44.2564 41.2498 44.1542 40.9781 44.0068C40.8666 43.9473 40.7787 43.8189 40.7076 43.7187C40.5901 43.5537 40.5329 43.4904 40.7929 43.5398C41.0754 43.5907 41.1963 43.1585 40.9119 43.1062C40.3724 43.0059 39.9746 43.2465 40.2414 43.8152C40.5153 44.4 41.1484 44.6126 41.7269 44.7723C42.0068 44.8498 42.1254 44.4161 41.8462 44.3387Z" fill="#B6B6B6"/>
<path d="M41.5896 46.595C41.3281 46.5793 41.0755 46.4087 40.8663 46.265C40.7589 46.1894 40.6557 46.0948 40.5827 45.984C40.5677 45.9417 40.5543 45.9488 40.5449 46.0068C40.6205 45.9492 40.7642 45.9649 40.8521 45.9612C41.1413 45.9541 41.1413 45.5047 40.8521 45.5118C40.4095 45.5241 39.895 45.7561 40.2272 46.2616C40.4955 46.6706 41.1036 47.0164 41.5889 47.0444C41.8796 47.0624 41.8781 46.6126 41.5896 46.595Z" fill="#B6B6B6"/>
<path d="M41.602 49.0695C41.2533 48.9991 40.9345 48.8536 40.6404 48.6567C40.5341 48.5849 40.4009 48.4775 40.3515 48.3533C40.2988 48.2163 40.8424 48.1374 40.9131 48.125C41.1986 48.0741 41.0774 47.6424 40.7942 47.6914C40.3115 47.7759 39.6653 48.0442 39.9938 48.6362C40.258 49.1155 40.9786 49.4013 41.4826 49.5031C41.7648 49.5611 41.886 49.1274 41.602 49.0695Z" fill="#B6B6B6"/>
<path d="M41.7876 51.4286C41.4516 51.432 41.1534 51.258 40.9143 51.0335C40.82 50.9441 40.7074 50.812 40.698 50.6754C40.6861 50.5242 41.1167 50.5471 41.1968 50.5471C41.4868 50.5489 41.4868 50.0995 41.1968 50.0977C40.6973 50.0958 40.0298 50.324 40.3141 50.9545C40.5562 51.4915 41.2043 51.8832 41.7876 51.878C42.0765 51.8761 42.0765 51.4267 41.7876 51.4286Z" fill="#B6B6B6"/>
<path d="M41.8474 54.2457C41.5057 54.1929 41.203 54.0249 40.946 53.7982C40.8476 53.7102 40.7525 53.6032 40.7061 53.4786C40.6324 53.2833 41.0492 53.268 41.1469 53.2571C41.4331 53.2309 41.4354 52.7815 41.1469 52.8077C40.6695 52.8534 40.0162 53.1078 40.3162 53.7102C40.5692 54.2161 41.1798 54.5937 41.728 54.6794C42.0116 54.7235 42.1336 54.2898 41.8474 54.2457Z" fill="#B6B6B6"/>
<path d="M41.8879 56.7493C41.568 56.7336 41.2447 56.5177 41.0082 56.3156C40.9121 56.2315 40.7699 56.1035 40.7542 55.9662C40.7366 55.8131 41.168 55.7746 41.2578 55.7607C41.5437 55.717 41.4221 55.2852 41.1384 55.3271C40.5794 55.4131 40.0623 55.7716 40.4481 56.3613C40.7377 56.8039 41.3603 57.1725 41.8875 57.1987C42.1779 57.2144 42.176 56.765 41.8879 56.7493Z" fill="#B6B6B6"/>
<path d="M41.9763 59.4703C41.3346 59.5983 40.4665 58.707 41.4547 58.524C41.7394 58.4713 41.6182 58.0376 41.3353 58.0904C40.798 58.1888 40.3318 58.6007 40.603 59.1788C40.8665 59.7405 41.5003 60.0215 42.0956 59.9044C42.3807 59.846 42.2591 59.4138 41.9763 59.4703Z" fill="#B6B6B6"/>
<path d="M52.696 47.9082C52.696 47.9082 52.7278 48.1331 52.7577 48.4698C52.7865 48.8088 52.7966 49.2586 52.8023 49.708C52.8191 50.154 52.8359 50.6 52.8243 50.9386C52.8142 51.2758 52.7948 51.5059 52.7948 51.5059C52.7948 51.5059 52.7491 51.2847 52.6982 50.9491C52.6488 50.6142 52.6103 50.1611 52.5781 49.7098C52.5882 49.2586 52.5998 48.8092 52.632 48.4717C52.6623 48.1327 52.696 47.9082 52.696 47.9082Z" fill="#B6B6B6"/>
<path d="M52.1556 46.084C52.1556 46.084 52.1874 46.3755 52.2188 46.8144C52.2488 47.2551 52.26 47.8396 52.2678 48.4241C52.26 49.0104 52.2495 49.5952 52.2188 50.0341C52.1889 50.473 52.1556 50.766 52.1556 50.766C52.1556 50.766 52.1227 50.473 52.0924 50.0341C52.0613 49.5952 52.0505 49.0108 52.043 48.4241C52.0505 47.8392 52.0624 47.2551 52.0924 46.8144C52.123 46.3755 52.1556 46.084 52.1556 46.084Z" fill="#B6B6B6"/>
<path d="M52.4509 64.8624C52.4509 64.8624 52.4086 64.4916 52.3637 63.9333C52.3177 63.3754 52.2859 62.6316 52.2578 61.8843C52.2735 61.1382 52.2911 60.3906 52.3282 59.8324C52.3637 59.2719 52.4004 58.8984 52.4004 58.8984C52.4004 58.8984 52.4299 59.2719 52.455 59.8305C52.479 60.3891 52.4827 61.1334 52.4827 61.878C52.495 62.6241 52.504 63.3683 52.4891 63.9284C52.4737 64.4882 52.4509 64.8624 52.4509 64.8624Z" fill="#B6B6B6"/>
<path d="M68.5674 44.2344C70.4282 48.6657 72.6422 54.5155 73.5293 57.8846C73.9031 59.3031 73.6188 59.4786 72.2003 60.3635C71.5806 60.7201 70.9479 60.6321 70.2385 60.2774C69.5294 59.9212 68.1233 56.0216 67.681 54.7808C66.7946 52.388 66.7048 51.8559 64.6191 46.8929L68.5674 44.2344Z" fill="#A37467"/>
<path d="M71.7649 56.2654C71.7649 56.2654 71.5558 56.1341 71.2265 55.9986C71.0682 55.9197 70.8561 55.8879 70.6331 55.8426C70.4082 55.7932 70.1642 55.7689 69.9285 55.7741C69.6883 55.7775 69.4511 55.7809 69.2284 55.8037C69.0088 55.8389 68.8052 55.8774 68.6312 55.9249C68.2855 56.011 68.0625 56.1109 68.0625 56.1109C68.0625 56.1109 68.3031 56.1775 68.6522 56.2112C68.8273 56.2303 69.0316 56.243 69.2475 56.243C69.4615 56.2624 69.6883 56.2673 69.9162 56.2729C70.1481 56.2587 70.3674 56.2744 70.5769 56.2763C70.7876 56.2868 70.9855 56.2606 71.1648 56.2778C71.5195 56.2954 71.7649 56.2654 71.7649 56.2654Z" fill="#77483C"/>
<path d="M48.0807 53.8674C48.0294 52.8699 52.0574 53.7638 52.7908 53.4775C52.4294 52.199 49.3956 52.8733 48.4616 52.4609C47.61 52.1204 48.1945 52.0044 48.7789 51.8869C49.3233 51.7728 49.873 51.6972 50.4627 51.6972C51.6428 51.6602 52.6733 51.7096 53.7704 52.1904C55.9664 53.0963 57.8227 54.81 59.4567 56.5076C60.9051 56.6887 62.3588 56.8833 63.8181 56.8167C66.3374 56.6921 68.9109 55.656 71.4744 56.2356L73.1582 56.5832C73.3475 57.0835 73.59 57.754 73.6266 58.3055C73.6955 59.9593 72.4263 60.5389 71.0478 60.5898C68.9622 60.6475 66.2304 60.1535 64.2008 59.8905C62.6982 59.6727 61.1476 59.2956 59.7063 59.0726C58.8793 59.4677 57.7681 59.529 56.925 59.3603C56.0035 59.1848 54.1337 58.3212 53.907 57.2717C52.7661 57.3469 51.2997 57.7469 50.1712 57.3869C49.207 57.1347 49.9336 56.8623 50.594 56.7007C51.3349 56.5723 52.0791 56.4844 52.7818 56.3598C52.4271 56.3826 48.1926 56.1862 48.4294 55.5789C48.5278 55.2575 50.3448 55.296 50.6206 55.2784C51.3682 55.2683 52.5199 55.3892 52.7553 54.9361C52.7047 54.5888 48.1125 54.4871 48.0807 53.8674Z" fill="#A37467"/>
<path d="M61.887 34.8516C64.5006 35.5644 66.2787 37.5445 67.7043 39.8412C68.734 41.5044 69.2882 43.4052 70.0014 45.2266C70.7142 47.1274 71.5852 48.87 72.1398 50.7708C72.7732 52.7509 76.0207 59.562 73.4071 60.9876C72.2984 61.5421 69.4468 61.3045 68.1006 61.2252C67.2291 61.1458 66.5167 60.6706 65.6452 60.6706C65.2494 60.6706 64.8531 60.9876 64.4572 60.9082C63.9031 60.8289 63.5862 60.3537 63.1899 60.1954C62.3188 59.9578 61.5267 60.2748 60.6556 60.3537C60.418 59.0074 60.2598 57.186 60.2598 55.8393C60.735 55.9186 61.2895 55.8393 61.7643 55.9186C62.0019 55.9976 62.1606 56.4732 62.3978 56.4732C62.794 56.4732 62.873 56.1562 63.1106 56.1562C64.061 56.0769 64.9321 56.1562 65.8825 56.0769C65.8825 55.2848 66.9118 55.3641 67.5457 55.5224C66.9915 54.8889 65.8031 54.4137 66.9915 53.7009C65.4866 52.9088 65.4866 49.8993 64.7738 48.3944C64.061 47.0477 63.1899 45.3056 62.873 43.8007" fill="#A52E2E"/>
<path d="M61.8875 34.8516C62.7141 35.0761 63.5107 35.4285 64.2231 35.9105C64.9393 36.3879 65.5814 36.9716 66.1516 37.6163C66.7271 38.2573 67.2307 38.9589 67.6981 39.681C68.1624 40.4054 68.5486 41.1852 68.8797 41.9788C69.2146 42.7721 69.5038 43.5814 69.8062 44.3818C70.1107 45.1802 70.4243 45.9806 70.7584 46.7656C71.0911 47.5544 71.4357 48.3413 71.7433 49.1465C71.8952 49.5495 72.0475 49.9536 72.1747 50.3667C72.3034 50.785 72.4407 51.1651 72.5971 51.5711C73.2126 53.1681 73.8472 54.7744 74.2592 56.4575C74.4575 57.299 74.6169 58.1622 74.5761 59.0516C74.5514 59.4931 74.4729 59.9492 74.2532 60.3638C74.0429 60.7765 73.65 61.1294 73.2111 61.2596C72.7569 61.4066 72.3326 61.4534 71.8937 61.4908C71.4585 61.5245 71.0252 61.5305 70.5931 61.5264C69.7242 61.517 68.8793 61.4665 68.0049 61.4007C67.102 61.2903 66.323 60.7967 65.5477 60.8596C65.3786 60.8824 65.1814 60.9704 64.9625 61.0373C64.8517 61.0703 64.7301 61.0987 64.5969 61.0994C64.5337 61.1006 64.4547 61.0901 64.4027 61.0796C64.3537 61.0718 64.2957 61.0587 64.228 61.0377C63.7457 60.8865 63.4482 60.4918 63.1257 60.359L63.1444 60.3653C62.7624 60.2587 62.3556 60.268 61.9448 60.3283C61.5332 60.3866 61.1123 60.4851 60.6715 60.5243L60.5113 60.5386L60.4889 60.3844L60.3239 59.254L60.2053 58.1199L60.1289 56.9824C60.1155 56.6023 60.1091 56.2213 60.099 55.8408L60.0938 55.6496L60.2864 55.6822C60.7489 55.7596 61.2574 55.6803 61.7906 55.7645L61.8063 55.7667L61.8146 55.7705C62.0286 55.8603 62.096 56.0021 62.1858 56.1068C62.2617 56.2139 62.3631 56.3242 62.3934 56.3194C62.3867 56.322 62.4271 56.3198 62.4623 56.3179C62.4832 56.3134 62.5042 56.3119 62.53 56.304C62.5786 56.2902 62.6232 56.2681 62.6707 56.2352C62.7182 56.2026 62.7668 56.1589 62.8323 56.1098C62.8967 56.0616 63 56.0077 63.1115 56.0088L63.0991 56.0092L63.8007 55.9785L64.4974 55.9774L65.1877 55.9763L65.8725 55.9467L65.7513 56.0784C65.7486 55.8876 65.8194 55.662 65.9847 55.525C66.1453 55.3869 66.3398 55.3346 66.5202 55.311C66.8857 55.2694 67.2363 55.3241 67.5757 55.4075L67.4564 55.6028C67.2008 55.3065 66.8461 55.0876 66.558 54.7501C66.4887 54.6625 66.4199 54.5638 66.3888 54.4373C66.3544 54.3119 66.3787 54.166 66.442 54.0597C66.5688 53.8446 66.7578 53.7245 66.9381 53.6119L66.9434 53.7952C66.5131 53.5647 66.2156 53.167 66.0061 52.7576C65.7935 52.3442 65.6558 51.9041 65.538 51.4641C65.3015 50.5841 65.1687 49.6842 64.8884 48.8299C64.8169 48.6148 64.732 48.415 64.6235 48.214L64.3182 47.6064C64.1169 47.2004 63.9238 46.7899 63.7427 46.3739C63.648 46.1677 63.5668 45.9559 63.4808 45.7464C63.3917 45.538 63.3221 45.3217 63.2432 45.1091C63.092 44.6815 62.9719 44.2437 62.8742 43.8018C62.9816 44.2422 63.1103 44.6759 63.2701 45.0994C63.3535 45.3101 63.4273 45.5237 63.5208 45.7299C63.611 45.9376 63.6967 46.1467 63.7951 46.3503C63.984 46.7611 64.1857 47.1667 64.3949 47.5671L64.7122 48.1673C64.8233 48.3622 64.921 48.5781 64.9965 48.7918C65.3 49.6554 65.4512 50.5537 65.7037 51.4181C65.8298 51.8491 65.9728 52.2764 66.1786 52.6674C66.3829 53.0558 66.6624 53.4121 67.0414 53.6085L67.2053 53.6934L67.0466 53.7922C66.8809 53.8955 66.7144 54.0171 66.6335 54.1634C66.5475 54.3052 66.6085 54.4601 66.732 54.6068C66.9823 54.8979 67.346 55.1198 67.6371 55.4446L67.8915 55.7286L67.5181 55.6399C67.1993 55.5643 66.8648 55.5201 66.5539 55.5602C66.4001 55.5811 66.2534 55.6298 66.1561 55.7177C66.0569 55.803 66.015 55.9317 66.0158 56.0777L66.0162 56.2023L65.8946 56.209L65.1941 56.2479L64.4978 56.2573L63.8074 56.2666L63.1242 56.3044L63.1118 56.3048C63.083 56.3063 63.0561 56.3164 63.0101 56.3501C62.9648 56.3837 62.9105 56.4339 62.845 56.4806C62.7796 56.5278 62.6999 56.5704 62.6157 56.5948C62.5749 56.6079 62.5274 56.6157 62.4799 56.6217C62.4458 56.6221 62.4166 56.6314 62.3414 56.6202C62.2134 56.5959 62.1409 56.5241 62.0836 56.4676C62.0267 56.4084 61.9826 56.3501 61.9395 56.2951C61.8595 56.1877 61.7659 56.0814 61.7158 56.0687L61.7397 56.0747C61.2761 55.9991 60.7688 56.0807 60.2344 55.9983L60.4219 55.8397C60.4335 56.215 60.441 56.5899 60.4556 56.9652L60.5353 58.0903L60.6569 59.2117L60.8238 60.3249L60.6412 60.1853C61.0513 60.1479 61.4636 60.0503 61.8961 59.9863C62.3264 59.9212 62.7923 59.9047 63.2368 60.0274L63.2477 60.0304L63.2559 60.0338C63.4965 60.1341 63.6634 60.2875 63.8314 60.4113C63.996 60.5386 64.1614 60.6448 64.332 60.6983C64.527 60.7563 64.6639 60.7593 64.8603 60.6953C65.0512 60.6396 65.2476 60.5423 65.5047 60.5026C66.4779 60.4394 67.2476 60.9569 68.0494 61.0336C68.885 61.0901 69.7523 61.1458 70.5983 61.1586C71.0234 61.1642 71.448 61.1597 71.8679 61.129C72.2821 61.0987 72.7157 61.0422 73.0794 60.9273C73.4667 60.8128 73.7586 60.543 73.9427 60.1981C74.1282 59.8527 74.2053 59.4434 74.2296 59.0325C74.2719 58.2045 74.1238 57.3607 73.9318 56.5372C73.5341 54.8837 72.9118 53.2875 72.3012 51.6849C72.1492 51.2909 71.9988 50.8628 71.8817 50.4598C71.7616 50.052 71.616 49.6512 71.4701 49.2509C71.1749 48.4505 70.8411 47.6621 70.5167 46.8674C70.1886 46.0708 69.8862 45.2708 69.5891 44.4637C69.2954 43.6566 69.0163 42.8473 68.6938 42.0566C68.3716 41.2656 68.0071 40.4986 67.5634 39.7671C67.1147 39.0408 66.6294 38.3347 66.0723 37.6874C65.5204 37.0364 64.8959 36.4448 64.1943 35.9554C63.4946 35.4611 62.71 35.0937 61.8875 34.8516Z" fill="#800302"/>
<path d="M67.5742 56.3679C68.0419 56.9759 70.287 59.221 71.1289 58.9871C72.2982 58.6597 68.9306 56.2276 68.5097 55.8066C69.5386 55.9937 70.6611 55.947 71.6434 56.134" fill="#A52E2E"/>
<path d="M67.5742 56.368C68.0958 56.9146 68.6717 57.4026 69.2516 57.874C69.5461 58.1041 69.8488 58.3234 70.1643 58.509C70.3222 58.6007 70.4815 58.6882 70.6432 58.7496C70.7962 58.8166 70.9859 58.8356 71.0683 58.8218C71.1857 58.7784 71.1723 58.7668 71.1872 58.7496C71.1951 58.7361 71.1973 58.6811 71.1659 58.6115C71.1135 58.4753 71.0031 58.3268 70.8901 58.1902C70.6555 57.9163 70.3884 57.6562 70.1145 57.404C69.8398 57.1522 69.5536 56.9098 69.2689 56.6643L68.8374 56.2987C68.6915 56.1749 68.5516 56.0589 68.4053 55.9103L68.085 55.5859L68.5355 55.6611L69.3018 55.7891L70.0823 55.8748L70.8666 55.9773C71.1274 56.0233 71.3863 56.078 71.6426 56.1337C71.3784 56.1195 71.1173 56.0993 70.8568 56.0791L70.0696 56.0626L69.2786 56.0297L68.4823 55.9511L68.6129 55.7023C68.7405 55.8138 68.898 55.9309 69.0425 56.0477L69.4874 56.399C69.7848 56.6332 70.0756 56.8783 70.3599 57.1324C70.6439 57.3876 70.9234 57.651 71.1738 57.9556C71.2969 58.1112 71.4204 58.2673 71.5045 58.4843C71.5442 58.5857 71.5831 58.7339 71.515 58.8951C71.4518 59.0545 71.2546 59.1357 71.1958 59.1492C71.0406 59.178 70.9324 59.181 70.8228 59.1526C70.7087 59.1372 70.617 59.0942 70.5197 59.0579C70.3323 58.9774 70.1613 58.8794 69.9992 58.7709C69.6782 58.5516 69.3845 58.3062 69.1001 58.0521C68.8172 57.7973 68.5459 57.5301 68.2923 57.2476C68.0397 56.967 67.7867 56.6815 67.5742 56.368Z" fill="#800302"/>
<path d="M71.691 54.6379C70.4281 54.6379 69.1185 54.9654 67.9492 54.3105L71.691 54.6379Z" fill="#A52E2E"/>
<path d="M71.691 54.6379C71.691 54.6379 71.4534 54.7031 71.0998 54.7648C70.9239 54.7992 70.7211 54.831 70.4962 54.8576C70.2747 54.8898 70.0304 54.8954 69.7883 54.9066C69.6656 54.8999 69.5428 54.8931 69.422 54.8868C69.3015 54.8872 69.1829 54.8538 69.0687 54.8344C68.955 54.8093 68.8439 54.7977 68.744 54.7536C68.6429 54.7176 68.549 54.6791 68.4641 54.6432C68.2912 54.5781 68.1711 54.467 68.0821 54.4116C67.9956 54.3487 67.9492 54.3105 67.9492 54.3105C67.9492 54.3105 68.0095 54.3229 68.1146 54.345C68.2205 54.3614 68.3548 54.4194 68.5296 54.4389C68.6164 54.4505 68.7092 54.4632 68.8053 54.4815C68.9 54.5051 69.0085 54.4939 69.114 54.5085C69.3258 54.5321 69.5585 54.5257 69.7883 54.5332C70.253 54.5287 70.7278 54.5238 71.0923 54.5515C71.4522 54.5781 71.691 54.6379 71.691 54.6379Z" fill="#800302"/>
</svg>
