<svg width="147" height="50" viewBox="0 0 147 50" fill="none" xmlns="http://www.w3.org/2000/svg">
<g clip-path="url(#clip0_10524_1243)">
<path d="M21.9347 42.4462C22.0259 43.5778 22.3487 44.5597 22.8621 45.5173L24.4562 48.4875C25.3779 48.8882 26.0853 47.9868 27.2719 48.1542C27.919 48.2461 28.4096 47.9827 28.9768 47.7998C30.1153 47.4332 30.9833 46.7951 31.7526 45.8855C32.1609 45.4027 32.4877 44.9629 32.5301 44.2614C32.6466 42.3373 34.2872 43.0039 34.2815 42.0105L34.2717 40.3474C34.2684 39.8085 34.4754 39.3297 34.8894 38.9834C35.3776 38.5753 35.8421 38.0771 36.4795 37.9047C35.8959 38.5209 35.006 38.907 34.7737 39.7695C34.4542 40.9579 35.7011 42.7429 34.1234 43.3225C32.8015 43.8078 33.9392 44.8507 32.8382 46.2123C32.3206 46.852 31.8757 47.5072 31.2791 48.0998C30.3672 49.0053 29.0665 49.5475 27.7902 49.6962C27.3151 49.7515 26.8791 49.5751 26.4406 49.7353C25.2597 50.1669 23.6005 50.2084 23.0821 48.7907C22.7203 47.7998 22.3234 46.865 21.8067 45.9367C21.3756 45.162 21.105 44.3654 20.8711 43.5095L20.2835 41.3545C20.0097 40.349 19.493 39.5256 18.8696 38.7038C17.7783 37.2642 19.2322 35.1515 19.8573 33.9127C20.0415 33.5485 19.8092 33.1202 19.7237 32.7576L19.1116 30.1824C19.0546 29.9418 18.8345 29.6354 18.6666 29.4582L17.3733 28.0933C17.1964 27.9064 17.2787 27.5585 17.1801 27.3195C16.5632 25.8262 17.8313 24.4403 17.4947 23.8802C17.2844 23.5299 16.4548 24.0932 15.8273 24.0387C15.0751 23.9729 14.5567 23.347 14.3448 22.6422C13.0083 22.4439 12.5128 23.1348 11.2781 23.673C9.73293 24.346 8.86173 23.1235 7.71995 23.5648C6.36873 24.0875 5.90583 22.9893 5.33535 22.8796C5.06478 22.8276 4.92786 22.7365 4.69722 22.5935C4.15201 22.2561 3.53344 22.0399 3.1064 21.5367C2.79508 21.1701 2.75352 20.4971 2.35418 20.2207L0.94999 19.6444C-0.109471 19.2095 -0.0630195 16.5205 0.0673758 16.0303C0.417813 14.7118 1.29798 14.7338 0.576732 13.3487C-0.460725 11.3579 1.4732 9.88908 1.71688 8.83478C1.985 7.67563 2.83176 6.73595 3.97598 6.41405C4.90178 6.15393 4.74612 4.92649 5.32475 4.04615C5.8553 3.23978 6.82267 2.94308 7.50317 2.01397C7.80552 1.60103 8.32792 1.48398 8.80141 1.71808C10.3702 2.49275 9.96764 1.57176 11.7834 0.882448C12.8551 0.476012 14.2365 0.00373363 15.3644 0.375216C16.9462 -0.0702377 18.5786 -0.15071 20.1629 0.306124L19.5835 1.46853C20.0064 2.07249 20.1295 2.76993 19.7538 3.40967C20.2558 3.92828 21.8173 3.48527 22.3658 4.36399C22.5703 4.69239 22.6991 4.7631 23.1253 4.8891L24.237 5.2175C24.2125 4.68995 24.4594 4.26563 24.9061 4.01852C25.5295 3.67467 26.2605 3.79334 26.8701 4.151C27.7902 4.69075 28.7437 5.12402 29.7616 5.42396C30.3786 5.60605 30.8912 5.52395 31.4861 5.12808C30.8708 6.41729 27.2515 4.85577 26.1741 4.42251C25.7495 4.25181 25.0332 4.42251 24.9729 4.88422C24.9126 5.34593 24.9737 5.61662 24.6347 5.8743C24.3616 6.08158 23.9982 6.14904 23.6388 5.93932C23.0284 5.58329 22.096 6.31081 21.6013 5.27927C21.2672 4.58264 19.7823 5.16223 18.5623 4.251C18.4246 4.14776 18.308 3.8031 18.1695 3.67954C18.1597 3.56412 18.4914 2.37245 18.5697 2.49357C18.4482 2.30579 17.8427 2.2562 18.0179 1.56038C17.2567 1.55875 16.6145 1.77011 15.9422 1.98389C15.1068 2.24889 15.2087 1.57502 14.3481 1.71808C13.4818 1.86196 12.7239 2.24808 11.9293 2.54315C11.5731 2.67565 11.4061 2.82196 11.1371 3.0894C10.4436 3.77953 9.33766 3.60557 8.51047 3.05525C7.69224 4.46477 7.27416 3.77221 6.42985 5.20205C6.15358 5.67027 6.03296 6.08321 5.93353 6.62783C5.80803 7.31309 5.04196 7.79268 4.39895 7.91379C3.66384 8.05198 3.44543 8.4633 3.31666 9.13798C3.17649 9.87119 2.67121 10.567 2.26209 11.1653C1.88476 11.7172 1.88313 12.1497 2.11051 12.7423C2.46339 13.6616 2.53348 14.7492 2.09502 15.6345C1.96381 15.8986 1.63293 16.0173 1.63945 16.3644C1.64842 16.831 1.65494 17.3204 1.61338 17.7959C1.53351 18.7039 2.80568 18.6461 3.16182 19.0071C3.76082 19.8443 3.6125 20.1231 4.14386 20.6035C5.51138 21.8407 4.61736 20.5101 6.1601 21.8456C7.1454 22.6983 7.07286 21.8432 8.42571 21.8919C9.05487 21.9147 9.58134 22.2829 10.1966 22.3496C11.7003 21.8724 12.0034 21.1652 13.5299 21.1433C14.1012 21.1352 14.6855 20.9742 15.2128 21.2986C15.6985 21.5977 15.89 22.1504 16.093 22.6983C16.8998 22.3976 17.7856 22.1586 18.4735 22.6658C19.2942 23.2714 18.8606 24.8776 18.5697 25.6889C18.3773 26.2246 18.546 26.6237 18.7147 27.0968C18.925 27.6861 19.2493 28.0113 19.678 28.4453C19.9983 28.7697 20.18 29.3094 20.449 29.7012C20.6764 30.0329 20.5337 30.5157 20.6397 30.8921C21.0349 32.3024 21.5361 33.5713 20.8206 34.7914L19.6984 36.7049C18.718 38.377 20.9583 37.8738 21.5313 41.0416C21.6136 41.4984 21.8955 41.9293 21.9371 42.4438L21.9347 42.4462Z" fill="#DF8931"/>
<path d="M28.3896 9.5918H31.3048V24.3406H28.3896V9.5918Z" fill="white"/>
<path d="M42.6063 9.5918H45.5215V24.3406H43.3031L36.9659 15.3225V24.3406H34.0508V9.5918H36.2667L42.6063 18.5765V9.5918Z" fill="white"/>
<path d="M58.047 9.5918V12.3726H54.0545V24.3406H51.1393V12.3726H47.168V9.5918H58.047Z" fill="white"/>
<path d="M85.2359 24.3406L84.2954 21.6857H78.2214L77.3339 24.3406H74.1865L79.3616 9.5918H82.9735L88.1902 24.3406H85.2351H85.2359ZM79.1709 18.9675H83.3329L81.1993 12.9416L79.1717 18.9675H79.1709Z" fill="white"/>
<path d="M98.4572 12.3734H92.5421V15.8712H98.2876V18.6521H92.5421V24.3406H89.627V9.5918H98.4572V12.3726V12.3734Z" fill="white"/>
<path d="M108.703 24.3406L105.714 19.2203H103.506V24.3406H100.591V9.5918H106.506C107.872 9.5918 109.033 10.0698 109.992 11.0249C110.949 11.98 111.428 13.1319 111.428 14.4804C111.428 15.3933 111.168 16.2395 110.647 17.019C110.126 17.7986 109.436 18.3846 108.577 18.7781L111.85 24.3406H108.703ZM103.506 12.31V16.6711H106.506C107.055 16.6711 107.527 16.4573 107.921 16.0281C108.316 15.5997 108.513 15.0836 108.513 14.4796C108.513 13.8756 108.316 13.3627 107.921 12.9416C107.527 12.5206 107.055 12.3092 106.506 12.3092H103.506V12.31Z" fill="white"/>
<path d="M113.562 9.5918H116.477V24.3406H113.562V9.5918Z" fill="white"/>
<path d="M126.236 24.6358C124.01 24.6358 122.173 23.8985 120.723 22.4231C119.272 20.9486 118.547 19.1294 118.547 16.9663C118.547 14.8033 119.272 12.967 120.723 11.4989C122.174 10.0317 124.011 9.29688 126.236 9.29688C127.573 9.29688 128.81 9.60983 129.943 10.2341C131.077 10.8592 131.96 11.7054 132.595 12.7727L130.08 14.2269C129.714 13.5669 129.193 13.0507 128.517 12.6784C127.842 12.3061 127.08 12.12 126.236 12.12C124.799 12.12 123.641 12.5695 122.761 13.4685C121.881 14.3676 121.441 15.5332 121.441 16.9663C121.441 18.3994 121.881 19.5439 122.761 20.443C123.641 21.342 124.799 21.7915 126.236 21.7915C127.081 21.7915 127.845 21.6054 128.528 21.2331C129.211 20.8608 129.728 20.3519 130.08 19.7057L132.595 21.1599C131.96 22.2272 131.08 23.0743 129.954 23.6985C128.827 24.3236 127.588 24.6358 126.236 24.6358Z" fill="white"/>
<path d="M144.046 24.3406L143.106 21.6857H137.032L136.144 24.3406H132.997L138.172 9.5918H141.784L147.001 24.3406H144.046H144.046ZM137.981 18.9675H142.143L140.01 12.9416L137.982 18.9675H137.981Z" fill="white"/>
<path d="M28.9629 35.6278V28.5469H30.2171V35.6278H28.9629Z" fill="#93CC5A"/>
<path d="M32.4252 33.7169C32.5939 34.3249 33.0511 34.6289 33.7968 34.6289C34.2768 34.6289 34.6395 34.4671 34.8856 34.1436L35.897 34.7256C35.417 35.4174 34.7104 35.7637 33.7773 35.7637C32.9729 35.7637 32.3282 35.5214 31.8417 35.0362C31.3552 34.5509 31.1123 33.9404 31.1123 33.2031C31.1123 32.4659 31.3519 31.8627 31.8319 31.375C32.3119 30.8864 32.9272 30.6426 33.6795 30.6426C34.3926 30.6426 34.981 30.8881 35.4447 31.3799C35.9084 31.8716 36.1399 32.4789 36.1399 33.2031C36.1399 33.3649 36.1236 33.5364 36.091 33.7169H32.4244H32.4252ZM32.4057 32.7471H34.8856C34.8139 32.4171 34.6672 32.1716 34.4431 32.0098C34.2198 31.8481 33.9647 31.7676 33.6795 31.7676C33.3421 31.7676 33.0633 31.8538 32.8433 32.0245C32.6224 32.196 32.4766 32.4366 32.4057 32.7471Z" fill="#93CC5A"/>
<path d="M40.6999 30.7772H41.9256V35.3943C41.9256 36.1446 41.6778 36.7169 41.1815 37.1111C40.6852 37.5053 40.0878 37.7029 39.387 37.7029C38.8621 37.7029 38.4 37.6029 38.0015 37.4021C37.603 37.2013 37.2966 36.9071 37.0822 36.5193L38.1523 35.908C38.3984 36.3608 38.823 36.5868 39.4261 36.5868C39.8213 36.5868 40.1327 36.4836 40.36 36.2763C40.5866 36.069 40.7007 35.7747 40.7007 35.3935V34.87C40.3315 35.3618 39.8124 35.6073 39.1449 35.6073C38.4774 35.6073 37.8825 35.3667 37.4188 34.8846C36.9551 34.4034 36.7236 33.8165 36.7236 33.124C36.7236 32.4314 36.9567 31.8534 37.4237 31.3682C37.8907 30.8829 38.4644 30.6406 39.1449 30.6406C39.8254 30.6406 40.3315 30.8861 40.7007 31.3779V30.7764L40.6999 30.7772ZM38.3617 34.0799C38.6176 34.3286 38.9436 34.453 39.3389 34.453C39.7341 34.453 40.0601 34.3286 40.316 34.0799C40.5719 33.8312 40.6999 33.5125 40.6999 33.1248C40.6999 32.737 40.5719 32.4281 40.316 32.1794C40.0601 31.9307 39.7341 31.8063 39.3389 31.8063C38.9436 31.8063 38.6176 31.9307 38.3617 32.1794C38.1058 32.4281 37.9779 32.7435 37.9779 33.1248C37.9779 33.506 38.1058 33.8312 38.3617 34.0799Z" fill="#93CC5A"/>
<path d="M46.7583 30.7783H48.0125V35.6279H46.7583V35.0557C46.3826 35.5279 45.8536 35.7637 45.1731 35.7637C44.4926 35.7637 43.9686 35.5166 43.5057 35.0215C43.042 34.5265 42.8105 33.9209 42.8105 33.2031C42.8105 32.4854 43.042 31.879 43.5057 31.3847C43.9694 30.8897 44.5252 30.6426 45.1731 30.6426C45.8536 30.6426 46.3826 30.8791 46.7583 31.3506V30.7783ZM44.4438 34.1883C44.6964 34.4436 45.0175 34.5712 45.4062 34.5712C45.795 34.5712 46.1177 34.4436 46.3736 34.1883C46.6295 33.9331 46.7575 33.6047 46.7575 33.2039C46.7575 32.8032 46.6295 32.4748 46.3736 32.2196C46.1177 31.9643 45.795 31.8367 45.4062 31.8367C45.0175 31.8367 44.6964 31.9643 44.4438 32.2196C44.1911 32.4748 44.0648 32.8032 44.0648 33.2039C44.0648 33.6047 44.1911 33.9331 44.4438 34.1883Z" fill="#93CC5A"/>
<path d="M51.4656 35.7637C50.7329 35.7637 50.1217 35.5182 49.6327 35.0264C49.1429 34.5354 48.8984 33.9274 48.8984 33.2031C48.8984 32.4789 49.1429 31.8708 49.6327 31.3799C50.1217 30.8889 50.7329 30.6426 51.4656 30.6426C51.9391 30.6426 52.3702 30.7556 52.759 30.9824C53.1477 31.2092 53.4427 31.5124 53.644 31.8944L52.5642 32.5252C52.4672 32.3252 52.3197 32.1659 52.1216 32.0497C51.9236 31.9334 51.7019 31.8749 51.4558 31.8749C51.0801 31.8749 50.7688 31.9993 50.5219 32.248C50.2757 32.4967 50.1527 32.8154 50.1527 33.2031C50.1527 33.5909 50.2757 33.8998 50.5219 34.1485C50.768 34.3972 51.0793 34.5216 51.4558 34.5216C51.7085 34.5216 51.9342 34.4647 52.1314 34.3517C52.3286 34.2387 52.477 34.0818 52.574 33.8811L53.6636 34.5021C53.4492 34.8833 53.1477 35.189 52.759 35.419C52.3702 35.6482 51.9391 35.7637 51.4656 35.7637Z" fill="#93CC5A"/>
<path d="M57.533 30.7773H58.8752L57.1027 35.6351C56.85 36.3276 56.5143 36.8308 56.097 37.1446C55.6797 37.4583 55.1598 37.599 54.538 37.5673V36.4032C54.8746 36.4097 55.1427 36.3382 55.3399 36.1903C55.5379 36.0415 55.6952 35.8025 55.8118 35.4725L53.8184 30.7782H55.1891L56.4572 34.0378L57.533 30.7782V30.7773Z" fill="#93CC5A"/>
<path d="M62.5226 30.1955C62.3148 30.1955 62.1355 30.1199 61.9831 29.9679C61.8307 29.8159 61.7549 29.6362 61.7549 29.4298C61.7549 29.2233 61.8307 29.042 61.9831 28.8868C62.1355 28.7315 62.3156 28.6543 62.5226 28.6543C62.7296 28.6543 62.9195 28.7323 63.0719 28.8868C63.2243 29.042 63.3001 29.2233 63.3001 29.4298C63.3001 29.6362 63.2235 29.8159 63.0719 29.9679C62.9203 30.1199 62.7361 30.1955 62.5226 30.1955ZM61.8999 35.6279V30.7783H63.1542V35.6279H61.8999Z" fill="#93CC5A"/>
<path d="M67.006 30.6426C67.5373 30.6426 67.9766 30.8206 68.3238 31.1758C68.6702 31.5319 68.8437 32.0228 68.8437 32.6504V35.6279H67.5895V32.8056C67.5895 32.4821 67.5023 32.235 67.3271 32.0635C67.1519 31.892 66.9188 31.8066 66.627 31.8066C66.3027 31.8066 66.0435 31.9066 65.8487 32.1074C65.654 32.3082 65.557 32.6089 65.557 33.0097V35.6287H64.3027V30.7791H65.557V31.3221C65.8618 30.8694 66.345 30.6434 67.006 30.6434V30.6426Z" fill="#93CC5A"/>
<path d="M70.5353 30.1955C70.3275 30.1955 70.1482 30.1199 69.9958 29.9679C69.8434 29.8159 69.7676 29.6362 69.7676 29.4298C69.7676 29.2233 69.8434 29.042 69.9958 28.8868C70.1482 28.7315 70.3283 28.6543 70.5353 28.6543C70.7423 28.6543 70.9322 28.7323 71.0846 28.8868C71.237 29.042 71.3128 29.2233 71.3128 29.4298C71.3128 29.6362 71.2362 29.8159 71.0846 29.9679C70.933 30.1199 70.7488 30.1955 70.5353 30.1955ZM69.9135 35.6279V30.7783H71.1677V35.6279H69.9135Z" fill="#93CC5A"/>
<path d="M75.0972 31.9805H73.9986V33.998C73.9986 34.1663 74.041 34.289 74.1249 34.3662C74.2089 34.4443 74.3319 34.4874 74.4941 34.4971C74.6563 34.5069 74.8568 34.5052 75.0972 34.4922V35.627C74.235 35.7237 73.627 35.6433 73.2741 35.3848C72.9204 35.1263 72.7444 34.6638 72.7444 33.998V31.9805H71.8984V30.7774H72.7444V29.7979L73.9986 29.4199V30.7782H75.0972V31.9813V31.9805Z" fill="#93CC5A"/>
<path d="M76.6036 30.1955C76.3958 30.1955 76.2165 30.1199 76.0641 29.9679C75.9117 29.8159 75.8359 29.6362 75.8359 29.4298C75.8359 29.2233 75.9117 29.042 76.0641 28.8868C76.2165 28.7315 76.3966 28.6543 76.6036 28.6543C76.8106 28.6543 77.0005 28.7323 77.1529 28.8868C77.3053 29.042 77.3811 29.2233 77.3811 29.4298C77.3811 29.6362 77.3045 29.8159 77.1529 29.9679C77.0013 30.1199 76.8172 30.1955 76.6036 30.1955ZM75.981 35.6279V30.7783H77.2352V35.6279H75.981Z" fill="#93CC5A"/>
<path d="M82.0786 30.7783H83.3328V35.6279H82.0786V35.0557C81.7021 35.5279 81.174 35.7637 80.4935 35.7637C79.813 35.7637 79.2889 35.5166 78.826 35.0215C78.3623 34.5265 78.1309 33.9209 78.1309 33.2031C78.1309 32.4854 78.3623 31.879 78.826 31.3847C79.2898 30.8897 79.8456 30.6426 80.4935 30.6426C81.174 30.6426 81.7021 30.8791 82.0786 31.3506V30.7783ZM79.7641 34.1883C80.0167 34.4436 80.3378 34.5712 80.7265 34.5712C81.1153 34.5712 81.438 34.4436 81.6939 34.1883C81.9498 33.9331 82.0778 33.6047 82.0778 33.2039C82.0778 32.8032 81.9498 32.4748 81.6939 32.2196C81.438 31.9643 81.1153 31.8367 80.7265 31.8367C80.3378 31.8367 80.0167 31.9643 79.7641 32.2196C79.5114 32.4748 79.3851 32.8032 79.3851 33.2039C79.3851 33.6047 79.5114 33.9331 79.7641 34.1883Z" fill="#93CC5A"/>
<path d="M87.2525 31.9805H86.1539V33.998C86.1539 34.1663 86.1963 34.289 86.2802 34.3662C86.3641 34.4443 86.4872 34.4874 86.6494 34.4971C86.8116 34.5069 87.0121 34.5052 87.2525 34.4922V35.627C86.3902 35.7237 85.7823 35.6433 85.4294 35.3848C85.0757 35.1263 84.8997 34.6638 84.8997 33.998V31.9805H84.0537V30.7774H84.8997V29.7979L86.1539 29.4199V30.7782H87.2525V31.9813V31.9805Z" fill="#93CC5A"/>
<path d="M88.7599 30.1955C88.5521 30.1955 88.3728 30.1199 88.2204 29.9679C88.068 29.8159 87.9922 29.6362 87.9922 29.4298C87.9922 29.2233 88.068 29.042 88.2204 28.8868C88.3728 28.7315 88.5529 28.6543 88.7599 28.6543C88.9669 28.6543 89.1568 28.7323 89.3092 28.8868C89.4616 29.042 89.5374 29.2233 89.5374 29.4298C89.5374 29.6362 89.4608 29.8159 89.3092 29.9679C89.1576 30.1199 88.9734 30.1955 88.7599 30.1955ZM88.1373 35.6279V30.7783H89.3915V35.6279H88.1373Z" fill="#93CC5A"/>
<path d="M93.7381 30.7773H95.1187L93.2711 35.6269H91.8417L89.9941 30.7773H91.3747L92.5531 34.1711L93.7373 30.7773H93.7381Z" fill="#93CC5A"/>
<path d="M96.5883 33.7169C96.757 34.3249 97.2142 34.6289 97.9599 34.6289C98.4399 34.6289 98.8026 34.4671 99.0487 34.1436L100.06 34.7256C99.5801 35.4174 98.8735 35.7637 97.9404 35.7637C97.1368 35.7637 96.4913 35.5214 96.0048 35.0362C95.5183 34.5509 95.2754 33.9404 95.2754 33.2031C95.2754 32.4659 95.515 31.8627 95.995 31.375C96.475 30.8864 97.0903 30.6426 97.8425 30.6426C98.5556 30.6426 99.1441 30.8881 99.6078 31.3799C100.071 31.8716 100.303 32.4789 100.303 33.2031C100.303 33.3649 100.287 33.5364 100.254 33.7169H96.5875H96.5883ZM96.5687 32.7471H99.0487C98.977 32.4171 98.8303 32.1716 98.6062 32.0098C98.3829 31.8481 98.1278 31.7676 97.8425 31.7676C97.5051 31.7676 97.2264 31.8538 97.0064 32.0245C96.7855 32.196 96.6397 32.4366 96.5687 32.7471Z" fill="#93CC5A"/>
<path d="M73.2356 18.9058C73.3977 18.2864 73.4841 17.6361 73.4841 16.9663C73.4841 14.9862 72.7319 13.1816 71.4964 11.8208L69.3767 11.6461L71.3016 11.6152C71.1867 11.4973 71.0677 11.3827 70.9447 11.2722L65.9334 11.5412L70.2642 10.7251C69.005 9.82606 67.4615 9.29688 65.7949 9.29688C63.3948 9.29688 61.2522 10.3934 59.8423 12.1119C61.5961 12.0688 64.1698 12.0224 64.1698 12.0224L59.4642 12.6134C59.3313 12.8052 59.2067 13.0036 59.0917 13.2084L60.8953 13.2377L58.897 13.5775C58.3909 14.5992 58.1064 15.7503 58.1064 16.9671C58.1064 17.7768 58.2328 18.5571 58.4658 19.2895L62.3524 19.4334L58.5865 19.6382C58.6614 19.8398 58.7454 20.0374 58.8367 20.2308L60.6043 20.1414L58.9882 20.534C60.2751 22.9726 62.8406 24.6358 65.7957 24.6358C69.2137 24.6358 72.1109 22.4109 73.1109 19.3342L68.7736 19.3781L73.2372 18.9058H73.2356Z" fill="#F49F1B"/>
<path d="M68.2221 23.6606C69.3535 22.532 69.3535 20.7023 68.2221 19.5738C67.0907 18.4453 65.2563 18.4453 64.1248 19.5738C62.9934 20.7023 62.9934 22.532 64.1248 23.6606C65.2563 24.7891 67.0907 24.7891 68.2221 23.6606Z" fill="#FFD877"/>
<path d="M71.5548 17.5109C71.4871 17.1939 71.2858 17.1841 71.0454 17.0931C71.047 17.0589 71.0364 17.0175 71.0397 16.9841C70.9427 16.9549 70.642 16.8459 70.7341 16.6972C70.8091 16.5761 70.9843 16.6972 71.0813 16.598C71.1815 16.4948 71.2329 15.968 71.1147 15.8567C71.0079 15.7567 70.8898 15.855 70.7814 15.8485C70.4733 15.8315 70.6249 15.8542 70.5206 15.5226C70.4489 15.295 70.2418 15.2169 70.1196 15.0389C70.0544 14.9438 70.1571 14.604 69.8466 14.8243C69.9289 14.6731 69.6991 14.4439 69.5442 14.4398C69.4823 14.665 69.2851 14.7723 69.087 14.9284C68.9909 14.4764 68.6486 14.687 68.4831 14.3496C68.2941 14.3642 68.0585 14.187 67.8752 14.2569C67.7309 14.3122 67.6559 14.4829 67.5125 14.5723C67.3194 14.6935 67.224 14.7211 67.0423 14.6008C66.9803 14.5601 66.7098 14.309 66.6666 14.2431C66.5492 14.0627 66.5712 13.7765 66.2754 13.7773C66.0219 13.7773 65.9062 13.9895 65.6283 13.8806C65.5957 14.1578 65.0277 13.9147 64.859 14.2447C64.7367 14.4845 64.9291 14.5065 64.687 14.6268C64.5729 14.6837 64.4067 14.6512 64.2673 14.6853C64.185 14.7056 64.0106 14.7853 63.9218 14.7731C63.6781 14.7406 63.5941 14.4366 63.3325 14.4098C63.1565 14.3919 63.1899 14.3488 63.0677 14.5414C63.0147 14.6244 63.1337 14.8544 62.7759 14.778C62.5469 14.7284 62.4833 14.7601 62.5045 14.982C62.5257 15.2039 62.1321 14.9487 62.1435 15.3031C62.1451 15.3527 62.1541 15.4315 62.1663 15.4771C62.0587 15.4494 62.0253 15.5242 62.0343 15.6364C61.9055 15.5364 61.8224 15.6307 61.8509 15.7762C61.6757 15.6469 61.5975 15.8103 61.5184 15.9526C61.388 15.8307 61.3139 15.6746 61.225 15.5421C61.2307 15.5681 61.2389 15.5868 61.2397 15.6112C61.0987 15.4998 60.8037 15.4543 60.8509 15.7201C60.7483 15.7299 60.4752 15.6486 60.41 15.7291C60.2845 15.8819 60.5315 16.0607 60.6635 16.064C60.3929 16.1883 60.7841 16.7053 60.353 16.65C60.4475 16.133 59.9031 16.6346 59.7752 16.776C59.5837 16.9874 59.4256 17.4499 59.8404 17.1573C59.811 17.519 60.2316 17.0752 60.3261 17.0727C60.5323 17.0679 60.6937 17.3938 60.9064 17.0825C61.0351 17.4873 61.0865 17.3515 61.3269 17.1678C61.5005 17.3036 61.5608 17.6385 61.7865 17.719C61.833 17.7352 62.2282 17.7385 62.2885 17.7198C62.5159 17.6491 62.5151 17.367 62.7563 17.3572C62.9055 17.3515 63.1369 17.6165 63.1736 17.2686C63.1899 17.345 63.3757 17.328 63.4857 17.3263C63.4947 17.445 63.458 17.5572 63.4336 17.6718C63.5526 17.7807 63.7416 17.7393 63.8468 17.6263C64.4001 18.2026 65.2273 19.0789 65.5566 19.5016C66.0708 20.1625 65.9763 20.6079 65.9893 21.5256C66.0032 22.4434 65.9217 23.0099 65.9217 23.0099L66.4767 22.9693C66.4767 22.9693 66.3414 20.9591 66.4767 20.4193C66.5769 20.0202 68.1392 18.5522 68.9444 17.8149C69.1588 17.8466 69.3315 17.9075 69.1392 18.1425C69.3226 18.2465 69.391 18.5058 69.6494 18.3945C69.7838 18.3359 69.9501 18.0783 69.8482 17.9571C69.8784 17.9271 69.986 17.8685 70.0259 17.8588C70.0528 17.8978 70.1163 17.9344 70.1318 17.9555C70.1131 17.1605 71.0397 18.0522 71.2842 17.9791C71.4912 17.9173 71.5939 17.6946 71.5548 17.5101V17.5109ZM67.0007 17.2629C66.9494 17.3532 66.9282 17.4214 66.9306 17.4735C66.863 17.58 66.7896 17.6783 66.7195 17.7344C66.5517 17.8702 66.7171 17.2768 66.8002 17.0028C66.845 17.1061 66.8899 17.2199 67.0007 17.2629ZM65.0676 16.7061C65.0586 16.7655 65.0546 16.8142 65.0546 16.8573C65.0301 16.8232 65.0081 16.7915 64.9894 16.7647C65.0163 16.7549 65.0431 16.737 65.0676 16.7069V16.7061ZM64.176 16.9183C64.4759 17.1516 64.5371 16.837 64.6976 16.6614C64.8932 16.8638 65.3561 17.3702 65.1507 17.4239C64.9437 17.4784 64.3855 17.1621 64.176 17.037C64.176 16.9923 64.176 16.9516 64.176 16.9183ZM64.0049 17.5003C64.101 17.471 64.1434 17.3678 64.1622 17.2507C64.4156 17.3044 65.11 17.4743 65.3406 17.7482C65.625 18.0856 65.9225 19.4618 65.9225 19.4618C65.9225 19.4618 64.7009 18.2433 64.0049 17.5011V17.5003ZM65.2118 17.0792C65.2705 17.0898 65.3455 17.089 65.4368 17.0882C65.5835 17.0865 65.6691 17.0784 65.7587 17.037L65.9624 18.1262C65.9624 18.1262 65.5232 17.5182 65.2118 17.08V17.0792ZM65.9551 17.0817C66.0806 17.3329 66.387 16.8386 66.5712 16.8118C66.5965 16.8085 66.6177 16.8085 66.6372 16.8126C66.5867 17.1182 66.4188 18.1173 66.3275 18.5034C66.2363 18.8911 66.0382 17.7287 65.9551 17.0817ZM66.9363 19.1512C66.7742 19.3805 66.3813 19.7178 66.3813 19.7178C66.3813 19.7178 66.638 18.3416 66.841 17.923C66.8956 17.8108 66.9453 17.6913 66.9901 17.5767C67.0569 17.6165 67.1719 17.6206 67.3088 17.6068C67.3055 17.6848 67.3642 17.7775 67.3715 17.8506C67.3992 17.8482 67.4278 17.8409 67.4563 17.8303C67.44 17.8872 67.4245 17.9458 67.409 18.0043C67.2737 18.5302 67.0977 18.922 66.9355 19.1512H66.9363ZM67.4644 18.692C67.497 18.492 67.5598 18.0978 67.6168 17.7409C67.7969 17.6068 67.9583 17.3759 67.9991 17.2069C68.0895 17.2215 68.1824 17.1548 68.2607 17.1695C68.3193 17.18 68.4245 17.2711 68.4563 17.2703C68.6201 17.2678 68.4481 17.3759 68.6567 17.2613C68.7146 17.2296 68.7668 17.0947 68.8124 17.0427C68.8703 17.1345 68.8914 17.2377 68.9941 17.2816C68.9941 17.3223 68.9876 17.3629 68.9778 17.4036C68.6103 17.7287 67.9656 18.2912 67.4644 18.6912V18.692Z" fill="#563008"/>
<path d="M65.7952 24.6359C68.2206 24.6359 70.3835 23.5149 71.7926 21.7656H59.7979C61.2069 23.5157 63.3699 24.6359 65.7952 24.6359Z" fill="#563008"/>
</g>
<defs>
<clipPath id="clip0_10524_1243">
<rect width="147" height="50" fill="white"/>
</clipPath>
</defs>
</svg>
